<svg width="40" height="40" viewBox="0 0 40 40" fill="none" xmlns="http://www.w3.org/2000/svg">
<path d="M24.3667 20.0381C23.2414 21.0132 21.8221 21.5834 20.3351 21.658C18.848 21.7326 17.3788 21.3072 16.1616 20.4496C14.9444 19.5921 14.0493 18.3518 13.619 16.9264C13.1886 15.501 13.2479 13.9726 13.7872 12.5848C14.3266 11.1969 15.315 10.0296 16.5949 9.26887C17.8749 8.50813 19.3726 8.19775 20.8494 8.38721C22.3263 8.57667 23.6972 9.25506 24.7436 10.3143C25.7901 11.3734 26.4518 12.7525 26.6234 14.2315C27.2167 17.2481 27.2101 20.8431 25.8501 24.0648C24.4134 27.4648 21.5151 30.3315 16.5667 31.6265C16.4074 31.6698 16.241 31.6811 16.0773 31.6598C15.9135 31.6385 15.7556 31.5849 15.6127 31.5022C15.4697 31.4195 15.3446 31.3093 15.2445 31.1779C15.1444 31.0466 15.0713 30.8967 15.0295 30.737C14.9876 30.5772 14.9779 30.4108 15.0007 30.2472C15.0236 30.0836 15.0786 29.9263 15.1627 29.7841C15.2467 29.6419 15.3581 29.5179 15.4904 29.419C15.6227 29.3201 15.7733 29.2485 15.9334 29.2081C20.1517 28.1031 22.4201 25.7581 23.5467 23.0915C23.9531 22.1142 24.2288 21.0875 24.3667 20.0381Z" fill="#353546"/>
</svg>
