<svg width="40" height="40" viewBox="0 0 40 40" fill="none" xmlns="http://www.w3.org/2000/svg">
<path d="M15.6333 20.0381C16.7586 21.0132 18.1779 21.5834 19.6649 21.658C21.152 21.7326 22.6212 21.3072 23.8384 20.4497C25.0556 19.5921 25.9507 18.3518 26.381 16.9264C26.8114 15.501 26.7521 13.9726 26.2128 12.5848C25.6734 11.1969 24.685 10.0296 23.4051 9.26887C22.1251 8.50813 20.6274 8.19775 19.1506 8.38721C17.6737 8.57667 16.3028 9.25506 15.2564 10.3143C14.2099 11.3734 13.5482 12.7525 13.3766 14.2315C12.7833 17.2481 12.7899 20.8431 14.1499 24.0648C15.5866 27.4648 18.4849 30.3315 23.4333 31.6265C23.5926 31.6698 23.759 31.6811 23.9227 31.6598C24.0865 31.6385 24.2444 31.5849 24.3873 31.5022C24.5303 31.4195 24.6554 31.3093 24.7555 31.178C24.8556 31.0466 24.9287 30.8967 24.9705 30.737C25.0124 30.5772 25.0221 30.4108 24.9993 30.2472C24.9764 30.0837 24.9214 29.9263 24.8373 29.7841C24.7533 29.6419 24.6419 29.5179 24.5096 29.419C24.3773 29.3201 24.2267 29.2485 24.0666 29.2081C19.8483 28.1031 17.5799 25.7581 16.4533 23.0915C16.0469 22.1142 15.7712 21.0875 15.6333 20.0381Z" fill="#353546"/>
</svg>
