<svg width="35" height="35" viewBox="0 0 35 35" fill="none" xmlns="http://www.w3.org/2000/svg">
<path d="M17.4997 2.71387C9.35158 2.71387 2.72241 9.34685 2.72241 17.4999C2.72241 25.653 9.35158 32.2859 17.4997 32.2859C25.6481 32.2859 32.2775 25.653 32.2775 17.4999C32.2775 9.34685 25.6481 2.71387 17.4997 2.71387ZM17.4997 30.8276C10.1551 30.8276 4.17991 24.8487 4.17991 17.4999C4.17991 10.1511 10.1551 4.1722 17.4997 4.1722C24.8447 4.1722 30.82 10.1511 30.82 17.4999C30.82 24.8487 24.8447 30.8276 17.4997 30.8276Z" fill="white"/>
<path d="M15.8648 17.1701C16.3193 16.9642 16.6795 16.6556 16.945 16.2436C17.2081 15.84 17.3467 15.3678 17.3434 14.8859C17.3434 14.4311 17.2358 14.0204 17.0206 13.6543C16.8051 13.288 16.5357 12.9947 16.2129 12.7745C15.8898 12.5542 15.5237 12.4096 15.1147 12.3401C14.7056 12.2706 14.0849 12.2358 13.252 12.2358H9.04517V22.7653H12.627C13.9812 22.7553 14.8355 22.7315 15.1897 22.6931C15.7543 22.6308 16.2294 22.4643 16.6144 22.1941C16.9999 21.9235 17.3038 21.5616 17.5263 21.1093C17.7488 20.657 17.8598 20.1913 17.8598 19.7122C17.8598 19.1041 17.6876 18.5752 17.3432 18.1248C16.999 17.6754 16.5056 17.3568 15.8648 17.1701ZM11.1697 13.9883H12.3901C13.3902 13.9883 13.9955 14.0002 14.2064 14.024C14.5603 14.0673 14.8273 14.1907 15.0066 14.3937C15.1861 14.5976 15.2757 14.8621 15.2757 15.1875C15.2757 15.5275 15.1717 15.8017 14.9636 16.01C14.7554 16.2183 14.4695 16.344 14.1058 16.3872C13.9049 16.4113 13.3904 16.423 12.5623 16.423H11.1697V13.9883ZM15.3658 20.506C15.1671 20.7287 14.9099 20.8687 14.5941 20.9263C14.3881 20.9696 13.9023 20.9909 13.1368 20.9909H11.1697V18.1756H12.8854C13.852 18.1756 14.4799 18.2255 14.7697 18.3261C15.059 18.4267 15.2806 18.5871 15.4336 18.8073C15.5866 19.0275 15.6632 19.2959 15.6632 19.6121C15.6634 19.9854 15.5643 20.2834 15.3658 20.506ZM24.8429 15.8452C24.1535 15.0961 23.2132 14.7213 22.021 14.7213C20.9597 14.7213 20.082 15.0793 19.3878 15.7951C18.6935 16.5109 18.3469 17.5007 18.3469 18.7648C18.3469 19.8231 18.6107 20.6993 19.1393 21.3937C19.8078 22.2604 20.8392 22.6935 22.2321 22.6935C23.1126 22.6935 23.8458 22.5008 24.4317 22.1153C25.0176 21.7303 25.7677 20.9338 25.782 20.2287L23.6058 20.2416C23.4899 20.6247 23.3186 20.7542 23.093 20.9265C22.8661 21.0989 22.5872 21.1851 22.2552 21.1851C21.7674 21.1851 21.3598 21.0189 21.033 20.6862C20.7061 20.3529 20.5353 19.8872 20.5203 19.2891H25.8316C25.861 17.7427 25.5318 16.5948 24.8429 15.8452ZM20.5572 18.0536C20.5521 17.5033 20.7005 17.0675 21.0022 16.7467C21.3039 16.4261 21.6862 16.2657 22.1495 16.2657C22.5816 16.2657 22.9489 16.4176 23.2506 16.7217C23.5523 17.0257 23.7109 17.4698 23.726 18.0536H20.5572ZM19.9922 12.686H24.2376V13.7134H19.9922V12.686Z" fill="white"/>
</svg>
