<svg width="36" height="35" viewBox="0 0 36 35" fill="none" xmlns="http://www.w3.org/2000/svg">
<path d="M26.7339 11.6665C26.7339 9.34586 25.812 7.12026 24.1711 5.47932C22.5301 3.83838 20.3045 2.9165 17.9839 2.9165C15.6632 2.9165 13.4376 3.83838 11.7967 5.47932C10.1558 7.12026 9.23389 9.34586 9.23389 11.6665C9.23389 21.8748 4.85889 24.7915 4.85889 24.7915H31.1089C31.1089 24.7915 26.7339 21.8748 26.7339 11.6665Z" stroke="white" stroke-width="2" stroke-linecap="round" stroke-linejoin="round"/>
<path d="M20.5068 30.625C20.2504 31.067 19.8824 31.4339 19.4396 31.6889C18.9968 31.9439 18.4948 32.0782 17.9839 32.0782C17.4729 32.0782 16.9709 31.9439 16.5281 31.6889C16.0853 31.4339 15.7173 31.067 15.4609 30.625" stroke="white" stroke-width="2" stroke-linecap="round" stroke-linejoin="round"/>
</svg>
