<svg width="36" height="36" viewBox="0 0 36 36" fill="none" xmlns="http://www.w3.org/2000/svg">
<path d="M31.8115 16.8781L30.3076 10.25C29.6514 7.5 27.4639 5.5 25.0576 5.5H24.292V3C24.292 1.61953 23.3124 0.5 22.1045 0.5H13.3545C12.1466 0.5 11.167 1.61953 11.167 3V5.5H10.4014C7.99512 5.5 5.80762 7.5 5.15137 10.25L3.64746 16.8781C1.69307 17.3781 0.229492 19.3648 0.229492 21.75V25.5C0.229492 27.3461 1.11475 28.9406 2.41699 29.8062V33C2.41699 34.3805 3.39658 35.5 4.60449 35.5H6.79199C7.9999 35.5 8.97949 34.3805 8.97949 33V30.5H26.4795V33C26.4795 34.3805 27.4591 35.5 28.667 35.5H30.8545C32.0624 35.5 33.042 34.3805 33.042 33V29.8062C34.3442 28.9398 35.2295 27.3453 35.2295 25.5V21.75C35.2295 19.3648 33.7659 17.3781 31.8115 16.8781ZM6.79199 25.5C5.58408 25.5 4.60449 24.3805 4.60449 23C4.60449 21.6195 5.58408 20.5 6.79199 20.5C7.9999 20.5 8.97949 21.6195 8.97949 23C8.97949 24.3805 7.9999 25.5 6.79199 25.5ZM8.19678 16.75L9.37256 11.5656C9.525 10.9281 10.0281 10.5 10.4021 10.5H25.0583C25.4322 10.5 25.9354 10.9281 26.0734 11.5047L27.2622 16.75H8.19678ZM28.667 25.5C27.4591 25.5 26.4795 24.3805 26.4795 23C26.4795 21.6195 27.4591 20.5 28.667 20.5C29.8749 20.5 30.8545 21.6195 30.8545 23C30.8545 24.3805 29.8749 25.5 28.667 25.5Z" fill="white"/>
</svg>
