<svg width="50" height="42" viewBox="0 0 50 42" fill="none" xmlns="http://www.w3.org/2000/svg">
<path d="M17.634 31.7143H32.3661C32.6116 31.7143 32.8125 31.5134 32.8125 31.2678V26.5803C32.8125 26.3348 32.6116 26.1339 32.3661 26.1339H30.134C29.8884 26.1339 29.6875 26.3348 29.6875 26.5803V28.5893H20.3125V26.5803C20.3125 26.3348 20.1116 26.1339 19.8661 26.1339H17.634C17.3884 26.1339 17.1875 26.3348 17.1875 26.5803V31.2678C17.1875 31.5134 17.3884 31.7143 17.634 31.7143ZM36.6072 24.8504C36.6072 25.4424 36.8423 26.0102 37.261 26.4288C37.6796 26.8474 38.2473 27.0826 38.8393 27.0826C39.4313 27.0826 39.9991 26.8474 40.4177 26.4288C40.8363 26.0102 41.0715 25.4424 41.0715 24.8504C41.0715 24.2584 40.8363 23.6907 40.4177 23.272C39.9991 22.8534 39.4313 22.6183 38.8393 22.6183C38.2473 22.6183 37.6796 22.8534 37.261 23.272C36.8423 23.6907 36.6072 24.2584 36.6072 24.8504ZM49.9442 15.4977L48.6217 13.1875C48.5622 13.0856 48.4649 13.0114 48.3509 12.9811C48.237 12.9508 48.1156 12.9668 48.0134 13.0256L45.1842 14.6774L40.8148 2.61269C40.5841 1.89279 40.1306 1.26483 39.5197 0.819485C38.9089 0.374137 38.1723 0.134442 37.4163 0.135011H13.2366C11.3003 0.135011 9.5815 1.38501 8.9844 3.23211L4.82146 14.683L1.98663 13.0312C1.88443 12.9724 1.7631 12.9564 1.64913 12.9867C1.53517 13.017 1.43783 13.0912 1.37838 13.193L0.0558307 15.4977C-0.0669371 15.7098 0.00560762 15.9776 0.217661 16.1004L3.5882 18.0647L2.77905 20.2968C2.71208 20.4754 2.6786 20.6651 2.6786 20.8549V40.2857C2.6786 41.1618 3.33708 41.8705 4.14623 41.8705H7.91855C8.60494 41.8705 9.20204 41.3515 9.34713 40.6261L9.77681 38.5223H40.2232L40.6529 40.6261C40.8036 41.3515 41.3951 41.8705 42.0815 41.8705H45.8538C46.663 41.8705 47.3215 41.1618 47.3215 40.2857V20.8549C47.3215 20.6651 47.288 20.4754 47.221 20.2968L46.4119 18.0647L49.7768 16.1004C49.8781 16.0419 49.9524 15.946 49.9837 15.8333C50.015 15.7206 50.0008 15.6001 49.9442 15.4977ZM43.3036 21.279V34.5044H6.69646V21.279L7.56699 18.8794H42.4331L43.3036 21.279ZM12.7623 4.5993L12.7902 4.52675L12.8125 4.45421C12.8739 4.27005 13.0413 4.14729 13.2366 4.14729H37.0982L41.3058 15.7544H8.70538L12.7623 4.5993ZM8.9286 24.8504C8.9286 25.4424 9.16377 26.0102 9.58238 26.4288C10.001 26.8474 10.5687 27.0826 11.1607 27.0826C11.7527 27.0826 12.3205 26.8474 12.7391 26.4288C13.1577 26.0102 13.3929 25.4424 13.3929 24.8504C13.3929 24.2584 13.1577 23.6907 12.7391 23.272C12.3205 22.8534 11.7527 22.6183 11.1607 22.6183C10.5687 22.6183 10.001 22.8534 9.58238 23.272C9.16377 23.6907 8.9286 24.2584 8.9286 24.8504Z" fill="white"/>
</svg>
