<svg width="37" height="36" viewBox="0 0 37 36" fill="none" xmlns="http://www.w3.org/2000/svg">
<g clip-path="url(#clip0_170_1041)">
<path d="M6.47952 11.4998L12.2295 13.1598L18.5495 8.56982L9.47952 8.82982C9.39072 8.83467 9.30464 8.86222 9.22952 8.90982L6.35952 10.5598C6.27024 10.6093 6.19786 10.6844 6.15174 10.7754C6.10561 10.8665 6.08786 10.9693 6.10079 11.0705C6.11371 11.1718 6.15671 11.2668 6.22423 11.3433C6.29175 11.4199 6.38068 11.4744 6.47952 11.4998Z" fill="white"/>
<path d="M34.7493 6.36011L28.4493 5.00011C27.9195 4.88508 27.3711 4.88538 26.8414 5.00099C26.3117 5.11659 25.813 5.34479 25.3793 5.67011L6.34929 19.5001L1.77929 19.3001C1.51752 19.2912 1.25958 19.3648 1.04187 19.5104C0.824163 19.656 0.657695 19.8663 0.565972 20.1116C0.47425 20.357 0.461907 20.6249 0.530686 20.8776C0.599465 21.1304 0.745891 21.3551 0.949289 21.5201L5.39929 25.0501C5.47255 25.1092 5.55975 25.1485 5.65254 25.1643C5.74534 25.18 5.84063 25.1717 5.92929 25.1401C7.19929 24.6501 11.9293 22.1401 17.5193 19.0701L18.6393 30.5801C18.6488 30.6798 18.6853 30.775 18.745 30.8554C18.8046 30.9359 18.8851 30.9985 18.9777 31.0366C19.0703 31.0747 19.1715 31.0867 19.2705 31.0715C19.3695 31.0563 19.4624 31.0143 19.5393 30.9501L22.0393 28.8701C22.1761 28.7553 22.2682 28.596 22.2993 28.4201L24.6693 15.1301C28.6693 12.9101 32.4893 10.7601 35.1793 9.24011C35.4585 9.08821 35.6842 8.85416 35.8259 8.56969C35.9676 8.28522 36.0184 7.96406 35.9715 7.64973C35.9245 7.33541 35.7821 7.0431 35.5635 6.81243C35.3449 6.58175 35.0606 6.42384 34.7493 6.36011Z" fill="white"/>
</g>
<defs>
<clipPath id="clip0_170_1041">
<rect width="36" height="36" fill="white" transform="translate(0.229492)"/>
</clipPath>
</defs>
</svg>
