<svg width="420" height="105" viewBox="0 0 420 105" fill="none" xmlns="http://www.w3.org/2000/svg">
<g opacity="0.9" filter="url(#filter0_d_147_662)">
<rect x="10" y="6" width="400" height="85" rx="35" fill="white" shape-rendering="crispEdges"/>
<path d="M55 42.6665C61.2132 42.6665 66.25 40.7077 66.25 38.2915C66.25 35.8753 61.2132 33.9165 55 33.9165C48.7868 33.9165 43.75 35.8753 43.75 38.2915C43.75 40.7077 48.7868 42.6665 55 42.6665Z" stroke="#19A5FF" stroke-width="2" stroke-linecap="round" stroke-linejoin="round"/>
<path d="M66.25 48.5C66.25 50.9208 61.25 52.875 55 52.875C48.75 52.875 43.75 50.9208 43.75 48.5" stroke="#19A5FF" stroke-width="2" stroke-linecap="round" stroke-linejoin="round"/>
<path d="M43.75 38.2915V58.7082C43.75 61.129 48.75 63.0832 55 63.0832C61.25 63.0832 66.25 61.129 66.25 58.7082V38.2915" stroke="#19A5FF" stroke-width="2" stroke-linecap="round" stroke-linejoin="round"/>
<path d="M153.375 56.5H148.438V40.5H153.594C155.146 40.5 156.474 40.8203 157.578 41.4609C158.682 42.0964 159.529 43.0104 160.117 44.2031C160.706 45.3906 161 46.8125 161 48.4687C161 50.1354 160.703 51.5703 160.109 52.7734C159.516 53.9714 158.651 54.8932 157.516 55.5391C156.38 56.1797 155 56.5 153.375 56.5ZM150.375 54.7812H153.25C154.573 54.7812 155.669 54.526 156.539 54.0156C157.409 53.5052 158.057 52.7786 158.484 51.8359C158.911 50.8932 159.125 49.7708 159.125 48.4687C159.125 47.1771 158.914 46.0651 158.492 45.1328C158.07 44.1953 157.44 43.4766 156.602 42.9766C155.763 42.4714 154.719 42.2187 153.469 42.2187H150.375V54.7812ZM167.751 56.7813C166.991 56.7813 166.301 56.638 165.681 56.3516C165.061 56.0599 164.569 55.6406 164.204 55.0938C163.84 54.5417 163.657 53.875 163.657 53.0937C163.657 52.4062 163.793 51.849 164.064 51.4219C164.335 50.9896 164.697 50.651 165.15 50.4062C165.603 50.1615 166.103 49.9792 166.65 49.8594C167.202 49.7344 167.756 49.6354 168.314 49.5625C169.043 49.4687 169.634 49.3984 170.087 49.3516C170.546 49.2995 170.879 49.2135 171.087 49.0937C171.301 48.974 171.407 48.7656 171.407 48.4687V48.4062C171.407 47.6354 171.197 47.0365 170.775 46.6094C170.358 46.1823 169.725 45.9687 168.876 45.9687C167.996 45.9687 167.306 46.1615 166.806 46.5469C166.306 46.9323 165.954 47.3437 165.751 47.7812L164.001 47.1562C164.314 46.4271 164.73 45.8594 165.251 45.4531C165.777 45.0417 166.35 44.7552 166.97 44.5937C167.595 44.4271 168.21 44.3438 168.814 44.3438C169.199 44.3438 169.642 44.3906 170.142 44.4844C170.647 44.5729 171.134 44.7578 171.603 45.0391C172.077 45.3203 172.47 45.7448 172.782 46.3125C173.095 46.8802 173.251 47.6406 173.251 48.5938V56.5H171.407V54.875H171.314C171.189 55.1354 170.98 55.4141 170.689 55.7109C170.397 56.0078 170.009 56.2604 169.525 56.4687C169.04 56.6771 168.449 56.7813 167.751 56.7813ZM168.032 55.125C168.762 55.125 169.376 54.9818 169.876 54.6953C170.381 54.4089 170.762 54.0391 171.017 53.5859C171.277 53.1328 171.407 52.6562 171.407 52.1562V50.4687C171.329 50.5625 171.157 50.6484 170.892 50.7266C170.631 50.7995 170.329 50.8646 169.986 50.9219C169.647 50.974 169.316 51.0208 168.993 51.0625C168.676 51.099 168.418 51.1302 168.22 51.1562C167.741 51.2187 167.293 51.3203 166.876 51.4609C166.465 51.5964 166.131 51.8021 165.876 52.0781C165.626 52.349 165.501 52.7187 165.501 53.1875C165.501 53.8281 165.738 54.3125 166.212 54.6406C166.691 54.9635 167.298 55.125 168.032 55.125ZM182.055 44.5V46.0625H175.836V44.5H182.055ZM177.649 41.625H179.493V53.0625C179.493 53.5833 179.568 53.974 179.719 54.2344C179.876 54.4896 180.073 54.6615 180.313 54.75C180.558 54.8333 180.816 54.875 181.086 54.875C181.29 54.875 181.456 54.8646 181.586 54.8437C181.717 54.8177 181.821 54.7969 181.899 54.7812L182.274 56.4375C182.149 56.4844 181.975 56.5313 181.751 56.5781C181.527 56.6302 181.243 56.6563 180.899 56.6563C180.378 56.6563 179.868 56.5443 179.368 56.3203C178.873 56.0964 178.461 55.7552 178.133 55.2969C177.81 54.8385 177.649 54.2604 177.649 53.5625V41.625ZM188.58 56.7813C187.82 56.7813 187.129 56.638 186.51 56.3516C185.89 56.0599 185.398 55.6406 185.033 55.0938C184.668 54.5417 184.486 53.875 184.486 53.0937C184.486 52.4062 184.622 51.849 184.892 51.4219C185.163 50.9896 185.525 50.651 185.978 50.4062C186.431 50.1615 186.931 49.9792 187.478 49.8594C188.03 49.7344 188.585 49.6354 189.142 49.5625C189.872 49.4687 190.463 49.3984 190.916 49.3516C191.374 49.2995 191.708 49.2135 191.916 49.0937C192.129 48.974 192.236 48.7656 192.236 48.4687V48.4062C192.236 47.6354 192.025 47.0365 191.603 46.6094C191.187 46.1823 190.554 45.9687 189.705 45.9687C188.825 45.9687 188.135 46.1615 187.635 46.5469C187.135 46.9323 186.783 47.3437 186.58 47.7812L184.83 47.1562C185.142 46.4271 185.559 45.8594 186.08 45.4531C186.606 45.0417 187.179 44.7552 187.799 44.5937C188.424 44.4271 189.038 44.3438 189.642 44.3438C190.028 44.3438 190.471 44.3906 190.971 44.4844C191.476 44.5729 191.963 44.7578 192.431 45.0391C192.905 45.3203 193.299 45.7448 193.611 46.3125C193.924 46.8802 194.08 47.6406 194.08 48.5938V56.5H192.236V54.875H192.142C192.017 55.1354 191.809 55.4141 191.517 55.7109C191.226 56.0078 190.838 56.2604 190.353 56.4687C189.869 56.6771 189.278 56.7813 188.58 56.7813ZM188.861 55.125C189.59 55.125 190.205 54.9818 190.705 54.6953C191.21 54.4089 191.59 54.0391 191.846 53.5859C192.106 53.1328 192.236 52.6562 192.236 52.1562V50.4687C192.158 50.5625 191.986 50.6484 191.721 50.7266C191.46 50.7995 191.158 50.8646 190.814 50.9219C190.476 50.974 190.145 51.0208 189.822 51.0625C189.504 51.099 189.247 51.1302 189.049 51.1562C188.57 51.2187 188.122 51.3203 187.705 51.4609C187.293 51.5964 186.96 51.8021 186.705 52.0781C186.455 52.349 186.33 52.7187 186.33 53.1875C186.33 53.8281 186.567 54.3125 187.041 54.6406C187.52 54.9635 188.127 55.125 188.861 55.125ZM197.915 56.5V40.5H199.759V46.4062H199.915C200.051 46.1979 200.238 45.9323 200.478 45.6094C200.722 45.2812 201.071 44.9896 201.525 44.7344C201.983 44.474 202.603 44.3438 203.384 44.3438C204.394 44.3438 205.285 44.5964 206.056 45.1016C206.827 45.6068 207.428 46.3229 207.86 47.25C208.293 48.1771 208.509 49.2708 208.509 50.5313C208.509 51.8021 208.293 52.9036 207.86 53.8359C207.428 54.763 206.829 55.4818 206.064 55.9922C205.298 56.4974 204.415 56.75 203.415 56.75C202.644 56.75 202.027 56.6224 201.564 56.3672C201.1 56.1068 200.743 55.8125 200.493 55.4844C200.243 55.151 200.051 54.875 199.915 54.6562H199.696V56.5H197.915ZM199.728 50.5C199.728 51.4062 199.86 52.2057 200.126 52.8984C200.392 53.5859 200.78 54.125 201.29 54.5156C201.801 54.901 202.426 55.0938 203.165 55.0938C203.936 55.0938 204.579 54.8906 205.095 54.4844C205.616 54.0729 206.006 53.5208 206.267 52.8281C206.532 52.1302 206.665 51.3542 206.665 50.5C206.665 49.6562 206.535 48.8958 206.275 48.2187C206.019 47.5365 205.631 46.9974 205.11 46.6016C204.595 46.2005 203.946 46 203.165 46C202.415 46 201.785 46.1901 201.275 46.5703C200.764 46.9453 200.379 47.4714 200.118 48.1484C199.858 48.8203 199.728 49.6042 199.728 50.5ZM215.08 56.7813C214.32 56.7813 213.63 56.638 213.01 56.3516C212.39 56.0599 211.898 55.6406 211.534 55.0938C211.169 54.5417 210.987 53.875 210.987 53.0937C210.987 52.4062 211.122 51.849 211.393 51.4219C211.664 50.9896 212.026 50.651 212.479 50.4062C212.932 50.1615 213.432 49.9792 213.979 49.8594C214.531 49.7344 215.086 49.6354 215.643 49.5625C216.372 49.4687 216.963 49.3984 217.416 49.3516C217.875 49.2995 218.208 49.2135 218.416 49.0937C218.63 48.974 218.737 48.7656 218.737 48.4687V48.4062C218.737 47.6354 218.526 47.0365 218.104 46.6094C217.687 46.1823 217.054 45.9687 216.205 45.9687C215.325 45.9687 214.635 46.1615 214.135 46.5469C213.635 46.9323 213.284 47.3437 213.08 47.7812L211.33 47.1562C211.643 46.4271 212.06 45.8594 212.58 45.4531C213.107 45.0417 213.679 44.7552 214.299 44.5937C214.924 44.4271 215.539 44.3438 216.143 44.3438C216.528 44.3438 216.971 44.3906 217.471 44.4844C217.976 44.5729 218.463 44.7578 218.932 45.0391C219.406 45.3203 219.799 45.7448 220.112 46.3125C220.424 46.8802 220.58 47.6406 220.58 48.5938V56.5H218.737V54.875H218.643C218.518 55.1354 218.31 55.4141 218.018 55.7109C217.726 56.0078 217.338 56.2604 216.854 56.4687C216.37 56.6771 215.778 56.7813 215.08 56.7813ZM215.362 55.125C216.091 55.125 216.705 54.9818 217.205 54.6953C217.711 54.4089 218.091 54.0391 218.346 53.5859C218.607 53.1328 218.737 52.6562 218.737 52.1562V50.4687C218.659 50.5625 218.487 50.6484 218.221 50.7266C217.961 50.7995 217.659 50.8646 217.315 50.9219C216.976 50.974 216.646 51.0208 216.323 51.0625C216.005 51.099 215.747 51.1302 215.549 51.1562C215.07 51.2187 214.622 51.3203 214.205 51.4609C213.794 51.5964 213.461 51.8021 213.205 52.0781C212.955 52.349 212.83 52.7187 212.83 53.1875C212.83 53.8281 213.067 54.3125 213.541 54.6406C214.021 54.9635 214.627 55.125 215.362 55.125ZM232.666 47.1875L231.009 47.6562C230.905 47.3802 230.752 47.112 230.549 46.8516C230.351 46.5859 230.08 46.3672 229.736 46.1953C229.392 46.0234 228.952 45.9375 228.416 45.9375C227.681 45.9375 227.069 46.1068 226.58 46.4453C226.095 46.7786 225.853 47.2031 225.853 47.7187C225.853 48.1771 226.02 48.5391 226.353 48.8047C226.687 49.0703 227.207 49.2917 227.916 49.4687L229.697 49.9063C230.77 50.1667 231.569 50.5651 232.095 51.1016C232.621 51.6328 232.884 52.3177 232.884 53.1562C232.884 53.8437 232.687 54.4583 232.291 55C231.9 55.5417 231.353 55.9688 230.65 56.2813C229.947 56.5938 229.129 56.75 228.197 56.75C226.973 56.75 225.96 56.4844 225.158 55.9531C224.356 55.4219 223.848 54.6458 223.634 53.625L225.384 53.1875C225.551 53.8333 225.866 54.3177 226.33 54.6406C226.799 54.9635 227.41 55.125 228.166 55.125C229.025 55.125 229.707 54.9427 230.213 54.5781C230.723 54.2083 230.978 53.7656 230.978 53.25C230.978 52.8333 230.832 52.4844 230.541 52.2031C230.249 51.9167 229.801 51.7031 229.197 51.5625L227.197 51.0937C226.098 50.8333 225.291 50.4297 224.775 49.8828C224.265 49.3307 224.009 48.6406 224.009 47.8125C224.009 47.1354 224.2 46.5365 224.58 46.0156C224.965 45.4948 225.489 45.0859 226.15 44.7891C226.817 44.4922 227.572 44.3438 228.416 44.3438C229.603 44.3438 230.535 44.6042 231.213 45.125C231.895 45.6458 232.379 46.3333 232.666 47.1875ZM240.911 56.75C239.755 56.75 238.757 56.4948 237.919 55.9844C237.086 55.4688 236.442 54.75 235.989 53.8281C235.541 52.901 235.317 51.8229 235.317 50.5938C235.317 49.3646 235.541 48.2812 235.989 47.3437C236.442 46.401 237.073 45.6667 237.88 45.1406C238.692 44.6094 239.64 44.3438 240.724 44.3438C241.349 44.3438 241.966 44.4479 242.575 44.6562C243.185 44.8646 243.739 45.2031 244.239 45.6719C244.739 46.1354 245.138 46.75 245.435 47.5156C245.731 48.2812 245.88 49.224 245.88 50.3437V51.125H236.63V49.5312H244.005C244.005 48.8542 243.869 48.25 243.599 47.7187C243.333 47.1875 242.953 46.7682 242.458 46.4609C241.968 46.1536 241.39 46 240.724 46C239.989 46 239.354 46.1823 238.817 46.5469C238.286 46.9062 237.877 47.375 237.591 47.9531C237.304 48.5312 237.161 49.151 237.161 49.8125V50.875C237.161 51.7813 237.317 52.5495 237.63 53.1797C237.948 53.8047 238.388 54.2812 238.95 54.6094C239.513 54.9323 240.166 55.0938 240.911 55.0938C241.395 55.0938 241.833 55.026 242.224 54.8906C242.619 54.75 242.961 54.5417 243.247 54.2656C243.533 53.9844 243.755 53.6354 243.911 53.2187L245.692 53.7188C245.505 54.3229 245.19 54.8542 244.747 55.3125C244.304 55.7656 243.757 56.1198 243.106 56.375C242.455 56.625 241.724 56.75 240.911 56.75ZM257.405 47.1875L255.748 47.6562C255.644 47.3802 255.49 47.112 255.287 46.8516C255.089 46.5859 254.819 46.3672 254.475 46.1953C254.131 46.0234 253.691 45.9375 253.155 45.9375C252.42 45.9375 251.808 46.1068 251.319 46.4453C250.834 46.7786 250.592 47.2031 250.592 47.7187C250.592 48.1771 250.759 48.5391 251.092 48.8047C251.425 49.0703 251.946 49.2917 252.655 49.4687L254.436 49.9063C255.509 50.1667 256.308 50.5651 256.834 51.1016C257.36 51.6328 257.623 52.3177 257.623 53.1562C257.623 53.8437 257.425 54.4583 257.03 55C256.639 55.5417 256.092 55.9688 255.389 56.2813C254.686 56.5938 253.868 56.75 252.936 56.75C251.712 56.75 250.699 56.4844 249.897 55.9531C249.095 55.4219 248.587 54.6458 248.373 53.625L250.123 53.1875C250.29 53.8333 250.605 54.3177 251.069 54.6406C251.537 54.9635 252.149 55.125 252.905 55.125C253.764 55.125 254.446 54.9427 254.951 54.5781C255.462 54.2083 255.717 53.7656 255.717 53.25C255.717 52.8333 255.571 52.4844 255.28 52.2031C254.988 51.9167 254.54 51.7031 253.936 51.5625L251.936 51.0937C250.837 50.8333 250.03 50.4297 249.514 49.8828C249.003 49.3307 248.748 48.6406 248.748 47.8125C248.748 47.1354 248.938 46.5365 249.319 46.0156C249.704 45.4948 250.227 45.0859 250.889 44.7891C251.556 44.4922 252.311 44.3438 253.155 44.3438C254.342 44.3438 255.274 44.6042 255.951 45.125C256.634 45.6458 257.118 46.3333 257.405 47.1875Z" fill="#19A5FF"/>
<path d="M349 53.5L354 48.5L349 43.5" stroke="#19A5FF" stroke-width="2" stroke-linecap="round" stroke-linejoin="round"/>
<path d="M342 53.5L347 48.5L342 43.5" stroke="#19A5FF" stroke-width="2" stroke-linecap="round" stroke-linejoin="round"/>
</g>
<defs>
<filter id="filter0_d_147_662" x="0" y="0" width="420" height="105" filterUnits="userSpaceOnUse" color-interpolation-filters="sRGB">
<feFlood flood-opacity="0" result="BackgroundImageFix"/>
<feColorMatrix in="SourceAlpha" type="matrix" values="0 0 0 0 0 0 0 0 0 0 0 0 0 0 0 0 0 0 127 0" result="hardAlpha"/>
<feOffset dy="4"/>
<feGaussianBlur stdDeviation="5"/>
<feComposite in2="hardAlpha" operator="out"/>
<feColorMatrix type="matrix" values="0 0 0 0 0 0 0 0 0 0 0 0 0 0 0 0 0 0 0.13 0"/>
<feBlend mode="normal" in2="BackgroundImageFix" result="effect1_dropShadow_147_662"/>
<feBlend mode="normal" in="SourceGraphic" in2="effect1_dropShadow_147_662" result="shape"/>
</filter>
</defs>
</svg>
