<svg width="35" height="35" viewBox="0 0 35 35" fill="none" xmlns="http://www.w3.org/2000/svg">
<path d="M30.6251 14.2189C31.3719 14.2224 32.1049 14.0172 32.7415 13.6266C33.378 13.2359 33.8928 12.6753 34.2279 12.0078C34.563 11.3403 34.705 10.5925 34.638 9.84869C34.571 9.10484 34.2976 8.39449 33.8486 7.79765C33.3996 7.2008 32.7929 6.7412 32.0968 6.4706C31.4006 6.2 30.6428 6.12917 29.9086 6.26608C29.1744 6.40299 28.493 6.7422 27.9412 7.24551C27.3894 7.74881 26.9891 8.3962 26.7854 9.11475H22.9688V8.021C22.9677 7.15108 22.6217 6.31711 22.0066 5.70199C21.3914 5.08687 20.5575 4.74082 19.6876 4.73975H15.3126C14.4426 4.74082 13.6087 5.08687 12.9936 5.70199C12.3784 6.31711 12.0324 7.15108 12.0313 8.021V9.11475H8.21475C7.95076 8.18346 7.35884 7.37908 6.54822 6.85004C5.7376 6.321 4.76299 6.103 3.80423 6.23627C2.84547 6.36953 1.96726 6.84507 1.33166 7.57514C0.696051 8.3052 0.345947 9.24052 0.345947 10.2085C0.345947 11.1765 0.696051 12.1118 1.33166 12.8419C1.96726 13.5719 2.84547 14.0475 3.80423 14.1807C4.76299 14.314 5.7376 14.096 6.54822 13.5669C7.35884 13.0379 7.95076 12.2335 8.21475 11.3022H11.0396C9.57764 12.4202 8.38567 13.8526 7.5519 15.4934C6.71813 17.1342 6.26389 18.9414 6.22277 20.7814H5.83339C4.96348 20.7825 4.12951 21.1285 3.51439 21.7437C2.89926 22.3588 2.55322 23.1927 2.55215 24.0627V26.9793C2.55322 27.8492 2.89926 28.6832 3.51439 29.2983C4.12951 29.9135 4.96348 30.2595 5.83339 30.2606H8.75006C9.20496 30.2618 9.65453 30.1626 10.0667 29.97C10.6519 29.7199 11.1504 29.3028 11.4999 28.7709C11.8493 28.2389 12.0341 27.6158 12.0313 26.9793V24.0627C12.0302 23.1927 11.6842 22.3588 11.0691 21.7437C10.4539 21.1285 9.61997 20.7825 8.75006 20.7814H8.40995C8.44958 19.3251 8.80418 17.8946 9.44936 16.5884C10.0945 15.2822 11.015 14.1313 12.1474 13.2147C12.328 13.9176 12.7367 14.5407 13.3095 14.9864C13.8823 15.432 14.5868 15.675 15.3126 15.6772H19.6876C20.4133 15.675 21.1178 15.432 21.6906 14.9864C22.2634 14.5407 22.6721 13.9176 22.8527 13.2147C23.9851 14.1313 24.9056 15.2822 25.5508 16.5884C26.1959 17.8946 26.5505 19.3251 26.5902 20.7814H26.2501C25.3801 20.7825 24.5462 21.1285 23.9311 21.7437C23.3159 22.3588 22.9699 23.1927 22.9688 24.0627V26.9793C22.9639 27.6086 23.1436 28.2255 23.4855 28.7537C23.8275 29.2819 24.3168 29.6984 24.8928 29.9515C25.3166 30.1545 25.7803 30.26 26.2501 30.2606H29.1667C30.0366 30.2595 30.8706 29.9135 31.4857 29.2983C32.1009 28.6832 32.4469 27.8492 32.448 26.9793V24.0627C32.4469 23.1927 32.1009 22.3588 31.4857 21.7437C30.8706 21.1285 30.0366 20.7825 29.1667 20.7814H28.7774C28.7362 18.9414 28.282 17.1342 27.4482 15.4934C26.6145 13.8526 25.4225 12.4202 23.9605 11.3022H26.7853C27.0214 12.1397 27.5239 12.8773 28.2167 13.4036C28.9096 13.9299 29.755 14.2161 30.6251 14.2189ZM30.6251 8.38558C30.9856 8.38558 31.338 8.49249 31.6378 8.6928C31.9376 8.8931 32.1712 9.1778 32.3092 9.5109C32.4472 9.84399 32.4833 10.2105 32.4129 10.5641C32.3426 10.9177 32.169 11.2426 31.9141 11.4975C31.6591 11.7524 31.3343 11.926 30.9807 11.9964C30.6271 12.0667 30.2606 12.0306 29.9275 11.8927C29.5944 11.7547 29.3097 11.521 29.1094 11.2213C28.9091 10.9215 28.8021 10.569 28.8021 10.2085C28.8026 9.72517 28.9948 9.26176 29.3366 8.91999C29.6783 8.57823 30.1417 8.38603 30.6251 8.38558ZM4.37506 12.0314C4.01452 12.0314 3.66208 11.9245 3.3623 11.7242C3.06253 11.5239 2.82888 11.2392 2.69091 10.9061C2.55293 10.573 2.51683 10.2065 2.58717 9.85286C2.65751 9.49925 2.83113 9.17444 3.08606 8.9195C3.341 8.66456 3.66582 8.49094 4.01943 8.42061C4.37304 8.35027 4.73957 8.38637 5.07266 8.52434C5.40576 8.66231 5.69046 8.89596 5.89076 9.19574C6.09107 9.49551 6.19798 9.84796 6.19798 10.2085C6.19753 10.6918 6.00533 11.1552 5.66356 11.497C5.3218 11.8388 4.85839 12.031 4.37506 12.0314ZM8.75006 22.9689C9.04001 22.9693 9.31795 23.0847 9.52298 23.2897C9.728 23.4948 9.84338 23.7727 9.84381 24.0627V26.9793C9.84238 27.193 9.77781 27.4016 9.65821 27.5787C9.5386 27.7558 9.36931 27.8936 9.17161 27.9748C9.0404 28.0392 8.89622 28.0728 8.75006 28.0731H5.83339C5.54345 28.0726 5.2655 27.9573 5.06048 27.7522C4.85545 27.5472 4.74008 27.2693 4.73964 26.9793V24.0627C4.74008 23.7727 4.85545 23.4948 5.06048 23.2897C5.2655 23.0847 5.54345 22.9693 5.83339 22.9689H8.75006ZM20.7813 12.396C20.7775 12.6849 20.661 12.9609 20.4567 13.1652C20.2524 13.3695 19.9765 13.4859 19.6876 13.4897H15.3126C15.0237 13.4859 14.7477 13.3695 14.5434 13.1652C14.3391 12.9609 14.2226 12.6849 14.2188 12.396V8.021C14.2226 7.7321 14.3391 7.45612 14.5434 7.25182C14.7477 7.04752 15.0237 6.93106 15.3126 6.92725H19.6876C19.9765 6.93106 20.2524 7.04752 20.4567 7.25182C20.661 7.45612 20.7775 7.7321 20.7813 8.021V12.396ZM29.1667 22.9689C29.4567 22.9693 29.7346 23.0847 29.9396 23.2897C30.1447 23.4948 30.26 23.7727 30.2605 24.0627V26.9793C30.26 27.2693 30.1447 27.5472 29.9396 27.7522C29.7346 27.9573 29.4567 28.0726 29.1667 28.0731H26.2501C26.089 28.0707 25.9308 28.0307 25.7879 27.9563C25.5993 27.8722 25.4392 27.735 25.3271 27.5616C25.2149 27.3881 25.1556 27.1859 25.1563 26.9793V24.0627C25.1567 23.7727 25.2721 23.4948 25.4771 23.2897C25.6822 23.0847 25.9601 22.9693 26.2501 22.9689H29.1667Z" fill="white"/>
</svg>
