<svg width="21" height="14" viewBox="0 0 21 14" fill="none" xmlns="http://www.w3.org/2000/svg">
<path d="M17.323 5.54687V11.75C17.323 12.0937 17.2006 12.388 16.9558 12.6328C16.711 12.8776 16.4168 13 16.073 13H4.57303C4.22928 13 3.93501 12.8776 3.69022 12.6328C3.44542 12.388 3.32303 12.0937 3.32303 11.75V5.54687C3.5522 5.80208 3.81522 6.02865 4.11209 6.22656C5.99751 7.50781 7.29178 8.40625 7.9949 8.92187C8.29178 9.14062 8.53136 9.3125 8.71365 9.4375C8.90115 9.55729 9.14855 9.68229 9.45584 9.8125C9.76313 9.9375 10.0496 10 10.3152 10H10.323H10.3308C10.5965 10 10.8829 9.9375 11.1902 9.8125C11.4975 9.68229 11.7423 9.55729 11.9246 9.4375C12.1121 9.3125 12.3543 9.14062 12.6512 8.92187C13.5366 8.28125 14.8334 7.38281 16.5418 6.22656C16.8387 6.02344 17.0991 5.79687 17.323 5.54687ZM17.323 3.25C17.323 3.66146 17.1954 4.05469 16.9402 4.42969C16.685 4.80469 16.3673 5.125 15.9871 5.39062C14.0288 6.75 12.81 7.59635 12.3308 7.92969C12.2788 7.96615 12.1668 8.04687 11.9949 8.17188C11.8282 8.29167 11.6876 8.39062 11.573 8.46875C11.4637 8.54167 11.3282 8.625 11.1668 8.71875C11.0105 8.8125 10.8621 8.88281 10.7215 8.92969C10.5808 8.97656 10.4506 9 10.3308 9H10.323H10.3152C10.1954 9 10.0652 8.97656 9.92459 8.92969C9.78397 8.88281 9.63292 8.8125 9.47147 8.71875C9.31522 8.625 9.1798 8.54167 9.06522 8.46875C8.95584 8.39062 8.81522 8.29167 8.64334 8.17188C8.47667 8.04687 8.3673 7.96615 8.31522 7.92969C7.84126 7.59635 7.15897 7.1224 6.26834 6.50781C5.37772 5.88802 4.84386 5.51562 4.66678 5.39062C4.34386 5.17187 4.03917 4.8724 3.75272 4.49219C3.46626 4.10677 3.32303 3.75 3.32303 3.42187C3.32303 3.01562 3.4298 2.67708 3.64334 2.40625C3.86209 2.13542 4.17199 2 4.57303 2H16.073C16.4116 2 16.7032 2.1224 16.948 2.36719C17.198 2.61198 17.323 2.90625 17.323 3.25Z" fill="white"/>
</svg>
