<svg width="36" height="36" viewBox="0 0 36 36" fill="none" xmlns="http://www.w3.org/2000/svg">
<g clip-path="url(#clip0_170_1052)">
<path d="M-2.43701 2.96094C-2.43701 1.59973 -1.33728 0.5 0.0239258 0.5H34.4771C35.8383 0.5 36.938 1.59973 36.938 2.96094C36.938 4.32214 35.8383 5.42187 34.4771 5.42187V34.9531C35.8383 34.9531 36.938 36.0529 36.938 37.4141C36.938 38.7753 35.8383 39.875 34.4771 39.875H20.9419V36.1836C20.9419 34.1456 19.2885 32.4922 17.2505 32.4922C15.2125 32.4922 13.5591 34.1456 13.5591 36.1836V39.875H0.0239258C-1.33728 39.875 -2.43701 38.7753 -2.43701 37.4141C-2.43701 36.0529 -1.33728 34.9531 0.0239258 34.9531V5.42187C-1.33728 5.42187 -2.43701 4.32214 -2.43701 2.96094ZM4.9458 9.11328V11.5742C4.9458 12.251 5.49951 12.8047 6.17627 12.8047H8.63721C9.31396 12.8047 9.86768 12.251 9.86768 11.5742V9.11328C9.86768 8.43652 9.31396 7.88281 8.63721 7.88281H6.17627C5.49951 7.88281 4.9458 8.43652 4.9458 9.11328ZM16.02 7.88281C15.3433 7.88281 14.7896 8.43652 14.7896 9.11328V11.5742C14.7896 12.251 15.3433 12.8047 16.02 12.8047H18.481C19.1577 12.8047 19.7114 12.251 19.7114 11.5742V9.11328C19.7114 8.43652 19.1577 7.88281 18.481 7.88281H16.02ZM24.6333 9.11328V11.5742C24.6333 12.251 25.187 12.8047 25.8638 12.8047H28.3247C29.0015 12.8047 29.5552 12.251 29.5552 11.5742V9.11328C29.5552 8.43652 29.0015 7.88281 28.3247 7.88281H25.8638C25.187 7.88281 24.6333 8.43652 24.6333 9.11328ZM6.17627 15.2656C5.49951 15.2656 4.9458 15.8193 4.9458 16.4961V18.957C4.9458 19.6338 5.49951 20.1875 6.17627 20.1875H8.63721C9.31396 20.1875 9.86768 19.6338 9.86768 18.957V16.4961C9.86768 15.8193 9.31396 15.2656 8.63721 15.2656H6.17627ZM14.7896 16.4961V18.957C14.7896 19.6338 15.3433 20.1875 16.02 20.1875H18.481C19.1577 20.1875 19.7114 19.6338 19.7114 18.957V16.4961C19.7114 15.8193 19.1577 15.2656 18.481 15.2656H16.02C15.3433 15.2656 14.7896 15.8193 14.7896 16.4961ZM25.8638 15.2656C25.187 15.2656 24.6333 15.8193 24.6333 16.4961V18.957C24.6333 19.6338 25.187 20.1875 25.8638 20.1875H28.3247C29.0015 20.1875 29.5552 19.6338 29.5552 18.957V16.4961C29.5552 15.8193 29.0015 15.2656 28.3247 15.2656H25.8638ZM22.7876 30.0312C23.8104 30.0312 24.6564 29.193 24.4026 28.2009C23.5874 25.0094 20.6958 22.6484 17.2505 22.6484C13.8052 22.6484 10.9059 25.0094 10.0984 28.2009C9.8446 29.1853 10.6982 30.0312 11.7134 30.0312H22.7876Z" fill="white"/>
</g>
<defs>
<clipPath id="clip0_170_1052">
<rect width="35" height="35" fill="white" transform="translate(0.229492 0.5)"/>
</clipPath>
</defs>
</svg>
