<svg width="35" height="35" viewBox="0 0 35 35" fill="none" xmlns="http://www.w3.org/2000/svg">
<path d="M17.4999 2.71387C9.35182 2.71387 2.72266 9.34685 2.72266 17.4999C2.72266 25.6532 9.35182 32.2859 17.4999 32.2859C25.6483 32.2859 32.2777 25.6532 32.2777 17.4999C32.2775 9.34685 25.6481 2.71387 17.4999 2.71387ZM17.4999 30.8276C10.1554 30.8276 4.18015 24.8489 4.18015 17.4999C4.18015 10.1511 10.1554 4.1722 17.4999 4.1722C24.8445 4.1722 30.8202 10.1511 30.8202 17.4999C30.82 24.8489 24.8445 30.8276 17.4999 30.8276Z" fill="white"/>
<path d="M22.0549 8.82374H18.8494C18.8421 8.82368 18.8348 8.82401 18.8275 8.82471C15.5911 8.83492 15.1685 11.0961 15.1668 13.0723C15.1623 13.0911 15.16 13.1102 15.16 13.1295V14.5168H12.9451C12.8806 14.5168 12.8189 14.5424 12.7733 14.588C12.7277 14.6336 12.7021 14.6954 12.7021 14.7599V18.1814C12.7021 18.2458 12.7277 18.3077 12.7733 18.3532C12.8189 18.3988 12.8806 18.4244 12.9451 18.4244H15.16V25.9327C15.16 25.9971 15.1856 26.0589 15.2311 26.1045C15.2767 26.1501 15.3385 26.1757 15.4029 26.1757H18.6354C18.6998 26.1757 18.7616 26.1501 18.8071 26.1045C18.8527 26.0589 18.8783 25.9971 18.8783 25.9327V18.4247H22.0546C22.1191 18.4247 22.1809 18.3991 22.2264 18.3535C22.272 18.3079 22.2976 18.2461 22.2976 18.1816V14.7601C22.2976 14.6957 22.272 14.6338 22.2264 14.5883C22.1809 14.5427 22.1191 14.5171 22.0546 14.5171H18.6354V12.6779H22.0546C22.1191 12.6779 22.1809 12.6523 22.2264 12.6067C22.272 12.5611 22.2976 12.4993 22.2976 12.4348V9.06679C22.2976 9.03488 22.2913 9.00328 22.2792 8.9738C22.267 8.94431 22.2491 8.91751 22.2266 8.89494C22.204 8.87237 22.1773 8.85446 22.1478 8.84224C22.1183 8.83002 22.0868 8.82374 22.0549 8.82374Z" fill="white"/>
</svg>
