<svg width="35" height="35" viewBox="0 0 35 35" fill="none" xmlns="http://www.w3.org/2000/svg">
<path d="M17.5001 3.28101C14.0606 3.28206 10.738 4.52984 8.14808 6.79315C5.55815 9.05645 3.87641 12.1818 3.41449 15.5902C2.95256 18.9986 3.74177 22.4588 5.63586 25.3298C7.52996 28.2008 10.4005 30.288 13.7157 31.2045C13.8579 31.258 14.0098 31.2813 14.1615 31.2728C14.3132 31.2644 14.4616 31.2245 14.597 31.1555C14.7324 31.0866 14.852 30.9902 14.9481 30.8725C15.0442 30.7547 15.1148 30.6183 15.1552 30.4718C15.1956 30.3253 15.2051 30.172 15.183 30.0216C15.1609 29.8713 15.1077 29.7272 15.0268 29.5985C14.9459 29.4699 14.8391 29.3595 14.7132 29.2744C14.5872 29.1894 14.4449 29.1315 14.2954 29.1045C11.5426 28.3507 9.14745 26.6428 7.53775 24.2859C5.92805 21.929 5.20866 19.0766 5.50807 16.2383C5.80748 13.3999 7.1062 10.7604 9.17224 8.79123C11.2383 6.82209 13.9371 5.65156 16.7866 5.48874C19.636 5.32591 22.4506 6.18139 24.7275 7.90236C27.0044 9.62333 28.5953 12.0977 29.2161 14.8835C29.8369 17.6693 29.4471 20.5851 28.1164 23.11C26.7857 25.6349 24.6006 27.6045 21.9516 28.667C22.0206 27.2297 21.9104 25.7895 21.6235 24.3795C23.1782 24.0346 24.5644 23.1595 25.5443 21.9042C26.5242 20.6489 27.0367 19.0917 26.9938 17.4998C27.0728 16.0024 26.6703 14.5191 25.8454 13.267C25.9983 12.0246 25.8482 10.7637 25.4079 9.59195C25.3258 9.34763 25.1601 9.14013 24.94 9.00606C24.7199 8.87199 24.4595 8.81996 24.2048 8.85914C22.8856 9.0393 21.625 9.51812 20.5188 10.2591C19.5335 9.99716 18.5196 9.85756 17.5001 9.84351C16.3918 9.87271 15.2907 10.0305 14.2188 10.3138C13.1557 9.5005 11.8603 9.04829 10.522 9.0232C10.2861 9.00928 10.0522 9.07207 9.855 9.2022C9.65785 9.33232 9.50812 9.52278 9.42821 9.74508C9.02708 10.8616 8.88861 12.0555 9.02352 13.2341C8.23873 14.5161 7.84001 15.9971 7.87509 17.4998C7.91562 19.0836 8.47145 20.6111 9.45833 21.8506C10.4452 23.0902 11.8093 23.9741 13.3438 24.3685C13.2736 24.6534 13.2188 24.9418 13.1798 25.2326C12.086 25.2982 11.4516 24.631 10.6423 23.6138C10.1658 22.8132 9.41003 22.2171 8.5204 21.9404C8.24413 21.8911 7.9595 21.9499 7.72539 22.1047C7.49127 22.2594 7.32558 22.4982 7.26259 22.7716C7.20201 23.0453 7.2488 23.3318 7.39331 23.5719C7.53781 23.8121 7.76899 23.9876 8.03915 24.0623C8.21415 24.0623 8.64071 24.631 8.88134 24.9482C9.31716 25.6576 9.91742 26.2516 10.6313 26.68C11.3453 27.1083 12.1519 27.3584 12.9829 27.4091C13.4636 27.4085 13.942 27.3423 14.4048 27.2123C14.5181 27.1787 14.6252 27.127 14.722 27.0591C14.8018 26.996 14.8687 26.918 14.9188 26.8295C14.9536 26.8021 14.9833 26.7688 15.0063 26.731C15.0347 26.6715 15.0567 26.6092 15.072 26.5451C15.0988 26.4738 15.1208 26.4007 15.1376 26.3263C15.134 25.5995 15.3066 24.8827 15.6407 24.2373C15.7766 24.0784 15.8641 23.8839 15.8929 23.6768C15.9216 23.4697 15.8904 23.2587 15.803 23.0687C15.7155 22.8788 15.5754 22.718 15.3993 22.6052C15.2233 22.4925 15.0185 22.4326 14.8095 22.4326C13.5418 22.361 12.3481 21.8128 11.4677 20.898C10.5873 19.9831 10.0854 18.7692 10.0626 17.4998C10.0084 16.3309 10.343 15.177 11.0141 14.2185C11.123 14.0964 11.2031 13.9515 11.2485 13.7944C11.2939 13.6373 11.3035 13.472 11.2766 13.3107C11.1508 12.6421 11.1508 11.9559 11.2766 11.2873C11.9924 11.4388 12.6515 11.7874 13.1798 12.2935C13.3224 12.4303 13.4993 12.526 13.6919 12.5703C13.8845 12.6146 14.0855 12.6059 14.2735 12.5451C15.3246 12.2453 16.4079 12.0727 17.5001 12.031C18.4831 12.0556 19.4582 12.2138 20.3985 12.5013C20.5818 12.5692 20.7799 12.5868 20.9723 12.5522C21.1646 12.5175 21.3442 12.432 21.4923 12.3045C22.1295 11.7794 22.8774 11.4055 23.6798 11.2107C23.8438 11.8974 23.8438 12.6131 23.6798 13.2998C23.637 13.4968 23.6468 13.7015 23.7082 13.8935C23.7697 14.0855 23.8806 14.258 24.0298 14.3935C24.6718 15.2936 24.9493 16.4034 24.8063 17.4998C24.8321 18.1426 24.7254 18.7839 24.4928 19.3838C24.2602 19.9836 23.9068 20.5293 23.4544 20.9868C23.0021 21.4443 22.4605 21.8038 21.8633 22.0431C21.266 22.2825 20.626 22.3964 19.9829 22.3779C19.7594 22.3772 19.5411 22.4449 19.3573 22.572C19.1735 22.6991 19.033 22.8795 18.9548 23.0888C18.8754 23.2982 18.8622 23.5269 18.917 23.744C18.9718 23.9611 19.0918 24.1562 19.261 24.3029C19.9063 24.8607 19.8079 28.6779 19.7751 30.1654C19.7708 30.3352 19.8062 30.5037 19.8783 30.6574C19.9504 30.8112 20.0574 30.9461 20.1907 31.0513C20.3846 31.2018 20.6234 31.2827 20.8688 31.281C20.9597 31.2917 21.0514 31.2917 21.1423 31.281C24.5138 30.4255 27.4548 28.3638 29.4087 25.4861C31.3626 22.6084 32.1938 19.1142 31.7452 15.6649C31.2965 12.2156 29.599 9.05043 26.9739 6.76832C24.3488 4.48621 20.9783 3.24552 17.5001 3.28101Z" fill="white"/>
</svg>
