<svg width="35" height="35" viewBox="0 0 35 35" fill="none" xmlns="http://www.w3.org/2000/svg">
<path d="M27.8055 4.50813V32.2816C27.8055 33.6269 26.7595 34.7189 25.4655 34.7189H10.0294C8.73542 34.7189 7.68945 33.6269 7.68945 32.2816V4.50813C7.68945 3.16283 8.73542 2.0708 10.0294 2.0708H25.4655C26.7595 2.0708 27.8055 3.16283 27.8055 4.50813Z" fill="white"/>
<path d="M7.68945 30.4118V32.2816C7.68945 33.6269 8.73542 34.7189 10.0294 34.7189H25.4655C26.7595 34.7189 27.8054 33.6269 27.8054 32.2816V30.4118H7.68945ZM27.8055 5.67017V4.50816C27.8055 3.16282 26.7595 2.0708 25.4655 2.0708H10.0294C8.73542 2.0708 7.68945 3.16282 7.68945 4.50816V5.67017H27.8055Z" fill="#19A5FF"/>
<path d="M17.4779 9.33301H2.00513V14.134H17.4779V9.33301Z" fill="white"/>
<path d="M30.2685 15.022H21.5745V22.3353H30.2685V15.022Z" fill="white"/>
<path d="M27.3848 18.6816L24.8745 20.3366V17.0215L27.3848 18.6816Z" fill="#19A5FF"/>
<path d="M12.9787 23.274C12.8884 23.6606 12.7409 24.0251 12.5483 24.3551L13.1413 25.2665L12.1961 26.2534L11.3231 25.6342C11.0071 25.8354 10.6579 25.9894 10.2876 26.0805L10.0889 27.1648H8.75239L8.55372 26.0837C8.18345 25.9894 7.83729 25.8354 7.52122 25.6343L6.64825 26.2534L5.70303 25.2665L6.29606 24.3551C6.1034 24.0251 5.9559 23.6606 5.86859 23.274L4.83008 23.0666V21.6712L5.86859 21.4638C5.9559 21.0772 6.1034 20.7158 6.29606 20.3858L5.70303 19.4744L6.64825 18.4876L7.52122 19.1067C7.83729 18.9056 8.18345 18.7516 8.55372 18.6573L8.75239 17.5762H10.0889L10.2876 18.6604C10.6579 18.7516 11.007 18.9056 11.3231 19.1067L12.1961 18.4876L13.1413 19.4744L12.5483 20.3858C12.7409 20.7158 12.8884 21.0804 12.9757 21.4669L14.0113 21.6712V23.0666L12.9787 23.274Z" fill="white"/>
<path d="M31.9128 9.07119C31.9913 9.20313 32.1572 9.24312 32.2835 9.1615C32.4102 9.07942 32.4486 8.90594 32.3703 8.77418C32.0369 8.21503 31.6693 7.6663 31.2776 7.14366C31.1855 7.02096 31.0167 7.0001 30.8995 7.09562C30.7827 7.19114 30.7622 7.36793 30.8537 7.49007C31.2334 7.99708 31.5899 8.52906 31.9128 9.07119ZM33.5497 11.1173C33.4903 10.9748 33.332 10.9109 33.1953 10.9718C33.0591 11.0339 32.9971 11.1997 33.0565 11.3418C33.9888 13.5741 34.4615 15.9468 34.4615 18.3945C34.4615 20.8156 33.9983 23.1664 33.0844 25.3816C33.0255 25.5241 33.0886 25.6896 33.2248 25.7508C33.361 25.8123 33.52 25.7468 33.5786 25.604C34.522 23.3182 35 20.8925 35 18.3945C35 15.8692 34.512 13.4206 33.5497 11.1173ZM1.25712 23.6364C1.21321 23.4884 1.06493 23.4066 0.920052 23.4514C0.778075 23.4975 0.698673 23.6548 0.742843 23.8033C1.70172 27.0281 3.50405 29.9169 5.95527 32.1574C6.06719 32.2598 6.2375 32.2479 6.3352 32.1313C6.43327 32.0144 6.42196 31.8368 6.31022 31.7347C3.93367 29.5623 2.18629 26.7621 1.25712 23.6364ZM0.798585 21.7187C0.67133 21.0215 0.583775 20.3081 0.538027 19.598C0.528039 19.4431 0.409986 19.3325 0.251182 19.3364C0.102895 19.3468 -0.0093752 19.4807 0.000618699 19.6358C0.0479443 20.3685 0.13839 21.1047 0.269587 21.8241C0.296871 21.9726 0.433835 22.0766 0.584567 22.0476C0.730491 22.0185 0.826456 21.8714 0.798585 21.7187ZM28.0746 6.79957C28.0746 6.73871 28.0746 4.35652 28.0746 4.50792C28.0746 3.00888 26.9041 1.78955 25.4654 1.78955H10.0295C8.5908 1.78955 7.42028 3.00888 7.42028 4.50792C7.42028 4.56564 7.42028 6.35602 7.42028 6.2902C6.51714 7.10938 5.70826 8.03653 5.00803 9.05225H2.0054C1.85658 9.05225 1.73616 9.17797 1.73616 9.33334V14.1346C1.73616 14.29 1.85658 14.4157 2.0054 14.4157H2.60213C2.28853 15.6894 2.11241 17.02 2.11241 18.3945C2.11241 23.2259 4.1731 27.5603 7.42028 30.5033V32.2815C7.42028 33.7805 8.59081 34.9998 10.0295 34.9998H25.4654C26.9041 34.9998 28.0746 33.7805 28.0746 32.2815C28.0746 32.1766 28.0746 29.9266 28.0746 29.9896C31.0088 27.0669 32.8435 22.9518 32.8435 18.3945C32.8435 13.8374 31.0088 9.7223 28.0746 6.79957ZM21.8439 22.0547V15.3037H29.9992V22.0547L21.8439 22.0547ZM21.5747 14.7415C21.4259 14.7415 21.3055 14.8672 21.3055 15.0226V22.3358C21.3055 22.4912 21.4259 22.6169 21.5747 22.6169H27.5362V30.1305H7.95874V26.1757C8.07771 26.2259 8.19806 26.272 8.32078 26.3095L8.48773 27.2178C8.51219 27.3501 8.62314 27.4459 8.75223 27.4459H10.0887C10.2178 27.4459 10.3287 27.3501 10.3532 27.2175L10.5199 26.3075C10.793 26.226 11.0583 26.1115 11.3115 25.9658L12.0445 26.486C12.1518 26.5623 12.2954 26.548 12.3863 26.4522L13.3315 25.4654C13.423 25.3701 13.4364 25.2202 13.3639 25.1088L12.8659 24.3432C13.0045 24.0802 13.1146 23.8036 13.1951 23.5167L14.0622 23.3427C14.1889 23.3171 14.2804 23.2013 14.2804 23.0665V21.6712C14.2804 21.5362 14.1884 21.4201 14.0612 21.3951L13.193 21.2238C13.1146 20.9386 13.0053 20.6619 12.8659 20.3976L13.3639 19.6325C13.4365 19.5208 13.423 19.3709 13.3315 19.2757L12.3863 18.2889C12.2948 18.1933 12.1515 18.1793 12.0448 18.2551L11.3118 18.775C11.0583 18.6292 10.793 18.5148 10.5199 18.4332L10.3532 17.5233C10.3287 17.391 10.2178 17.2952 10.0887 17.2952H8.75223C8.62314 17.2952 8.51219 17.391 8.48773 17.5233L8.32078 18.4313C8.19806 18.4688 8.07771 18.5148 7.95874 18.5651V14.4157H17.4781C17.6269 14.4157 17.7473 14.29 17.7473 14.1346V9.33333C17.7473 9.17796 17.6269 9.05224 17.4781 9.05224H7.95874V5.95095H27.5362V14.7415H21.5747ZM6.52581 24.2087C6.34229 23.8944 6.20926 23.5581 6.13064 23.2095C6.10619 23.1017 6.02337 23.0188 5.91899 22.9979L5.0992 22.834V21.9038L5.91899 21.7399C6.02337 21.719 6.10619 21.6361 6.13064 21.5282C6.20846 21.1829 6.3415 20.8478 6.52581 20.5321C6.58076 20.4379 6.57814 20.3191 6.51872 20.2277L6.05072 19.5088L6.68094 18.8508L7.3698 19.3391C7.45709 19.4011 7.57093 19.4042 7.66112 19.3465C7.96164 19.1555 8.28319 19.0152 8.6171 18.9304C8.71964 18.9043 8.79799 18.8184 8.81798 18.7102L8.97468 17.8574H9.86598L10.0229 18.7133C10.0429 18.822 10.1223 18.9084 10.2257 18.934C10.5596 19.016 10.8816 19.1549 11.183 19.3465C11.2734 19.4042 11.3872 19.4012 11.4743 19.3391L12.1631 18.8508L12.7934 19.5088L12.3254 20.2277C12.2659 20.3191 12.2633 20.4379 12.3183 20.5321C12.5018 20.8464 12.6348 21.1827 12.7134 21.5315C12.7379 21.6397 12.821 21.7226 12.9256 21.7432L13.742 21.9043V22.8343L12.9277 22.9979C12.8244 23.0188 12.7421 23.1006 12.7171 23.2074C12.6348 23.5598 12.5005 23.8966 12.3183 24.2087C12.2633 24.3029 12.2659 24.4217 12.3254 24.5129L12.7934 25.2323L12.1631 25.8903L11.4745 25.4017C11.3867 25.3397 11.2734 25.3366 11.183 25.3943C10.8816 25.5859 10.5596 25.7248 10.2257 25.8069C10.1223 25.8324 10.0429 25.9188 10.0229 26.0278L9.86598 26.8837H8.97468L8.81798 26.0306C8.79799 25.9224 8.71964 25.8365 8.6171 25.8104C8.28319 25.7256 7.96163 25.5853 7.66112 25.3943C7.57146 25.3375 7.45762 25.3399 7.36954 25.4017L6.68095 25.8903L6.05072 25.2323L6.51872 24.5129C6.57814 24.4217 6.58076 24.3029 6.52581 24.2087ZM7.95874 4.50792C7.95874 3.31906 8.88764 2.35172 10.0295 2.35172H25.4654C26.607 2.35172 27.5362 3.31906 27.5362 4.50792V5.38878H7.95874V4.50792ZM7.42027 7.04391V9.05225H5.67756C6.20255 8.33104 6.78479 7.65862 7.42027 7.04391ZM2.27463 9.61442H17.2089V13.8535H2.27463V9.61442ZM2.65087 18.3945C2.65087 17.0179 2.83284 15.6866 3.15795 14.4157H7.42027V18.6953L6.79925 18.2551C6.69251 18.1796 6.54947 18.1933 6.45771 18.2889L5.51251 19.2757C5.42101 19.3709 5.40761 19.5208 5.48017 19.6325L5.97814 20.3976C5.83853 20.6622 5.72889 20.9378 5.65107 21.2211L4.77948 21.3951C4.65249 21.4206 4.56073 21.5365 4.56073 21.6712V23.0665C4.56073 23.2013 4.65249 23.3171 4.77948 23.3427L5.65107 23.5167C5.72916 23.8022 5.83879 24.0789 5.97814 24.3432L5.48017 25.1088C5.4076 25.2202 5.42101 25.3701 5.51251 25.4654L6.45771 26.4522C6.54947 26.5477 6.69276 26.562 6.79952 26.486L7.42027 26.0455V29.7455C4.49221 26.9165 2.65087 22.8784 2.65087 18.3945ZM27.5362 32.2815C27.5362 33.4703 26.607 34.4376 25.4654 34.4376H10.0295C8.88764 34.4376 7.95874 33.4703 7.95874 32.2815V30.6927H27.5362V32.2815ZM28.0746 29.1978V22.6169H30.2685C30.4173 22.6169 30.5377 22.4912 30.5377 22.3358V15.0226C30.5377 14.8672 30.4173 14.7415 30.2685 14.7415H28.0746V7.59281C30.6873 10.3841 32.3051 14.1937 32.3051 18.3945C32.305 22.5959 30.6876 26.4064 28.0746 29.1978Z" fill="#19A5FF"/>
<path d="M17.7478 33.3724C18.1749 33.3724 18.5211 33.0109 18.5211 32.5651C18.5211 32.1192 18.1749 31.7578 17.7478 31.7578C17.3208 31.7578 16.9746 32.1192 16.9746 32.5651C16.9746 33.0109 17.3208 33.3724 17.7478 33.3724Z" fill="#19A5FF"/>
<path d="M17.6041 3.58935H15.7455C15.5967 3.58935 15.4762 3.71507 15.4762 3.87044C15.4762 4.02581 15.5967 4.15153 15.7455 4.15153H17.6041C17.7529 4.15153 17.8733 4.02581 17.8733 3.87044C17.8733 3.71507 17.7529 3.58935 17.6041 3.58935ZM19.7492 3.58935H19.0299C18.8811 3.58935 18.7607 3.71507 18.7607 3.87044C18.7607 4.02581 18.8811 4.15153 19.0299 4.15153H19.7492C19.8981 4.15153 20.0185 4.02581 20.0185 3.87044C20.0185 3.71507 19.8981 3.58935 19.7492 3.58935ZM25.0187 16.784C24.9356 16.7288 24.8305 16.7261 24.7448 16.7752C24.659 16.8246 24.6054 16.919 24.6054 17.0214V20.3368C24.6054 20.4392 24.6585 20.5336 24.7448 20.583C24.8304 20.6324 24.9355 20.6292 25.0182 20.5745L27.5286 18.9196C27.6963 18.8091 27.6954 18.5547 27.5291 18.4444L25.0187 16.784ZM25.1439 19.8268V17.5323L26.8813 18.6816L25.1439 19.8268ZM6.03602 11.1224C5.90035 11.059 5.74102 11.1238 5.68081 11.2654L5.3866 11.9586L5.01247 11.2446C4.91834 11.064 4.63438 11.064 4.54026 11.2446L4.14088 12.0069L3.74124 11.2446C3.66972 11.1079 3.50671 11.0574 3.37604 11.1329C3.24537 11.2072 3.19752 11.378 3.26903 11.5141L3.90477 12.7274C3.9989 12.908 4.28286 12.908 4.37698 12.7274L4.77636 11.9651L5.176 12.7274C5.22333 12.818 5.31404 12.8737 5.41211 12.8737C5.41579 12.8737 5.41947 12.8737 5.42342 12.8735C5.52569 12.8691 5.61667 12.8043 5.65821 12.7066L6.17301 11.4933C6.23321 11.3514 6.17195 11.1853 6.03602 11.1224ZM9.68512 11.1224C9.54945 11.059 9.39012 11.1238 9.32991 11.2654L9.0357 11.9586L8.66156 11.2446C8.56744 11.064 8.28348 11.064 8.18936 11.2446L7.78998 12.0069L7.39033 11.2446C7.31882 11.1079 7.15554 11.0574 7.02514 11.1329C6.89446 11.2072 6.84661 11.378 6.91813 11.5141L7.55387 12.7274C7.64799 12.908 7.93195 12.908 8.02608 12.7274L8.42546 11.9651L8.8251 12.7274C8.87242 12.818 8.96313 12.8737 9.0612 12.8737C9.06489 12.8737 9.06857 12.8737 9.07251 12.8735C9.17479 12.8691 9.26576 12.8043 9.3073 12.7066L9.8221 11.4933C9.88231 11.3514 9.82105 11.1853 9.68512 11.1224ZM13.3342 11.1224C13.1985 11.059 13.0392 11.1238 12.979 11.2654L12.6848 11.9586L12.3107 11.2446C12.2165 11.064 11.9326 11.064 11.8384 11.2446L11.4391 12.0069L11.0394 11.2446C10.9682 11.1079 10.8049 11.0574 10.6742 11.1329C10.5436 11.2072 10.4957 11.378 10.5672 11.5141L11.203 12.7274C11.2971 12.908 11.581 12.908 11.6752 12.7274L12.0745 11.9651L12.4742 12.7274C12.5215 12.818 12.6122 12.8737 12.7103 12.8737C12.714 12.8737 12.7177 12.8737 12.7216 12.8735C12.8239 12.8691 12.9149 12.8043 12.9564 12.7066L13.4712 11.4933C13.5314 11.3514 13.4701 11.1853 13.3342 11.1224ZM9.42035 24.482C10.5354 24.482 11.4425 23.5347 11.4425 22.3706C11.4425 21.2064 10.5354 20.2594 9.42035 20.2594C8.3053 20.2594 7.39796 21.2064 7.39796 22.3706C7.39796 23.5347 8.3053 24.482 9.42035 24.482ZM9.42035 20.8216C10.2386 20.8216 10.904 21.5163 10.904 22.3706C10.904 23.2248 10.2386 23.9199 9.42035 23.9199C8.60214 23.9199 7.93642 23.2248 7.93642 22.3706C7.93642 21.5163 8.60214 20.8216 9.42035 20.8216ZM17.7474 0.562174H21.5587C21.7075 0.562174 21.8279 0.436455 21.8279 0.281087C21.8279 0.125719 21.7075 0 21.5587 0H17.7474C17.5985 0 17.4781 0.125719 17.4781 0.281087C17.4781 0.436455 17.5985 0.562174 17.7474 0.562174ZM15.2562 0.562174H16.2348C16.3836 0.562174 16.504 0.436455 16.504 0.281087C16.504 0.125719 16.3836 0 16.2348 0H15.2562C15.1074 0 14.9869 0.125719 14.9869 0.281087C14.9869 0.436455 15.1074 0.562174 15.2562 0.562174Z" fill="#19A5FF"/>
</svg>
