<svg width="30" height="35" viewBox="0 0 30 35" fill="none" xmlns="http://www.w3.org/2000/svg">
<path d="M26.1395 23.4424C26.5825 22.9174 26.889 22.2402 26.9655 21.4766C26.996 21.2969 27 21.1278 27 21C27 19.0698 25.6545 17.5 24 17.5C22.3455 17.5 21 19.0698 21 21C21 21.1278 21.004 21.2969 21.0285 21.4299C21.1078 22.1901 21.4022 22.8977 21.865 23.4407C20.795 23.7708 20 24.8996 20 26.25V32.0833C20 32.238 20.0527 32.3864 20.1464 32.4958C20.2402 32.6052 20.3674 32.6667 20.5 32.6667H27.5C27.6326 32.6667 27.7598 32.6052 27.8536 32.4958C27.9473 32.3864 28 32.238 28 32.0833V26.25C28 24.9013 27.207 23.7743 26.1395 23.4424ZM24 18.6667C24.3376 18.6674 24.6695 18.7681 24.9646 18.9593C25.2597 19.1505 25.5085 19.4259 25.6875 19.7598C25.1785 19.432 24.6005 19.25 24 19.25C23.3995 19.25 22.8215 19.432 22.3125 19.7598C22.4915 19.4259 22.7403 19.1505 23.0354 18.9593C23.3305 18.7681 23.6624 18.6674 24 18.6667ZM24 20.4167C24.761 20.4167 25.4705 20.8221 25.9395 21.5058C25.8443 22.0233 25.5998 22.4871 25.2468 22.8197C24.8938 23.1524 24.4537 23.3336 24 23.3333C23.0635 23.3333 22.272 22.5762 22.0615 21.5034C22.2941 21.1643 22.5891 20.8905 22.9246 20.7024C23.2602 20.5143 23.6277 20.4166 24 20.4167ZM24.4555 27.9008L24 28.6982L23.5445 27.9008L24 26.04L24.4555 27.9008ZM27 31.5H21V26.25C21 25.2852 21.673 24.5 22.5 24.5H23.337L22.519 27.8396C22.479 28.0041 22.5025 28.1808 22.584 28.3238L23.584 30.0738C23.6297 30.1535 23.6916 30.2189 23.7642 30.2641C23.8367 30.3093 23.9177 30.333 24 30.333C24.0823 30.333 24.1633 30.3093 24.2358 30.2641C24.3084 30.2189 24.3703 30.1535 24.416 30.0738L25.416 28.3238C25.4975 28.1814 25.521 28.0047 25.481 27.8396L24.663 24.5H25.5C26.327 24.5 27 25.2852 27 26.25V31.5ZM8.1395 23.4424C8.5825 22.9174 8.889 22.2402 8.9655 21.4766C8.996 21.2969 9 21.1278 9 21C9 19.0698 7.6545 17.5 6 17.5C4.3455 17.5 3 19.0698 3 21C3 21.1278 3.004 21.2969 3.0285 21.4299C3.10783 22.1901 3.40219 22.8977 3.865 23.4407C2.795 23.7708 2 24.8996 2 26.25V32.0833C2 32.238 2.05268 32.3864 2.14645 32.4958C2.24021 32.6052 2.36739 32.6667 2.5 32.6667H9.5C9.63261 32.6667 9.75979 32.6052 9.85355 32.4958C9.94732 32.3864 10 32.238 10 32.0833V26.25C10 24.9013 9.207 23.7743 8.1395 23.4424ZM6 18.6667C6.33758 18.6674 6.66948 18.7681 6.96461 18.9593C7.25975 19.1505 7.50847 19.4259 7.6875 19.7598C7.1785 19.432 6.6005 19.25 6 19.25C5.3995 19.25 4.8215 19.432 4.3125 19.7598C4.49153 19.4259 4.74025 19.1505 5.03539 18.9593C5.33052 18.7681 5.66242 18.6674 6 18.6667ZM6 20.4167C6.761 20.4167 7.4705 20.8221 7.9395 21.5058C7.84429 22.0233 7.59979 22.4871 7.24681 22.8197C6.89383 23.1524 6.45373 23.3336 6 23.3333C5.0635 23.3333 4.272 22.5762 4.0615 21.5034C4.29409 21.1643 4.58909 20.8905 4.92464 20.7024C5.26019 20.5143 5.62772 20.4166 6 20.4167ZM6.4555 27.9008L6 28.6982L5.5445 27.9008L6 26.04L6.4555 27.9008ZM9 31.5H3V26.25C3 25.2852 3.673 24.5 4.5 24.5H5.337L4.519 27.8396C4.479 28.0041 4.5025 28.1808 4.584 28.3238L5.584 30.0738C5.62974 30.1535 5.69163 30.2189 5.76419 30.2641C5.83674 30.3093 5.91774 30.333 6 30.333C6.08226 30.333 6.16326 30.3093 6.23581 30.2641C6.30837 30.2189 6.37026 30.1535 6.416 30.0738L7.416 28.3238C7.4975 28.1814 7.521 28.0047 7.481 27.8396L6.663 24.5H7.5C8.327 24.5 9 25.2852 9 26.25V31.5ZM14.9895 18.6352H14.963C14.428 18.6433 13.9275 18.8936 13.554 19.341C13.1805 19.7884 12.979 20.3782 12.9855 21.0023C12.9882 21.3094 13.043 21.6128 13.1468 21.895C13.2507 22.1771 13.4015 22.4325 13.5905 22.6462C13.9634 23.0729 14.4652 23.3114 14.9875 23.31H15.0145C15.2777 23.3069 15.5378 23.2429 15.7796 23.1218C16.0215 23.0006 16.2403 22.8247 16.4235 22.6042C16.6078 22.3849 16.753 22.1252 16.8506 21.84C16.9483 21.5548 16.9965 21.2499 16.9925 20.9428C16.9853 20.3284 16.7711 19.7419 16.3964 19.3101C16.0216 18.8783 15.5162 18.6359 14.9895 18.6352ZM15.708 21.7898C15.6162 21.9003 15.5065 21.9884 15.3853 22.0491C15.2642 22.1097 15.1339 22.1418 15.002 22.1433H14.9885C14.7271 22.1439 14.476 22.0245 14.2895 21.8108C14.097 21.5921 13.9895 21.3004 13.9865 20.9872C13.9835 20.6739 14.084 20.3787 14.271 20.1547C14.3627 20.0443 14.4723 19.9562 14.5934 19.8955C14.7145 19.8349 14.8447 19.8028 14.9765 19.8012H14.9895C15.1867 19.802 15.3793 19.8703 15.5434 19.9978C15.7075 20.1253 15.8359 20.3063 15.9125 20.5183C15.9891 20.7303 16.0105 20.9639 15.9742 21.19C15.9378 21.416 15.8452 21.6247 15.708 21.7898Z" fill="#353546"/>
<path d="M19.977 19.8783C19.9753 19.7249 19.9219 19.5785 19.8283 19.4707C19.7347 19.363 19.6085 19.3025 19.477 19.3026H19.4705L18.823 19.3125C18.7806 19.1825 18.7335 19.0547 18.682 18.9292L19.1335 18.3885C19.1794 18.3337 19.2156 18.2688 19.24 18.1977C19.2644 18.1265 19.2765 18.0505 19.2757 17.9739C19.2748 17.8973 19.261 17.8216 19.2351 17.7512C19.2092 17.6808 19.1716 17.6171 19.1245 17.5636L17.839 16.1018C17.7418 15.998 17.6154 15.9391 17.4835 15.9361C17.4179 15.937 17.353 15.953 17.2927 15.9832C17.2323 16.0134 17.1778 16.0573 17.132 16.1123L16.6805 16.6531C16.5717 16.596 16.4607 16.5444 16.348 16.4985L16.34 15.7431C16.3392 15.6665 16.3255 15.5908 16.2996 15.5205C16.2737 15.4501 16.2361 15.3864 16.189 15.333C16.1428 15.2782 16.0874 15.2351 16.0262 15.2066C15.965 15.1781 15.8994 15.1647 15.8335 15.1673L14.038 15.1941C13.9724 15.1951 13.9075 15.2112 13.8472 15.2414C13.7869 15.2717 13.7322 15.3155 13.6864 15.3703C13.6406 15.4252 13.6044 15.4901 13.5801 15.5612C13.5558 15.6324 13.5437 15.7085 13.5445 15.7851L13.553 16.5405C13.4415 16.5895 13.3319 16.6441 13.2245 16.7044L12.761 16.1776C12.6652 16.0712 12.5379 16.0119 12.4055 16.012C12.3399 16.0128 12.275 16.0288 12.2147 16.059C12.1543 16.0893 12.0998 16.1331 12.054 16.1881L10.8005 17.6885C10.7546 17.7433 10.7185 17.8082 10.6941 17.8794C10.6697 17.9506 10.6575 18.0267 10.6584 18.1034C10.6592 18.18 10.673 18.2557 10.6989 18.3262C10.7249 18.3966 10.7625 18.4604 10.8095 18.5139L11.2735 19.0406C11.2244 19.1674 11.1802 19.2966 11.141 19.428L10.4935 19.4379C10.4279 19.4389 10.363 19.455 10.3027 19.4852C10.2424 19.5154 10.1877 19.5592 10.1419 19.6141C10.0961 19.669 10.0599 19.7338 10.0356 19.805C10.0113 19.8761 9.99918 19.9522 10 20.0288L10.023 22.123C10.0248 22.2764 10.0782 22.4228 10.1718 22.5306C10.2654 22.6383 10.3916 22.6987 10.523 22.6987H10.5295L11.177 22.6888C11.2195 22.8189 11.2665 22.9466 11.318 23.0721L10.8665 23.6128C10.8207 23.6676 10.7845 23.7325 10.7601 23.8036C10.7357 23.8747 10.7236 23.9508 10.7244 24.0274C10.7253 24.104 10.739 24.1797 10.765 24.2501C10.7909 24.3205 10.8285 24.3842 10.8755 24.4376L12.161 25.8995C12.2074 25.9541 12.2629 25.9969 12.324 26.0254C12.3852 26.0539 12.4507 26.0675 12.5165 26.0651C12.5822 26.0643 12.6471 26.0483 12.7074 26.0181C12.7677 25.9879 12.8223 25.944 12.868 25.889L13.3195 25.3482C13.4285 25.4054 13.539 25.4567 13.652 25.5028L13.66 26.2582C13.6616 26.4115 13.715 26.5579 13.8085 26.6656C13.902 26.7733 14.0281 26.8336 14.1595 26.8334H14.166L15.9615 26.8066C16.0272 26.8056 16.0921 26.7895 16.1524 26.7593C16.2127 26.729 16.2674 26.6852 16.3132 26.6304C16.359 26.5755 16.3951 26.5106 16.4195 26.4395C16.4438 26.3683 16.4559 26.2922 16.455 26.2156L16.4465 25.4602C16.5585 25.4112 16.6675 25.3564 16.775 25.2963L17.2385 25.8231C17.3335 25.9316 17.4665 25.9899 17.594 25.9887C17.6597 25.9879 17.7246 25.9719 17.7849 25.9417C17.8452 25.9114 17.8998 25.8676 17.9455 25.8126L19.199 24.3122C19.2449 24.2574 19.2811 24.1925 19.3055 24.1213C19.3299 24.0501 19.342 23.974 19.3412 23.8973C19.3404 23.8207 19.3266 23.745 19.3006 23.6745C19.2747 23.6041 19.2371 23.5403 19.19 23.4868L18.726 22.9601C18.775 22.8335 18.8195 22.704 18.8585 22.5727L19.506 22.5628C19.5717 22.5618 19.6366 22.5457 19.6969 22.5155C19.7572 22.4853 19.8119 22.4415 19.8577 22.3866C19.9035 22.3317 19.9396 22.2669 19.964 22.1957C19.9883 22.1246 20.0004 22.0485 19.9995 21.9719L19.977 19.8783ZM18.478 21.4125C18.367 21.414 18.2596 21.4587 18.1728 21.5394C18.086 21.6201 18.0247 21.7323 17.9985 21.8581C17.9306 22.1845 17.8233 22.4979 17.68 22.7891C17.625 22.9014 17.6034 23.0318 17.6188 23.1599C17.6342 23.288 17.6856 23.4065 17.765 23.4967L18.134 23.9161L17.579 24.5811L17.21 24.1611C17.1305 24.0707 17.0275 24.0136 16.9171 23.999C16.8068 23.9845 16.6954 24.0132 16.6005 24.0806C16.3545 24.2548 16.0887 24.3879 15.811 24.4761C15.7041 24.5101 15.6099 24.5846 15.5432 24.6879C15.4765 24.7912 15.4411 24.9173 15.4425 25.0466L15.449 25.6481L14.6535 25.6603L14.647 25.0589C14.6457 24.9295 14.6074 24.8043 14.5384 24.703C14.4693 24.6017 14.3733 24.5301 14.2655 24.4995C13.9857 24.42 13.7169 24.2949 13.467 24.1279C13.3708 24.0636 13.259 24.0384 13.1491 24.0563C13.0393 24.0741 12.9376 24.134 12.86 24.2265L12.5 24.657L11.9305 24.0095L12.29 23.579C12.3674 23.4864 12.4163 23.3664 12.4289 23.2379C12.4414 23.1094 12.4171 22.9796 12.3595 22.8691C12.2102 22.5818 12.0961 22.2716 12.0205 21.9474C11.9605 21.6907 11.76 21.4895 11.5315 21.5169L11.016 21.5245L11.0055 20.5964L11.521 20.5888C11.6321 20.5873 11.7395 20.5426 11.8263 20.4619C11.9131 20.3812 11.9744 20.269 12.0005 20.1431C12.0685 19.8171 12.1755 19.5038 12.319 19.2121C12.3741 19.0999 12.3957 18.9695 12.3803 18.8414C12.3649 18.7133 12.3134 18.5948 12.234 18.5046L11.865 18.0851L12.42 17.4201L12.789 17.8401C12.953 18.0256 13.2035 18.0589 13.3985 17.9206C13.6446 17.7465 13.9104 17.6134 14.188 17.5251C14.295 17.4911 14.3892 17.4167 14.4559 17.3134C14.5226 17.2101 14.558 17.0839 14.5565 16.9546L14.55 16.3532L15.3455 16.341L15.352 16.9424C15.3534 17.0718 15.3917 17.197 15.4607 17.2983C15.5298 17.3995 15.6258 17.4711 15.7335 17.5018C16.0134 17.5813 16.2822 17.7064 16.532 17.8734C16.6283 17.9379 16.7401 17.9632 16.85 17.9453C16.9599 17.9275 17.0616 17.8675 17.139 17.7748L17.499 17.3443L18.0685 17.9918L17.709 18.4223C17.6316 18.5149 17.5828 18.6349 17.5702 18.7634C17.5576 18.8919 17.582 19.0217 17.6395 19.1322C17.789 19.4192 17.9025 19.729 17.9785 20.0539C18.038 20.31 18.2445 20.4605 18.4675 20.4844L18.983 20.4768L18.9935 21.4049L18.478 21.4125Z" fill="#353546"/>
<path d="M0.5 35H29.5C29.6326 35 29.7598 34.9385 29.8536 34.8291C29.9473 34.7197 30 34.5714 30 34.4167V13.4167C30 13.262 29.9473 13.1136 29.8536 13.0042C29.7598 12.8948 29.6326 12.8333 29.5 12.8333H0.5C0.367392 12.8333 0.240215 12.8948 0.146447 13.0042C0.0526784 13.1136 0 13.262 0 13.4167V34.4167C0 34.5714 0.0526784 34.7197 0.146447 34.8291C0.240215 34.9385 0.367392 35 0.5 35ZM1 14H29V33.8333H1V14ZM15 11.6667C17.757 11.6667 20 9.04983 20 5.83333C20 2.61683 17.757 0 15 0C12.243 0 10 2.61683 10 5.83333C10 9.04983 12.243 11.6667 15 11.6667ZM15 1.16667C17.2055 1.16667 19 3.26025 19 5.83333C19 8.40642 17.2055 10.5 15 10.5C12.7945 10.5 11 8.40642 11 5.83333C11 3.26025 12.7945 1.16667 15 1.16667Z" fill="#353546"/>
<path d="M15 7.5835C14.724 7.5835 14.5 7.32158 14.5 7.00016H13.5C13.5 7.75966 13.9195 8.40133 14.5 8.64283V9.3335H15.5V8.64283C15.7916 8.52291 16.0443 8.30064 16.2233 8.00654C16.4023 7.71243 16.499 7.3609 16.5 7.00016C16.5 6.03533 15.827 5.25016 15 5.25016C14.8712 5.24344 14.7497 5.17905 14.6606 5.07039C14.5716 4.96173 14.5219 4.81718 14.5219 4.66683C14.5219 4.51648 14.5716 4.37193 14.6606 4.26327C14.7497 4.15461 14.8712 4.09021 15 4.0835C15.276 4.0835 15.5 4.34541 15.5 4.66683H16.5C16.499 4.3061 16.4023 3.95456 16.2233 3.66045C16.0443 3.36635 15.7916 3.14408 15.5 3.02416V2.3335H14.5V3.02416C14.2084 3.14408 13.9557 3.36635 13.7767 3.66045C13.5976 3.95456 13.501 4.3061 13.5 4.66683C13.5 5.63166 14.173 6.41683 15 6.41683C15.1287 6.42355 15.2503 6.48794 15.3393 6.5966C15.4284 6.70526 15.4781 6.84982 15.4781 7.00016C15.4781 7.15051 15.4284 7.29506 15.3393 7.40372C15.2503 7.51238 15.1287 7.57678 15 7.5835ZM23 5.25016H24V6.41683H23V5.25016ZM21 5.25016H22V6.41683H21V5.25016ZM25 5.25016H26V6.41683H25V5.25016ZM25.1465 11.4959C25.1928 11.5503 25.2479 11.5934 25.3086 11.6228C25.3692 11.6523 25.4343 11.6674 25.5 11.6674C25.5657 11.6674 25.6307 11.6523 25.6914 11.6228C25.7521 11.5934 25.8072 11.5503 25.8535 11.4959L27.3535 9.74591L26.6465 8.92108L26 9.67533V7.5835H25V9.67533L24.3535 8.92108L23.6465 9.74591L25.1465 11.4959ZM7.99998 5.25016H8.99998V6.41683H7.99998V5.25016ZM3.99998 5.25016H4.99998V6.41683H3.99998V5.25016ZM5.99998 5.25016H6.99998V6.41683H5.99998V5.25016ZM4.49998 11.6668C4.56565 11.6669 4.63069 11.6518 4.69135 11.6225C4.75202 11.5932 4.80711 11.5502 4.85348 11.4959L6.35348 9.74591L5.64648 8.92108L4.99998 9.67533V7.5835H3.99998V9.67533L3.35348 8.92108L2.64648 9.74591L4.14648 11.4959C4.19285 11.5502 4.24795 11.5932 4.30862 11.6225C4.36928 11.6518 4.43432 11.6669 4.49998 11.6668Z" fill="#353546"/>
</svg>
