<svg width="40" height="35" viewBox="0 0 40 35" fill="none" xmlns="http://www.w3.org/2000/svg">
<path d="M37.9991 0H2.00089C1.45277 0.0194948 0.934612 0.257416 0.559809 0.661702C0.185005 1.06599 -0.0159246 1.60371 0.000987291 2.15721V24.7692C-0.0150267 25.3222 0.186305 25.859 0.561013 26.2626C0.935722 26.6661 1.45336 26.9036 2.00089 26.9231H16.6668V29.6154H12.0004C11.8236 29.6154 11.654 29.6863 11.529 29.8125C11.404 29.9388 11.3338 30.11 11.3338 30.2885V33.6538H10.0005V35H29.9995V33.6538H28.6662V30.2885C28.6662 30.11 28.596 29.9388 28.471 29.8125C28.346 29.6863 28.1764 29.6154 27.9996 29.6154H23.3332V26.9231H37.9991C38.5466 26.9036 39.0643 26.6661 39.439 26.2626C39.8137 25.859 40.015 25.3222 39.999 24.7692V2.15721C40.0159 1.60371 39.815 1.06599 39.4402 0.661702C39.0654 0.257416 38.5472 0.0194948 37.9991 0ZM2.00089 1.34615H37.9991C38.1932 1.36644 38.3717 1.46272 38.4963 1.61434C38.621 1.76596 38.6818 1.96085 38.6657 2.15721V21.5385H1.33425V2.15721C1.31822 1.96085 1.37903 1.76596 1.50366 1.61434C1.62828 1.46272 1.80678 1.36644 2.00089 1.34615ZM27.333 33.6538H12.667V30.9615H27.333V33.6538ZM21.9999 29.6154H18.0001V26.9231H21.9999V29.6154ZM37.9991 25.5769H2.00089C1.80741 25.5566 1.62943 25.4608 1.5049 25.31C1.38036 25.1591 1.31913 24.965 1.33425 24.7692V22.8846H38.6657V24.7692C38.6809 24.965 38.6196 25.1591 38.4951 25.31C38.3706 25.4608 38.1926 25.5566 37.9991 25.5769Z" fill="#19A5FF"/>
<path d="M35.3327 23.5575H36.666V24.9037H35.3327V23.5575ZM21.3334 13.4614H23.0146C23.0851 13.6613 23.1657 13.8574 23.256 14.049L22.0667 15.2498C21.9417 15.376 21.8715 15.5471 21.8715 15.7256C21.8715 15.9041 21.9417 16.0753 22.0667 16.2015L23.9526 18.1056C24.0776 18.2318 24.2471 18.3027 24.4239 18.3027C24.6007 18.3027 24.7702 18.2318 24.8952 18.1056L26.0845 16.9055C26.2742 16.9967 26.4685 17.078 26.6665 17.1492V18.846C26.6665 19.0245 26.7367 19.1957 26.8617 19.3219C26.9867 19.4482 27.1563 19.5191 27.3331 19.5191H29.9996C30.1764 19.5191 30.346 19.4482 30.471 19.3219C30.596 19.1957 30.6663 19.0245 30.6663 18.846V17.1485C30.8642 17.0773 31.0585 16.996 31.2482 16.9048L32.4375 18.1056C32.5625 18.2318 32.732 18.3027 32.9088 18.3027C33.0856 18.3027 33.2551 18.2318 33.3801 18.1056L35.266 16.2015C35.391 16.0753 35.4612 15.9041 35.4612 15.7256C35.4612 15.5471 35.391 15.376 35.266 15.2498L34.0774 14.049C34.1675 13.8574 34.2478 13.6613 34.3181 13.4614H35.9993C36.1761 13.4614 36.3457 13.3905 36.4707 13.2642C36.5957 13.138 36.666 12.9668 36.666 12.7883V10.096C36.666 9.91749 36.5957 9.74629 36.4707 9.62007C36.3457 9.49384 36.1761 9.42293 35.9993 9.42293H34.3181C34.2476 9.22304 34.167 9.02692 34.0768 8.83533L35.266 7.63456C35.391 7.50834 35.4612 7.33717 35.4612 7.1587C35.4612 6.98022 35.391 6.80905 35.266 6.68283L33.3801 4.7787C33.2551 4.65251 33.0856 4.58163 32.9088 4.58163C32.732 4.58163 32.5625 4.65251 32.4375 4.7787L31.2482 5.97879C31.0585 5.88786 30.8642 5.80676 30.6663 5.73581V4.03831C30.6663 3.8598 30.596 3.6886 30.471 3.56237C30.346 3.43615 30.1764 3.36523 29.9996 3.36523H27.3331C27.1563 3.36523 26.9867 3.43615 26.8617 3.56237C26.7367 3.6886 26.6665 3.8598 26.6665 4.03831V5.73581C26.4685 5.80698 26.2742 5.8883 26.0845 5.97947L24.8952 4.7787C24.7702 4.65251 24.6007 4.58163 24.4239 4.58163C24.2471 4.58163 24.0776 4.65251 23.9526 4.7787L22.0667 6.68283C21.9417 6.80905 21.8715 6.98022 21.8715 7.1587C21.8715 7.33717 21.9417 7.50834 22.0667 7.63456L23.2553 8.83533C23.165 9.02692 23.0845 9.22304 23.014 9.42293H21.3334C21.1566 9.42293 20.987 9.49384 20.862 9.62007C20.737 9.74629 20.6667 9.91749 20.6667 10.096V12.7883C20.6667 12.9668 20.737 13.138 20.862 13.2642C20.987 13.3905 21.1566 13.4614 21.3334 13.4614ZM22 10.7691H23.5079C23.6557 10.769 23.7993 10.7194 23.9161 10.6281C24.0329 10.5367 24.1163 10.4087 24.1532 10.2643C24.2621 9.83903 24.4292 9.43123 24.6499 9.05273C24.7251 8.92415 24.7559 8.77394 24.7373 8.62576C24.7187 8.47758 24.6519 8.33986 24.5472 8.23427L23.4806 7.15735L24.4232 6.20562L25.4898 7.28254C25.5944 7.38818 25.7308 7.4557 25.8776 7.47446C26.0243 7.49323 26.1731 7.46218 26.3005 7.3862C26.6753 7.1634 27.0792 6.99461 27.5004 6.88475C27.6435 6.84746 27.7702 6.76322 27.8607 6.64529C27.9512 6.52735 28.0003 6.38241 28.0004 6.23321V4.71139H29.3337V6.23389C29.3337 6.38308 29.3828 6.52803 29.4733 6.64596C29.5638 6.7639 29.6906 6.84813 29.8336 6.88543C30.2548 6.99529 30.6587 7.16407 31.0336 7.38687C31.1609 7.46285 31.3097 7.4939 31.4565 7.47514C31.6032 7.45637 31.7396 7.38885 31.8442 7.28321L32.9108 6.20629L33.8534 7.15802L32.7868 8.23495C32.6822 8.34053 32.6153 8.47826 32.5967 8.62643C32.5781 8.77461 32.6089 8.92482 32.6842 9.05341C32.9048 9.43191 33.072 9.8397 33.1808 10.2649C33.2177 10.4094 33.3012 10.5374 33.418 10.6287C33.5348 10.7201 33.6783 10.7697 33.8261 10.7698H35.3327V12.1159H33.8248C33.677 12.1159 33.5334 12.1655 33.4166 12.2569C33.2998 12.3483 33.2164 12.4763 33.1795 12.6207C33.0707 13.046 32.9035 13.4538 32.6828 13.8323C32.6076 13.9608 32.5768 14.1111 32.5954 14.2592C32.614 14.4074 32.6809 14.5451 32.7855 14.6507L33.8521 15.7276L32.9095 16.6794L31.8429 15.6024C31.7383 15.4968 31.6019 15.4293 31.4551 15.4105C31.3084 15.3918 31.1596 15.4228 31.0322 15.4988C30.6574 15.7216 30.2535 15.8904 29.8323 16.0002C29.6892 16.0375 29.5625 16.1218 29.472 16.2397C29.3815 16.3576 29.3324 16.5026 29.3323 16.6518V18.1729H27.9997V16.6504C27.9997 16.5012 27.9506 16.3563 27.8601 16.2384C27.7696 16.1204 27.6428 16.0362 27.4997 15.9989C27.0786 15.889 26.6747 15.7202 26.2998 15.4974C26.1724 15.4215 26.0237 15.3904 25.8769 15.4092C25.7302 15.4279 25.5938 15.4955 25.4892 15.6011L24.4226 16.678L23.4799 15.7263L24.5466 14.6494C24.6512 14.5438 24.7181 14.4061 24.7366 14.2579C24.7552 14.1097 24.7245 13.9595 24.6492 13.8309C24.4286 13.4524 24.2614 13.0446 24.1526 12.6194C24.1156 12.4749 24.0322 12.3469 23.9154 12.2556C23.7986 12.1642 23.655 12.1146 23.5073 12.1146H22V10.7691Z" fill="#19A5FF"/>
<path d="M28.6662 14.8081C29.3254 14.8081 29.9698 14.6107 30.518 14.2409C31.0661 13.8711 31.4933 13.3455 31.7456 12.7306C31.9979 12.1156 32.0639 11.439 31.9353 10.7861C31.8067 10.1333 31.4892 9.53367 31.0231 9.06301C30.5569 8.59236 29.963 8.27183 29.3164 8.14198C28.6699 8.01213 27.9997 8.07877 27.3906 8.33349C26.7816 8.58821 26.261 9.01956 25.8947 9.57299C25.5285 10.1264 25.333 10.7771 25.333 11.4427C25.3341 12.3349 25.6856 13.1903 26.3104 13.8212C26.9353 14.4521 27.7825 14.807 28.6662 14.8081ZM28.6662 9.42347C29.0617 9.42347 29.4484 9.54189 29.7773 9.76377C30.1061 9.98565 30.3625 10.301 30.5138 10.67C30.6652 11.0389 30.7048 11.4449 30.6276 11.8366C30.5505 12.2283 30.36 12.5881 30.0803 12.8705C29.8006 13.1529 29.4443 13.3452 29.0563 13.4231C28.6684 13.501 28.2663 13.4611 27.9008 13.3082C27.5354 13.1554 27.2231 12.8966 27.0033 12.5645C26.7836 12.2325 26.6663 11.8421 26.6663 11.4427C26.6663 10.9072 26.877 10.3936 27.252 10.0149C27.6271 9.63621 28.1358 9.42347 28.6662 9.42347ZM4.86268 7.20703L5.8053 6.2553L4.94334 5.38501L5.8053 4.51472L4.86268 3.56299L3.52941 4.90914C3.40444 5.03536 3.33423 5.20653 3.33423 5.38501C3.33423 5.56348 3.40444 5.73465 3.52941 5.86087L4.86268 7.20703ZM6.80058 6.32731L8.80048 3.63501L9.8671 4.4427L7.8672 7.13501L6.80058 6.32731ZM11.805 7.20703L13.1383 5.86087C13.2632 5.73465 13.3335 5.56348 13.3335 5.38501C13.3335 5.20653 13.2632 5.03536 13.1383 4.90914L11.805 3.56299L10.8624 4.51472L11.7243 5.38501L10.8624 6.2553L11.805 7.20703ZM14.6669 6.05808H16.0001V7.40424H14.6669V6.05808ZM4.66735 8.75039H7.33389V10.0965H4.66735V8.75039ZM8.66716 8.75039H10.0004V10.0965H8.66716V8.75039ZM11.3337 8.75039H15.3335V10.0965H11.3337V8.75039ZM16.6668 8.75039H18V10.0965H16.6668V8.75039ZM6.00062 11.4427H7.33389V12.7889H6.00062V11.4427ZM8.66716 11.4427H11.3337V12.7889H8.66716V11.4427ZM12.667 11.4427H14.0002V12.7889H12.667V11.4427ZM15.3335 11.4427H18V12.7889H15.3335V11.4427ZM4.66735 15.4812H7.33389V16.8273H4.66735V15.4812ZM8.66716 15.4812H10.0004V16.8273H8.66716V15.4812ZM11.3337 15.4812H15.3335V16.8273H11.3337V15.4812ZM16.6668 15.4812H18V16.8273H16.6668V15.4812ZM6.00062 18.1735H7.33389V19.5196H6.00062V18.1735ZM8.66716 18.1735H11.3337V19.5196H8.66716V18.1735ZM12.667 18.1735H14.0002V19.5196H12.667V18.1735ZM15.3335 18.1735H18V19.5196H15.3335V18.1735Z" fill="#19A5FF"/>
</svg>
