<svg width="35" height="35" viewBox="0 0 35 35" fill="none" xmlns="http://www.w3.org/2000/svg">
<path d="M24.7915 2.91699H10.2082C6.18109 2.91699 2.9165 6.18158 2.9165 10.2087V24.792C2.9165 28.8191 6.18109 32.0837 10.2082 32.0837H24.7915C28.8186 32.0837 32.0832 28.8191 32.0832 24.792V10.2087C32.0832 6.18158 28.8186 2.91699 24.7915 2.91699Z" stroke="#6C757D" stroke-width="2" stroke-linecap="round" stroke-linejoin="round"/>
<path d="M23.3336 16.5812C23.5135 17.7949 23.3062 19.0344 22.7411 20.1235C22.176 21.2126 21.2819 22.0958 20.1859 22.6474C19.09 23.199 17.848 23.391 16.6366 23.1961C15.4252 23.0012 14.3061 22.4292 13.4385 21.5616C12.5709 20.6941 11.999 19.575 11.8041 18.3636C11.6091 17.1522 11.8012 15.9102 12.3528 14.8142C12.9044 13.7183 13.7876 12.8242 14.8767 12.2591C15.9657 11.694 17.2053 11.4866 18.419 11.6666C19.657 11.8502 20.8031 12.4271 21.6881 13.3121C22.5731 14.197 23.15 15.3432 23.3336 16.5812Z" stroke="#6C757D" stroke-width="2" stroke-linecap="round" stroke-linejoin="round"/>
<path d="M25.521 9.47949H25.5356" stroke="#6C757D" stroke-width="2" stroke-linecap="round" stroke-linejoin="round"/>
</svg>
