<svg width="35" height="35" viewBox="0 0 35 35" fill="none" xmlns="http://www.w3.org/2000/svg">
<path d="M17.4999 2.71387C9.35182 2.71387 2.72266 9.34685 2.72266 17.4999C2.72266 25.6532 9.35182 32.2859 17.4999 32.2859C25.6483 32.2859 32.2777 25.6532 32.2777 17.4999C32.2775 9.34685 25.6481 2.71387 17.4999 2.71387ZM17.4999 30.8276C10.1554 30.8276 4.18015 24.8489 4.18015 17.4999C4.18015 10.1511 10.1554 4.1722 17.4999 4.1722C24.8445 4.1722 30.8202 10.1511 30.8202 17.4999C30.82 24.8489 24.8445 30.8276 17.4999 30.8276Z" fill="white"/>
<path d="M9.99438 14.3672H13.4141V23.2956H9.99438V14.3672Z" fill="white"/>
<path d="M11.6702 12.9429C12.6261 12.9429 13.401 12.2356 13.401 11.3631C13.401 10.4905 12.6261 9.7832 11.6702 9.7832C10.7143 9.7832 9.93945 10.4905 9.93945 11.3631C9.93945 12.2356 10.7143 12.9429 11.6702 12.9429Z" fill="white"/>
<path d="M22.0101 14.165C21.3098 14.165 20.7164 14.2926 20.2286 14.5476C19.7413 14.8028 19.2599 15.2272 18.7835 15.8212V14.3668H15.5989V23.2952H19.0186V19.0074C19.0186 18.1947 19.1476 17.6317 19.4054 17.3177C19.6631 17.0039 19.9988 16.8469 20.4135 16.8469C20.7888 16.8469 21.08 16.9633 21.2875 17.1959C21.4949 17.4285 21.5982 17.825 21.5982 18.3857V23.2952H25.0349V17.6206C25.0349 16.4434 24.7672 15.5733 24.2321 15.0099C23.6977 14.4465 22.9565 14.165 22.0101 14.165Z" fill="white"/>
</svg>
