<svg width="21" height="14" viewBox="0 0 21 14" fill="none" xmlns="http://www.w3.org/2000/svg">
<path d="M11.7381 6.41406C12.1287 6.02344 12.324 5.55208 12.324 5C12.324 4.44792 12.1287 3.97656 11.7381 3.58594C11.3474 3.19531 10.8761 3 10.324 3C9.77192 3 9.30057 3.19531 8.90994 3.58594C8.51932 3.97656 8.32401 4.44792 8.32401 5C8.32401 5.55208 8.51932 6.02344 8.90994 6.41406C9.30057 6.80469 9.77192 7 10.324 7C10.8761 7 11.3474 6.80469 11.7381 6.41406ZM14.324 5C14.324 5.56771 14.2381 6.03385 14.0662 6.39844L11.2224 12.4453C11.1391 12.6172 11.0141 12.7526 10.8474 12.8516C10.686 12.9505 10.5115 13 10.324 13C10.1365 13 9.95942 12.9505 9.79276 12.8516C9.6313 12.7526 9.51151 12.6172 9.43338 12.4453L6.58182 6.39844C6.40994 6.03385 6.32401 5.56771 6.32401 5C6.32401 3.89583 6.71463 2.95312 7.49588 2.17187C8.27713 1.39062 9.21984 0.999999 10.324 0.999999C11.4282 0.999999 12.3709 1.39062 13.1521 2.17187C13.9334 2.95312 14.324 3.89583 14.324 5Z" fill="white"/>
</svg>
