<svg width="36" height="36" viewBox="0 0 36 36" fill="none" xmlns="http://www.w3.org/2000/svg">
<g clip-path="url(#clip0_170_1035)">
<path d="M24.1038 13.625C22.7768 13.625 21.5226 13.8875 20.3559 14.3542L19.3351 9.90624L25.008 4.23333C25.8538 3.41666 25.8538 2.00208 25.008 1.14166C24.1622 0.281245 22.7622 0.287079 21.9163 1.14166L16.2434 6.81458L2.82676 3.72291L0.770508 5.77916L11.6059 11.4375L5.93301 17.125L2.31634 16.6146L0.770508 18.1604L5.40801 20.7271L7.98926 25.3792L9.52051 23.8333L9.02467 20.1875L14.6976 14.5437L16.1851 17.4021C14.9674 18.8985 14.199 20.7096 13.9691 22.6251C13.7393 24.5407 14.0573 26.4821 14.8864 28.2242C15.7154 29.9663 17.0215 31.4375 18.653 32.4672C20.2845 33.4969 22.1746 34.0429 24.1038 34.0417C29.7476 34.0417 34.3122 29.4771 34.3122 23.8333C34.3122 18.1896 29.7476 13.625 24.1038 13.625ZM24.1038 31.125C20.0788 31.125 16.8122 27.8583 16.8122 23.8333C16.8122 19.8083 20.0788 16.5417 24.1038 16.5417C28.1288 16.5417 31.3955 19.8083 31.3955 23.8333C31.3955 27.8583 28.1288 31.125 24.1038 31.125ZM24.833 24.1979V18H22.6455V25.2917L27.9101 28.4417L29.0038 26.6625L24.833 24.1979Z" fill="white"/>
</g>
<defs>
<clipPath id="clip0_170_1035">
<rect width="35" height="35" fill="white" transform="translate(0.770508 0.5)"/>
</clipPath>
</defs>
</svg>
