<svg width="36" height="36" viewBox="0 0 36 36" fill="none" xmlns="http://www.w3.org/2000/svg">
<g clip-path="url(#clip0_170_1048)">
<path d="M17.7295 3C21.2105 3 24.5489 4.42232 27.0103 6.95406C29.4717 9.4858 30.8545 12.9196 30.8545 16.5C30.8545 21.111 28.4103 24.885 25.8349 27.5925C24.548 28.9303 23.144 30.1435 21.6407 31.2165L21.0195 31.6515L20.7278 31.851L20.178 32.211L19.688 32.5185L19.0814 32.8815C18.6694 33.1227 18.2035 33.2495 17.7295 33.2495C17.2555 33.2495 16.7896 33.1227 16.3776 32.8815L15.771 32.5185L15.0126 32.0385L14.7326 31.851L14.1347 31.4415C12.513 30.3125 11.0023 29.0234 9.62408 27.5925C7.04866 24.882 4.60449 21.111 4.60449 16.5C4.60449 12.9196 5.9873 9.4858 8.44872 6.95406C10.9101 4.42232 14.2485 3 17.7295 3ZM17.7295 12C17.155 12 16.5861 12.1164 16.0553 12.3425C15.5245 12.5687 15.0422 12.9002 14.6359 13.318C14.2296 13.7359 13.9074 14.232 13.6875 14.7779C13.4677 15.3239 13.3545 15.9091 13.3545 16.5C13.3545 17.0909 13.4677 17.6761 13.6875 18.2221C13.9074 18.768 14.2296 19.2641 14.6359 19.682C15.0422 20.0998 15.5245 20.4313 16.0553 20.6575C16.5861 20.8836 17.155 21 17.7295 21C18.8898 21 20.0026 20.5259 20.8231 19.682C21.6436 18.8381 22.1045 17.6935 22.1045 16.5C22.1045 15.3065 21.6436 14.1619 20.8231 13.318C20.0026 12.4741 18.8898 12 17.7295 12Z" fill="white"/>
</g>
<defs>
<clipPath id="clip0_170_1048">
<rect width="35" height="36" fill="white" transform="translate(0.229492)"/>
</clipPath>
</defs>
</svg>
