<svg width="21" height="14" viewBox="0 0 21 14" fill="none" xmlns="http://www.w3.org/2000/svg">
<path d="M11 9.6875C11 9.82812 10.974 10.013 10.9219 10.2422C10.8698 10.4661 10.8151 10.6432 10.7578 10.7734C10.6484 11.0339 10.3307 11.3099 9.80469 11.6016C9.3151 11.8672 8.83073 12 8.35156 12C8.21094 12 8.07292 11.9922 7.9375 11.9766C7.80208 11.9557 7.65104 11.9219 7.48438 11.875C7.32292 11.8281 7.20052 11.7917 7.11719 11.7656C7.03906 11.7344 6.89583 11.6797 6.6875 11.6016C6.47917 11.5234 6.35156 11.4766 6.30469 11.4609C5.79427 11.2786 5.33854 11.0625 4.9375 10.8125C4.27604 10.401 3.58854 9.83854 2.875 9.125C2.16146 8.41146 1.59896 7.72396 1.1875 7.0625C0.9375 6.66146 0.721354 6.20573 0.539063 5.69531C0.523438 5.64844 0.476563 5.52083 0.398438 5.3125C0.320313 5.10417 0.265625 4.96094 0.234375 4.88281C0.208333 4.79948 0.171875 4.67708 0.125 4.51562C0.078125 4.34896 0.0442708 4.19792 0.0234375 4.0625C0.0078125 3.92708 0 3.78906 0 3.64844C0 3.16927 0.132813 2.6849 0.398438 2.19531C0.690104 1.66927 0.966146 1.35156 1.22656 1.24219C1.35677 1.1849 1.53385 1.13021 1.75781 1.07812C1.98698 1.02604 2.17188 0.999999 2.3125 0.999999C2.38542 0.999999 2.4401 1.00781 2.47656 1.02344C2.57031 1.05469 2.70833 1.2526 2.89063 1.61719C2.94792 1.71615 3.02604 1.85677 3.125 2.03906C3.22396 2.22135 3.3151 2.38802 3.39844 2.53906C3.48177 2.6849 3.5625 2.82292 3.64063 2.95312C3.65625 2.97396 3.70052 3.03906 3.77344 3.14844C3.85156 3.25781 3.90885 3.35156 3.94531 3.42969C3.98177 3.5026 4 3.57552 4 3.64844C4 3.7526 3.92448 3.88281 3.77344 4.03906C3.6276 4.19531 3.46615 4.33854 3.28906 4.46875C3.11719 4.59896 2.95573 4.73698 2.80469 4.88281C2.65885 5.02865 2.58594 5.14844 2.58594 5.24219C2.58594 5.28906 2.59896 5.34896 2.625 5.42187C2.65104 5.48958 2.67188 5.54167 2.6875 5.57812C2.70833 5.61458 2.74479 5.67708 2.79688 5.76562C2.85417 5.85417 2.88542 5.90365 2.89063 5.91406C3.28646 6.6276 3.73958 7.23958 4.25 7.75C4.76042 8.26042 5.3724 8.71354 6.08594 9.10937C6.09635 9.11458 6.14583 9.14583 6.23438 9.20312C6.32292 9.25521 6.38542 9.29167 6.42188 9.3125C6.45833 9.32812 6.51042 9.34896 6.57813 9.375C6.65104 9.40104 6.71094 9.41406 6.75781 9.41406C6.85156 9.41406 6.97135 9.34115 7.11719 9.19531C7.26302 9.04427 7.40104 8.88281 7.53125 8.71094C7.66146 8.53385 7.80469 8.3724 7.96094 8.22656C8.11719 8.07552 8.2474 8 8.35156 8C8.42448 8 8.4974 8.01823 8.57031 8.05469C8.64844 8.09115 8.74219 8.14844 8.85156 8.22656C8.96094 8.29948 9.02604 8.34375 9.04688 8.35937C9.17708 8.4375 9.3151 8.51823 9.46094 8.60156C9.61198 8.6849 9.77865 8.77604 9.96094 8.875C10.1432 8.97396 10.2839 9.05208 10.3828 9.10937C10.7474 9.29167 10.9453 9.42969 10.9766 9.52344C10.9922 9.5599 11 9.61458 11 9.6875Z" fill="white"/>
</svg>
