<svg width="37" height="37" viewBox="0 0 37 37" fill="none" xmlns="http://www.w3.org/2000/svg">
<path d="M22.679 7.67615C24.3156 7.98765 25.8197 8.76849 26.9988 9.91873C28.1779 11.069 28.9783 12.5363 29.2976 14.1329M22.679 1.1377C26.0793 1.5062 29.25 2.99163 31.6707 5.35011C34.0913 7.70858 35.618 10.7999 36 14.1165M34.3244 27.1607V32.0646C34.3263 32.5198 34.2307 32.9704 34.0438 33.3876C33.8568 33.8047 33.5826 34.1791 33.2388 34.4869C32.8949 34.7946 32.4889 35.0289 32.0469 35.1748C31.6048 35.3206 31.1364 35.3748 30.6716 35.3338C25.5155 34.7873 20.5628 33.0685 16.2112 30.3155C12.1627 27.8059 8.73027 24.4574 6.15767 20.5079C3.32588 16.2435 1.5636 11.3883 1.0136 6.33577C0.971728 5.88374 1.0268 5.42816 1.1753 4.99804C1.3238 4.56791 1.56248 4.17266 1.87614 3.83746C2.1898 3.50225 2.57158 3.23443 2.99715 3.05105C3.42273 2.86766 3.88279 2.77274 4.34803 2.77231H9.37481C10.188 2.7645 10.9763 3.04542 11.5929 3.5627C12.2095 4.07998 12.6122 4.79833 12.726 5.58384C12.9382 7.15318 13.3316 8.69407 13.8989 10.1771C14.1244 10.7622 14.1731 11.398 14.0395 12.0093C13.9059 12.6206 13.5954 13.1817 13.1449 13.6261L11.0169 15.7021C13.4022 19.7944 16.8755 23.1828 21.0705 25.5098L23.1985 23.4338C23.654 22.9943 24.2292 22.6915 24.8558 22.5611C25.4824 22.4307 26.1342 22.4783 26.734 22.6982C28.2542 23.2516 29.8337 23.6355 31.4424 23.8425C32.2563 23.9545 32.9997 24.3544 33.5311 24.9663C34.0625 25.5781 34.3448 26.3591 34.3244 27.1607Z" stroke="#6C757D" stroke-width="2" stroke-linecap="round" stroke-linejoin="round"/>
</svg>
