<svg width="70" height="70" viewBox="0 0 70 70" fill="none" xmlns="http://www.w3.org/2000/svg">
<path d="M49.4707 34.443C49.3965 34.2637 49.2892 34.1022 49.154 33.9675L36.0308 20.8443C35.4658 20.2983 34.5698 20.2983 34.0046 20.8443C33.4253 21.4038 33.4093 22.327 33.9688 22.9062L44.6046 33.5418H21.8749C21.0696 33.5418 20.4166 34.1948 20.4166 35.0002C20.4166 35.8055 21.0696 36.4585 21.8749 36.4585H44.6046L33.9688 47.0941C33.6954 47.3675 33.5418 47.7383 33.5418 48.125C33.5416 48.9303 34.1946 49.5833 34.9999 49.5835C35.3868 49.5839 35.7577 49.4302 36.0308 49.1562L49.1551 36.032C49.2901 35.8972 49.3967 35.7359 49.4707 35.557C49.5405 35.3877 49.574 35.2086 49.5776 35.0285C49.5777 35.0185 49.5833 35.0101 49.5833 35.0002C49.5833 34.9932 49.5795 34.9873 49.5793 34.9804C49.5768 34.7974 49.5418 34.6148 49.4707 34.443ZM34.9999 5.8335C18.8917 5.8335 5.83325 18.8919 5.83325 35.0002C5.83325 51.1084 18.8917 64.1668 34.9999 64.1668C51.1003 64.148 64.1477 51.1006 64.1666 35.0002C64.1666 18.8919 51.1082 5.8335 34.9999 5.8335ZM34.9999 61.2502C20.5024 61.2502 8.74992 49.4977 8.74992 35.0002C8.74992 20.5026 20.5024 8.75016 34.9999 8.75016C49.4907 8.76654 61.2335 20.5094 61.2499 35.0002C61.2499 49.4977 49.4974 61.2502 34.9999 61.2502Z" fill="#353546"/>
</svg>
