<svg width="33" height="33" viewBox="0 0 33 33" fill="none" xmlns="http://www.w3.org/2000/svg">
<path d="M24.3267 15.2949C24.1845 15.2267 24.0402 15.1612 23.8939 15.0984C23.6392 10.405 21.0746 7.71805 16.7685 7.69055C16.7489 7.69043 16.7295 7.69043 16.71 7.69043C14.1344 7.69043 11.9923 8.78984 10.6738 10.7904L13.042 12.415C14.027 10.9206 15.5728 10.6021 16.7112 10.6021C16.7243 10.6021 16.7375 10.6021 16.7505 10.6022C18.1684 10.6112 19.2383 11.0235 19.9308 11.8274C20.4347 12.4127 20.7718 13.2215 20.9387 14.2422C19.6816 14.0286 18.322 13.9629 16.8687 14.0462C12.7746 14.282 10.1425 16.6698 10.3193 19.9877C10.409 21.6707 11.2474 23.1186 12.6801 24.0644C13.8914 24.864 15.4514 25.255 17.0727 25.1665C19.2139 25.0491 20.8936 24.2321 22.0655 22.7384C22.9555 21.604 23.5183 20.134 23.7669 18.2817C24.7873 18.8975 25.5435 19.7079 25.9612 20.6821C26.6714 22.3381 26.7128 25.0594 24.4924 27.2779C22.5469 29.2215 20.2084 30.0623 16.6742 30.0883C12.7538 30.0592 9.78893 28.802 7.86124 26.3514C6.0561 24.0567 5.1232 20.7422 5.08839 16.5C5.1232 12.2577 6.0561 8.94328 7.86124 6.64859C9.78893 4.19803 12.7538 2.94078 16.6741 2.91165C20.6229 2.941 23.6395 4.2043 25.641 6.66669C26.6224 7.87421 27.3623 9.39276 27.8501 11.1633L30.6254 10.4229C30.0341 8.2435 29.1038 6.36551 27.8377 4.80803C25.2718 1.65115 21.5191 0.0335411 16.6838 0H16.6645C11.839 0.0334245 8.12833 1.65718 5.63549 4.82613C3.4172 7.6461 2.27294 11.5699 2.2345 16.4884L2.23438 16.5L2.2345 16.5116C2.27294 21.4301 3.4172 25.354 5.63549 28.1739C8.12833 31.3428 11.839 32.9667 16.6645 33H16.6838C20.9739 32.9703 23.9979 31.8471 26.489 29.3581C29.7483 26.102 29.6502 22.0205 28.5759 19.5149C27.8053 17.7181 26.3359 16.2587 24.3267 15.2949ZM16.9195 22.259C15.1251 22.3601 13.2609 21.5547 13.169 19.8296C13.1009 18.5505 14.0793 17.1232 17.0296 16.9532C17.3675 16.9337 17.699 16.9242 18.0247 16.9242C19.0963 16.9242 20.0989 17.0283 21.0103 17.2275C20.6704 21.4732 18.6763 22.1626 16.9195 22.259Z" fill="white"/>
</svg>
