<svg width="22" height="18" viewBox="0 0 22 18" fill="none" xmlns="http://www.w3.org/2000/svg">
<path d="M21.4353 0.127197H18.8181C18.2489 0.127197 17.7076 0.400634 17.3728 0.869384L8.60047 13.0346L4.62725 7.52117C4.29243 7.058 3.75671 6.77898 3.18194 6.77898H0.56475C0.202027 6.77898 -0.0100267 7.19193 0.202027 7.48769L7.15515 17.1305C7.31941 17.3598 7.53595 17.5466 7.78681 17.6755C8.03768 17.8044 8.31565 17.8716 8.59768 17.8716C8.87971 17.8716 9.15767 17.8044 9.40854 17.6755C9.6594 17.5466 9.87594 17.3598 10.0402 17.1305L21.7924 0.835903C22.0101 0.540144 21.798 0.127197 21.4353 0.127197Z" fill="white"/>
</svg>
