<svg width="36" height="36" viewBox="0 0 36 36" fill="none" xmlns="http://www.w3.org/2000/svg">
<path d="M35.2295 10.5018C32.2907 10.3402 29.3752 11.1038 26.8932 12.685C26.293 12.0017 25.6761 11.3184 25.0259 10.6685L24.5424 10.2185L24.7758 10.0185C25.5912 9.31894 26.1722 8.38618 26.4405 7.34613C26.7088 6.30608 26.6515 5.20878 26.2764 4.2023C25.7344 3.06601 24.8739 2.11151 23.7995 1.45473C22.7252 0.797956 21.4831 0.467174 20.2242 0.502571V3.83566C20.8174 3.82741 21.4021 3.9775 21.9179 4.27045C22.4337 4.5634 22.862 4.98861 23.1586 5.5022C23.442 6.16882 23.1586 6.9021 22.375 7.68538L21.9915 8.03535C20.2525 6.58688 18.3433 5.35567 16.3062 4.36895C12.088 2.46909 9.92061 3.35236 8.85357 4.36895C8.52843 4.69474 8.26817 5.07931 8.08664 5.5022L7.78653 6.38547L5.38569 13.6183C7.28636 18.3513 11.888 26.7673 21.8915 30.4004L30.2277 27.6339C30.5089 27.5293 30.7565 27.3508 30.9447 27.1173L31.2948 26.8173C33.6789 24.4175 32.1451 19.8012 28.944 15.3181C30.8447 14.2093 33.0333 13.6929 35.2295 13.8349V10.5018ZM28.9106 24.4508H28.8106C27.6602 25.0674 22.8918 23.5009 17.4899 18.1013C16.9231 17.5347 16.3895 16.9847 15.906 16.4347C15.7393 16.2514 15.5893 16.0514 15.4225 15.8514L14.5389 14.7849L14.0721 14.1349C13.8387 13.8183 13.6052 13.5016 13.4052 13.2016C13.2051 12.9017 13.1384 12.7683 13.005 12.5517C12.8716 12.335 12.6382 11.9851 12.4882 11.7017C12.3381 11.4184 12.2714 11.3018 12.1714 11.0851C12.0714 10.8685 11.888 10.6185 11.7879 10.3852C11.6879 10.1519 11.6379 10.0019 11.5545 9.81855C11.4712 9.63523 11.3711 9.36859 11.3044 9.15194C11.2377 8.93528 11.2211 8.83529 11.1877 8.66864C11.1544 8.50198 11.0877 8.26867 11.0543 8.10201C11.0463 7.96881 11.0463 7.83525 11.0543 7.70204C11.038 7.55807 11.038 7.41271 11.0543 7.26874L11.2377 6.75211C11.5212 6.45213 12.7549 6.36881 14.9557 7.36873C16.4265 8.07499 17.8181 8.9353 19.1072 9.93521C18.4044 10.2452 17.6551 10.4367 16.8897 10.5018V13.8349C18.661 13.7345 20.3796 13.1962 21.8915 12.2684L22.7084 13.035C23.442 13.7516 24.0923 14.4682 24.6925 15.1515C23.6872 16.8649 23.2879 18.8666 23.5587 20.8344L26.8932 20.1845C26.7805 19.5562 26.7805 18.9129 26.8932 18.2846C29.044 21.5677 29.4441 23.9342 28.9106 24.4508ZM4.21861 17.168L0.500641 28.3339C0.232294 29.1536 0.161836 30.0253 0.295028 30.8775C0.42822 31.7297 0.761281 32.5383 1.26698 33.2372C1.77269 33.9361 2.43668 34.5055 3.20468 34.8988C3.97268 35.292 4.82288 35.4981 5.68579 35.5C6.25305 35.4945 6.81583 35.3989 7.35305 35.2167L18.2235 31.6003C12.0883 28.4683 7.16354 23.3933 4.21861 17.168Z" fill="white"/>
</svg>
