<svg width="317" height="255" viewBox="0 0 317 255" fill="none" xmlns="http://www.w3.org/2000/svg">
<path d="M42.1614 59.9669L39.6615 59.9901L42.1614 59.9669ZM21.2537 186.565L19.2459 188.054L21.2537 186.565ZM164.551 224.605L165.041 227.057L164.551 224.605ZM316.023 237.209C316.962 236.196 316.902 234.614 315.889 233.676L299.387 218.381C298.374 217.442 296.793 217.502 295.854 218.515C294.915 219.528 294.975 221.109 295.988 222.048L310.656 235.644L297.061 250.312C296.122 251.325 296.182 252.906 297.195 253.845C298.208 254.783 299.79 254.723 300.728 253.711L316.023 237.209ZM1.63861 2.69744C0.558653 4.95214 0.558495 4.95206 0.558341 4.95199C0.558298 4.95197 0.558153 4.9519 0.558061 4.95186C0.557889 4.95177 0.557737 4.9517 0.557616 4.95164C0.557361 4.95152 0.557197 4.95144 0.557128 4.95141C0.556995 4.95134 0.557233 4.95145 0.557834 4.95175C0.559049 4.95233 0.561734 4.95363 0.565878 4.95564C0.574171 4.95966 0.588297 4.96653 0.608113 4.97626C0.647746 4.99571 0.710122 5.02656 0.794075 5.06881C0.962003 5.15332 1.21616 5.28336 1.54725 5.45886C2.20956 5.80994 3.17878 6.34247 4.3806 7.05582L6.93269 2.75618C5.65583 1.99829 4.61604 1.42654 3.88901 1.04115C3.52542 0.848414 3.23982 0.702172 3.04166 0.602452C2.94257 0.552589 2.86532 0.514345 2.81109 0.487729C2.78397 0.474416 2.7626 0.464015 2.74714 0.456515C2.7394 0.452768 2.73315 0.449741 2.72838 0.447444C2.72599 0.4463 2.72399 0.445329 2.72235 0.444547C2.72153 0.444155 2.72081 0.443808 2.72018 0.443504C2.71987 0.443352 2.71958 0.443214 2.71931 0.443086C2.71918 0.44302 2.719 0.442933 2.71893 0.442902C2.71875 0.442815 2.71858 0.442737 1.63861 2.69744ZM11.8349 12.0163C14.0254 13.6355 16.3815 15.5282 18.7627 17.6926L22.1258 13.9926C19.6047 11.7011 17.1157 9.70211 14.8071 7.99556L11.8349 12.0163ZM25.0229 24.0498C26.9234 26.2179 28.7534 28.5637 30.4374 31.0858L34.5957 28.3093C32.7783 25.5875 30.8123 23.0691 28.7829 20.7539L25.0229 24.0498ZM34.7839 38.7648C36.0007 41.363 37.0374 44.1057 37.838 46.9932L42.6562 45.6571C41.7763 42.4837 40.6396 39.479 39.3119 36.6441L34.7839 38.7648ZM39.4321 55.5995C39.5694 57.0316 39.6477 58.4951 39.6615 59.9901L44.6613 59.9438C44.6461 58.3042 44.5602 56.6969 44.4092 55.1222L39.4321 55.5995ZM39.6615 59.9901C39.6776 61.7302 39.57 63.4916 39.3516 65.2758L44.3146 65.8833C44.5571 63.9019 44.6796 61.9214 44.6613 59.9438L39.6615 59.9901ZM36.9668 75.7929C35.8984 79.1598 34.5612 82.5843 33.042 86.0726L37.6262 88.069C39.1924 84.4726 40.5978 80.8813 41.7326 77.3052L36.9668 75.7929ZM28.3073 96.1695C26.6692 99.4889 24.9721 102.822 23.2652 106.223L27.734 108.466C29.4228 105.101 31.1437 101.72 32.7911 98.3822L28.3073 96.1695ZM18.2966 116.417C16.6849 119.876 15.1527 123.379 13.7829 126.918L18.4457 128.723C19.7646 125.316 21.2492 121.919 22.8289 118.529L18.2966 116.417ZM10.1774 137.88C9.17994 141.655 8.44667 145.478 8.07556 149.344L13.0527 149.822C13.394 146.267 14.072 142.712 15.0115 139.157L10.1774 137.88ZM8.15225 161.113C8.59165 164.923 9.4593 168.754 10.8356 172.601L15.5433 170.916C14.2988 167.438 13.5161 163.981 13.1193 160.54L8.15225 161.113ZM15.9581 183.201C16.952 184.82 18.0462 186.438 19.2459 188.054L23.2614 185.075C22.1459 183.572 21.134 182.075 20.219 180.585L15.9581 183.201ZM19.2459 188.054C20.2561 189.416 21.2818 190.742 22.3227 192.033L26.2153 188.895C25.217 187.657 24.2323 186.384 23.2614 185.075L19.2459 188.054ZM28.9682 199.595C31.3372 202.063 33.7741 204.375 36.2765 206.537L39.5452 202.754C37.1625 200.695 34.8385 198.49 32.5756 196.132L28.9682 199.595ZM44.2263 212.753C47.0043 214.711 49.8509 216.508 52.7631 218.15L55.2191 213.795C52.452 212.234 49.7473 210.527 47.1072 208.666L44.2263 212.753ZM61.7921 222.665C64.8684 224.018 68.0069 225.22 71.2045 226.279L72.7765 221.532C69.724 220.521 66.7328 219.375 63.805 218.088L61.7921 222.665ZM80.8906 229.016C84.126 229.782 87.4141 230.418 90.7517 230.934L91.5151 225.993C88.3016 225.496 85.1432 224.884 82.0419 224.151L80.8906 229.016ZM100.707 232.109C103.995 232.383 107.326 232.553 110.698 232.625L110.805 227.626C107.53 227.556 104.302 227.391 101.122 227.126L100.707 232.109ZM120.681 232.566C123.963 232.46 127.281 232.272 130.631 232.008L130.238 227.024C126.96 227.282 123.721 227.465 120.52 227.568L120.681 232.566ZM140.533 231.022C143.787 230.633 147.069 230.18 150.379 229.668L149.614 224.727C146.358 225.231 143.133 225.676 139.94 226.057L140.533 231.022ZM160.168 227.997C161.786 227.696 163.41 227.382 165.041 227.057L164.061 222.154C162.452 222.475 160.85 222.784 159.254 223.081L160.168 227.997ZM165.041 227.057C166.575 226.75 168.099 226.469 169.615 226.211L168.777 221.282C167.214 221.548 165.642 221.838 164.061 222.154L165.041 227.057ZM178.818 224.918C181.94 224.57 185.025 224.317 188.075 224.149L187.801 219.157C184.66 219.329 181.482 219.59 178.264 219.948L178.818 224.918ZM197.367 223.889C200.502 223.884 203.603 223.961 206.671 224.108L206.909 219.113C203.764 218.963 200.581 218.884 197.359 218.889L197.367 223.889ZM215.969 224.76C219.094 225.047 222.188 225.395 225.253 225.791L225.894 220.832C222.774 220.429 219.619 220.074 216.426 219.781L215.969 224.76ZM234.517 227.133C237.625 227.627 240.706 228.158 243.764 228.71L244.652 223.789C241.568 223.233 238.452 222.696 235.302 222.195L234.517 227.133ZM253.009 230.438C256.128 231.036 259.19 231.633 262.271 232.225L263.215 227.315C260.166 226.729 257.055 226.123 253.951 225.527L253.009 230.438ZM271.571 233.97C274.702 234.537 277.821 235.073 280.929 235.56L281.703 230.621C278.644 230.141 275.565 229.612 272.461 229.05L271.571 233.97ZM290.365 236.871C293.542 237.248 296.713 237.553 299.883 237.764L300.216 232.775C297.143 232.57 294.058 232.274 290.954 231.906L290.365 236.871ZM309.473 238.097C311.076 238.097 312.68 238.068 314.284 238.008L314.095 233.011C312.556 233.07 311.017 233.097 309.475 233.097L309.473 238.097Z" fill="#6C757D"/>
</svg>
