<svg width="25" height="24" viewBox="0 0 25 24" fill="none" xmlns="http://www.w3.org/2000/svg">
<path d="M24.1574 22.2749L16.3664 14.4839C17.5754 12.9209 18.2294 11.01 18.2294 8.99996C18.2294 6.59397 17.2904 4.33798 15.5924 2.63699C13.8944 0.935996 11.6324 0 9.22945 0C6.82646 0 4.56447 0.938996 2.86648 2.63699C1.16549 4.33498 0.229492 6.59397 0.229492 8.99996C0.229492 11.403 1.16849 13.6649 2.86648 15.3629C4.56447 17.0639 6.82346 17.9999 9.22945 17.9999C11.2394 17.9999 13.1474 17.3459 14.7104 16.1399L22.5014 23.9279C22.5242 23.9508 22.5514 23.9689 22.5812 23.9813C22.6111 23.9936 22.6431 24 22.6754 24C22.7077 24 22.7397 23.9936 22.7696 23.9813C22.7994 23.9689 22.8265 23.9508 22.8494 23.9279L24.1574 22.6229C24.1802 22.6001 24.1984 22.5729 24.2108 22.5431C24.2231 22.5132 24.2295 22.4812 24.2295 22.4489C24.2295 22.4166 24.2231 22.3846 24.2108 22.3547C24.1984 22.3249 24.1802 22.2977 24.1574 22.2749ZM13.9814 13.7519C12.7094 15.0209 11.0234 15.7199 9.22945 15.7199C7.43546 15.7199 5.74947 15.0209 4.47747 13.7519C3.20848 12.4799 2.50948 10.794 2.50948 8.99996C2.50948 7.20597 3.20848 5.51698 4.47747 4.24798C5.74947 2.97899 7.43546 2.27999 9.22945 2.27999C11.0234 2.27999 12.7124 2.97599 13.9814 4.24798C15.2504 5.51998 15.9494 7.20597 15.9494 8.99996C15.9494 10.794 15.2504 12.4829 13.9814 13.7519Z" fill="white"/>
</svg>
