<svg width="1012" height="803" viewBox="0 0 1012 803" fill="none" xmlns="http://www.w3.org/2000/svg">
<path d="M900.305 117.903L900.37 120.403L900.305 117.903ZM509.209 67.3973L510.413 69.5881L509.209 67.3973ZM413.793 535.915L416.2 536.59L413.793 535.915ZM1.23366 783.746C0.33359 784.793 0.4527 786.372 1.49965 787.272L18.5618 801.939C19.6089 802.839 21.1872 802.72 22.0873 801.673C22.9874 800.626 22.8683 799.048 21.8212 798.148L6.65491 785.11L19.6926 769.943C20.5927 768.896 20.4736 767.318 19.4265 766.418C18.3796 765.518 16.8011 765.637 15.901 766.684L1.23366 783.746ZM1119.18 2.14109C1117.27 0.520353 1117.27 0.520293 1117.27 0.520235C1117.27 0.520229 1117.27 0.520175 1117.27 0.520163C1117.27 0.520111 1117.27 0.520099 1117.27 0.520098C1117.27 0.520098 1117.27 0.520173 1117.27 0.52035C1117.27 0.520677 1117.27 0.52136 1117.27 0.522371C1117.27 0.524393 1117.27 0.527781 1117.26 0.532505C1117.25 0.541926 1117.24 0.556745 1117.22 0.576855C1117.19 0.617049 1117.14 0.678434 1117.07 0.760399C1116.92 0.924301 1116.71 1.1705 1116.42 1.49422C1115.85 2.14167 1114.99 3.0991 1113.87 4.32833L1117.55 7.71022C1118.7 6.45601 1119.58 5.47436 1120.17 4.80357C1120.47 4.46816 1120.69 4.21045 1120.84 4.03524C1120.92 3.94763 1120.98 3.88064 1121.02 3.83487C1121.04 3.81199 1121.05 3.79441 1121.06 3.78221C1121.07 3.77611 1121.07 3.77135 1121.07 3.76795C1121.08 3.76625 1121.08 3.76489 1121.08 3.76386C1121.08 3.76336 1121.08 3.76292 1121.08 3.76258C1121.08 3.76242 1121.08 3.76226 1121.08 3.76214C1121.08 3.76207 1121.08 3.762 1121.08 3.76196C1121.08 3.76189 1121.08 3.76182 1119.18 2.14109ZM1106.61 11.9462C1104.43 14.1663 1101.93 16.651 1099.13 19.347L1102.6 22.9494C1105.43 20.2199 1107.96 17.7029 1110.18 15.4518L1106.61 11.9462ZM1091.41 26.5842C1088.96 28.8239 1086.36 31.1554 1083.6 33.5566L1086.88 37.328C1089.67 34.8988 1092.31 32.5401 1094.79 30.2739L1091.41 26.5842ZM1075.55 40.3888C1072.93 42.5606 1070.2 44.7693 1067.36 47.0009L1070.46 50.9296C1073.32 48.6716 1076.09 46.4369 1078.74 44.2398L1075.55 40.3888ZM1059.02 53.3963C1056.27 55.4548 1053.43 57.5209 1050.52 59.5842L1053.4 63.6661C1056.36 61.577 1059.23 59.4853 1062.02 57.4019L1059.02 53.3963ZM1041.84 65.5468C1038.96 67.4686 1036.02 69.3788 1033.01 71.2685L1035.67 75.5026C1038.72 73.5873 1041.7 71.6517 1044.62 69.7049L1041.84 65.5468ZM1024.02 76.7338C1021.03 78.4937 1017.98 80.2271 1014.88 81.9264L1017.28 86.3114C1020.43 84.587 1023.52 82.8284 1026.56 81.0436L1024.02 76.7338ZM1005.59 86.8289C1002.49 88.4015 999.337 89.935 996.142 91.4226L998.253 95.9553C1001.5 94.4434 1004.7 92.8855 1007.85 91.2884L1005.59 86.8289ZM986.549 95.6871C983.344 97.044 980.098 98.3507 976.813 99.6007L978.591 104.274C981.936 103.001 985.239 101.672 988.499 100.291L986.549 95.6871ZM966.941 103.141C963.642 104.251 960.308 105.3 956.94 106.283L958.34 111.083C961.776 110.081 965.175 109.011 968.536 107.879L966.941 103.141ZM946.822 109.004C943.445 109.834 940.036 110.595 936.599 111.279L937.575 116.183C941.087 115.484 944.568 114.707 948.016 113.859L946.822 109.004ZM926.289 113.084C922.855 113.603 919.394 114.042 915.909 114.398L916.416 119.372C919.983 119.008 923.524 118.558 927.035 118.028L926.289 113.084ZM905.482 115.2C903.74 115.29 901.992 115.358 900.24 115.404L900.37 120.403C902.166 120.356 903.956 120.286 905.74 120.193L905.482 115.2ZM900.24 115.404C898.541 115.449 896.847 115.463 895.159 115.45L895.118 120.449C896.863 120.464 898.613 120.449 900.37 120.403L900.24 115.404ZM885.05 115.029C881.675 114.777 878.319 114.416 874.977 113.957L874.295 118.91C877.735 119.383 881.196 119.755 884.678 120.015L885.05 115.029ZM864.971 112.281C861.653 111.629 858.347 110.886 855.052 110.061L853.837 114.911C857.211 115.756 860.6 116.518 864.007 117.187L864.971 112.281ZM845.236 107.358C841.995 106.388 838.762 105.346 835.533 104.241L833.914 108.971C837.199 110.096 840.494 111.158 843.802 112.148L845.236 107.358ZM825.934 100.772C822.764 99.5689 819.596 98.3128 816.429 97.012L814.529 101.637C817.734 102.953 820.944 104.226 824.16 105.447L825.934 100.772ZM807.002 93.0174C803.883 91.658 800.762 90.2634 797.637 88.8415L795.566 93.3926C798.712 94.8237 801.857 96.2293 805.004 97.601L807.002 93.0174ZM788.316 84.5341C785.223 83.0863 782.125 81.6199 779.019 80.1423L776.871 84.6576C779.983 86.1377 783.091 87.6087 786.195 89.0624L788.316 84.5341ZM769.727 75.7107C766.639 74.2367 763.54 72.759 760.43 71.2861L758.29 75.8049C761.393 77.2744 764.486 78.7493 767.573 80.223L769.727 75.7107ZM751.098 66.9047C747.984 65.4585 744.856 64.0237 741.712 62.6081L739.659 67.1672C742.782 68.5734 745.892 69.9998 748.991 71.4394L751.098 66.9047ZM732.257 58.4374C729.097 57.0745 725.918 55.7375 722.719 54.4341L720.832 59.0644C723.997 60.3539 727.144 61.6777 730.278 63.0287L732.257 58.4374ZM713.083 50.6399C709.86 49.4168 706.614 48.2339 703.344 47.0985L701.704 51.8218C704.926 52.9406 708.127 54.1072 711.31 55.3147L713.083 50.6399ZM693.495 43.8523C690.2 42.8262 686.88 41.854 683.532 40.9428L682.219 45.7673C685.506 46.6618 688.768 47.617 692.009 48.6261L693.495 43.8523ZM673.456 38.4112C670.09 37.6374 666.696 36.9301 663.271 36.2963L662.361 41.2128C665.713 41.8331 669.037 42.5257 672.335 43.2841L673.456 38.4112ZM652.986 34.6333C649.574 34.1622 646.131 33.7681 642.656 33.4573L642.21 38.4374C645.604 38.7409 648.967 39.1259 652.302 39.5863L652.986 34.6333ZM632.276 32.787C628.838 32.6509 625.368 32.5994 621.864 32.6383L621.92 37.638C625.337 37.6001 628.723 37.6503 632.078 37.7831L632.276 32.787ZM611.435 33.0205C608.006 33.234 604.546 33.5361 601.052 33.9319L601.615 38.9001C605.024 38.5138 608.401 38.2191 611.746 38.0109L611.435 33.0205ZM590.773 35.3559C587.395 35.9091 583.986 36.5511 580.545 37.2864L581.589 42.1761C584.952 41.4575 588.282 40.8304 591.581 40.2902L590.773 35.3559ZM570.358 39.7147C567.077 40.5774 563.768 41.5254 560.429 42.5622L561.912 47.3373C565.182 46.322 568.42 45.3941 571.629 44.5503L570.358 39.7147ZM550.577 45.8515C547.343 47.0063 544.081 48.2446 540.791 49.5695L542.658 54.2076C545.888 52.9071 549.087 51.6924 552.258 50.5603L550.577 45.8515ZM531.323 53.5876C528.199 54.9811 525.049 56.4526 521.873 58.0044L524.068 62.4968C527.193 60.9701 530.29 59.5233 533.36 58.1539L531.323 53.5876ZM512.664 62.6922C511.117 63.5111 509.564 64.3491 508.004 65.2064L510.413 69.5881C511.95 68.7433 513.48 67.9178 515.004 67.1112L512.664 62.6922ZM508.004 65.2064C506.501 66.0327 505.022 66.8588 503.567 67.6848L506.035 72.0332C507.47 71.2187 508.929 70.4037 510.413 69.5881L508.004 65.2064ZM495.117 72.6401C492.218 74.3986 489.424 76.1578 486.73 77.9191L489.467 82.1038C492.111 80.3749 494.857 78.6457 497.71 76.9151L495.117 72.6401ZM478.725 83.3695C475.921 85.3602 473.241 87.3553 470.68 89.3567L473.758 93.2965C476.256 91.3445 478.875 89.3951 481.62 87.4465L478.725 83.3695ZM463.055 95.6363C460.516 97.8451 458.113 100.064 455.842 102.295L459.346 105.862C461.542 103.705 463.87 101.554 466.336 99.4088L463.055 95.6363ZM448.964 109.534C446.703 112.093 444.603 114.671 442.653 117.27L446.653 120.27C448.52 117.781 450.536 115.307 452.711 112.845L448.964 109.534ZM437.024 125.499C435.241 128.374 433.627 131.277 432.168 134.212L436.646 136.436C438.034 133.642 439.573 130.876 441.274 128.134L437.024 125.499ZM428.161 143.355C426.967 146.478 425.93 149.638 425.037 152.837L429.853 154.182C430.706 151.127 431.695 148.114 432.832 145.141L428.161 143.355ZM422.774 162.552C422.161 165.793 421.675 169.076 421.3 172.404L426.269 172.963C426.63 169.75 427.099 166.591 427.687 163.481L422.774 162.552ZM420.512 182.282C420.353 185.526 420.282 188.814 420.289 192.151L425.289 192.141C425.282 188.881 425.351 185.678 425.506 182.528L420.512 182.282ZM420.515 201.997C420.651 205.223 420.846 208.496 421.09 211.819L426.076 211.453C425.836 208.176 425.644 204.954 425.51 201.785L420.515 201.997ZM421.927 221.628C422.237 224.839 422.581 228.097 422.952 231.404L427.921 230.846C427.552 227.56 427.211 224.329 426.904 221.149L421.927 221.628ZM424.092 241.08C424.482 244.265 424.89 247.498 425.309 250.777L430.268 250.144C429.85 246.869 429.444 243.646 429.055 240.472L424.092 241.08ZM426.562 260.519C426.97 263.687 427.383 266.898 427.795 270.156L432.755 269.528C432.342 266.264 431.929 263.048 431.521 259.88L426.562 260.519ZM428.995 279.821C429.385 283.028 429.769 286.278 430.143 289.574L435.111 289.009C434.735 285.699 434.349 282.436 433.959 279.219L428.995 279.821ZM431.191 299.183C431.524 302.377 431.844 305.614 432.149 308.893L437.127 308.431C436.821 305.131 436.499 301.877 436.164 298.665L431.191 299.183ZM432.989 318.597C433.244 321.782 433.482 325.006 433.699 328.271L438.688 327.94C438.469 324.651 438.23 321.404 437.973 318.198L432.989 318.597ZM434.276 338.049C434.44 341.225 434.583 344.439 434.701 347.692L439.698 347.51C439.579 344.231 439.435 340.992 439.27 337.791L434.276 338.049ZM434.98 357.509C435.044 360.68 435.084 363.888 435.097 367.132L440.097 367.112C440.084 363.84 440.043 360.605 439.979 357.408L434.98 357.509ZM435.054 376.947C435.014 380.121 434.947 383.329 434.851 386.572L439.849 386.719C439.945 383.448 440.013 380.212 440.054 377.011L435.054 376.947ZM434.477 396.394C434.329 399.56 434.153 402.758 433.947 405.99L438.937 406.307C439.144 403.047 439.322 399.821 439.471 396.628L434.477 396.394ZM433.24 415.787C432.984 418.95 432.699 422.144 432.384 425.371L437.36 425.857C437.678 422.603 437.965 419.38 438.223 416.19L433.24 415.787ZM431.351 435.098C430.987 438.27 430.593 441.473 430.168 444.706L435.126 445.357C435.554 442.097 435.951 438.867 436.318 435.668L431.351 435.098ZM428.823 454.334C428.35 457.524 427.847 460.744 427.312 463.994L432.246 464.807C432.785 461.53 433.292 458.283 433.769 455.066L428.823 454.334ZM425.672 473.496C425.094 476.691 424.486 479.914 423.846 483.166L428.752 484.132C429.397 480.855 430.01 477.606 430.592 474.385L425.672 473.496ZM421.916 492.595C421.248 495.738 420.55 498.907 419.821 502.103L424.696 503.215C425.43 499.995 426.133 496.802 426.807 493.635L421.916 492.595ZM417.57 511.652C416.819 514.736 416.039 517.844 415.23 520.976L420.071 522.227C420.886 519.072 421.671 515.941 422.428 512.835L417.57 511.652ZM412.713 530.448C412.278 532.039 411.836 533.636 411.386 535.239L416.2 536.59C416.653 534.976 417.098 533.367 417.536 531.765L412.713 530.448ZM411.386 535.239C410.916 536.911 410.442 538.571 409.961 540.22L414.761 541.619C415.247 539.954 415.726 538.278 416.2 536.59L411.386 535.239ZM407.01 549.976C406.004 553.183 404.975 556.346 403.925 559.464L408.663 561.06C409.725 557.908 410.764 554.713 411.78 551.473L407.01 549.976ZM400.548 569.137C399.391 572.335 398.21 575.484 397.007 578.585L401.668 580.394C402.885 577.256 404.079 574.072 405.249 570.839L400.548 569.137ZM393.248 587.938C391.931 591.106 390.588 594.221 389.222 597.285L393.788 599.321C395.172 596.219 396.531 593.064 397.865 589.858L393.248 587.938ZM385.044 606.341C383.557 609.456 382.044 612.516 380.507 615.52L384.958 617.798C386.516 614.752 388.049 611.651 389.556 608.495L385.044 606.341ZM375.821 624.37C374.173 627.378 372.499 630.328 370.801 633.221L375.113 635.753C376.836 632.817 378.535 629.823 380.206 626.772L375.821 624.37ZM365.582 641.81C363.764 644.7 361.921 647.529 360.054 650.3L364.199 653.095C366.097 650.28 367.969 647.406 369.814 644.472L365.582 641.81ZM354.292 658.553C352.297 661.313 350.276 664.01 348.231 666.647L352.182 669.711C354.262 667.03 356.316 664.287 358.344 661.482L354.292 658.553ZM341.928 674.491C339.75 677.106 337.547 679.656 335.321 682.144L339.047 685.478C341.313 682.946 343.554 680.351 345.77 677.69L341.928 674.491ZM328.487 689.51C326.128 691.962 323.744 694.349 321.337 696.672L324.81 700.269C327.26 697.904 329.688 695.474 332.09 692.977L328.487 689.51ZM313.996 703.5C311.46 705.772 308.902 707.978 306.322 710.119L309.515 713.966C312.143 711.785 314.75 709.538 317.333 707.224L313.996 703.5ZM298.477 716.386C295.785 718.454 293.074 720.456 290.343 722.394L293.238 726.471C296.019 724.497 298.781 722.457 301.523 720.35L298.477 716.386ZM282.023 728.069C279.196 729.92 276.352 731.707 273.492 733.432L276.075 737.714C278.987 735.957 281.883 734.137 284.762 732.252L282.023 728.069ZM264.75 738.488C261.803 740.121 258.841 741.692 255.868 743.204L258.133 747.661C261.159 746.123 264.173 744.524 267.173 742.862L264.75 738.488ZM246.771 747.627C243.708 749.05 240.635 750.413 237.553 751.719L239.504 756.323C242.637 754.995 245.762 753.609 248.878 752.161L246.771 747.627ZM228.203 755.499C225.044 756.716 221.879 757.876 218.709 758.981L220.356 763.703C223.575 762.58 226.79 761.401 230 760.165L228.203 755.499ZM209.136 762.155C205.908 763.171 202.677 764.134 199.447 765.046L200.806 769.857C204.082 768.932 207.36 767.956 210.637 766.925L209.136 762.155ZM189.676 767.655C186.399 768.481 183.127 769.257 179.86 769.988L180.951 774.867C184.26 774.127 187.577 773.34 190.897 772.503L189.676 767.655ZM169.944 772.07C166.616 772.725 163.296 773.334 159.989 773.902L160.835 778.83C164.181 778.256 167.54 777.639 170.909 776.976L169.944 772.07ZM150.021 775.495C146.653 775.994 143.301 776.452 139.967 776.873L140.593 781.834C143.961 781.409 147.349 780.945 150.754 780.441L150.021 775.495ZM129.897 778.041C126.52 778.399 123.165 778.721 119.836 779.011L120.271 783.992C123.629 783.699 127.014 783.374 130.424 783.013L129.897 778.041ZM109.721 779.805C106.307 780.044 102.925 780.252 99.5782 780.434L99.8502 785.427C103.221 785.244 106.629 785.033 110.07 784.792L109.721 779.805ZM89.452 780.915C86.0397 781.054 82.6705 781.169 79.3481 781.265L79.4928 786.263C82.8327 786.166 86.2216 786.05 89.6553 785.911L89.452 780.915ZM69.1703 781.508C65.7135 781.575 62.316 781.625 58.9828 781.665L59.0433 786.665C62.3857 786.625 65.7954 786.574 69.2664 786.507L69.1703 781.508ZM48.8036 781.765C45.3452 781.794 41.9122 781.818 38.6254 781.845L38.6663 786.844C41.9872 786.817 45.3441 786.794 48.8442 786.765L48.8036 781.765ZM28.4358 781.951C24.9045 781.999 21.4952 782.063 18.2197 782.153L18.3572 787.151C21.603 787.062 24.9882 786.999 28.5048 786.95L28.4358 781.951ZM7.9666 782.559C6.2436 782.653 4.56775 782.76 2.9413 782.883L3.3175 787.869C4.90504 787.749 6.54597 787.644 8.23867 787.552L7.9666 782.559Z" fill="white"/>
</svg>
