<svg width="36" height="36" viewBox="0 0 36 36" fill="none" xmlns="http://www.w3.org/2000/svg">
<path d="M11.167 4.39259C10.5868 4.39259 10.0304 4.5974 9.6202 4.96195C9.20996 5.32651 8.97949 5.82095 8.97949 6.33651C8.97949 6.85207 9.20996 7.34651 9.6202 7.71106C10.0304 8.07562 10.5868 8.28042 11.167 8.28042C11.7472 8.28042 12.3036 8.07562 12.7138 7.71106C13.124 7.34651 13.3545 6.85207 13.3545 6.33651C13.3545 5.82095 13.124 5.32651 12.7138 4.96195C12.3036 4.5974 11.7472 4.39259 11.167 4.39259ZM4.97637 4.39259C5.42831 3.25437 6.26642 2.26874 7.37518 1.57156C8.48394 0.87439 9.80874 0.5 11.167 0.5C12.5252 0.5 13.85 0.87439 14.9588 1.57156C16.0676 2.26874 16.9057 3.25437 17.3576 4.39259H33.042C33.6222 4.39259 34.1786 4.5974 34.5888 4.96195C34.999 5.32651 35.2295 5.82095 35.2295 6.33651C35.2295 6.85207 34.999 7.34651 34.5888 7.71106C34.1786 8.07562 33.6222 8.28042 33.042 8.28042H17.3576C16.9057 9.41865 16.0676 10.4043 14.9588 11.1015C13.85 11.7986 12.5252 12.173 11.167 12.173C9.80874 12.173 8.48394 11.7986 7.37518 11.1015C6.26642 10.4043 5.42831 9.41865 4.97637 8.28042H2.41699C1.83683 8.28042 1.28043 8.07562 0.870197 7.71106C0.459961 7.34651 0.229492 6.85207 0.229492 6.33651C0.229492 5.82095 0.459961 5.32651 0.870197 4.96195C1.28043 4.5974 1.83683 4.39259 2.41699 4.39259H4.97637ZM24.292 16.0561C23.7118 16.0561 23.1554 16.2609 22.7452 16.6254C22.335 16.99 22.1045 17.4844 22.1045 18C22.1045 18.5156 22.335 19.01 22.7452 19.3746C23.1554 19.7391 23.7118 19.9439 24.292 19.9439C24.8722 19.9439 25.4286 19.7391 25.8388 19.3746C26.249 19.01 26.4795 18.5156 26.4795 18C26.4795 17.4844 26.249 16.99 25.8388 16.6254C25.4286 16.2609 24.8722 16.0561 24.292 16.0561ZM18.1014 16.0561C18.5533 14.9179 19.3914 13.9322 20.5002 13.2351C21.6089 12.5379 22.9337 12.1635 24.292 12.1635C25.6502 12.1635 26.975 12.5379 28.0838 13.2351C29.1926 13.9322 30.0307 14.9179 30.4826 16.0561H33.042C33.6222 16.0561 34.1786 16.2609 34.5888 16.6254C34.999 16.99 35.2295 17.4844 35.2295 18C35.2295 18.5156 34.999 19.01 34.5888 19.3746C34.1786 19.7391 33.6222 19.9439 33.042 19.9439H30.4826C30.0307 21.0821 29.1926 22.0678 28.0838 22.7649C26.975 23.4621 25.6502 23.8365 24.292 23.8365C22.9337 23.8365 21.6089 23.4621 20.5002 22.7649C19.3914 22.0678 18.5533 21.0821 18.1014 19.9439H2.41699C1.83683 19.9439 1.28043 19.7391 0.870197 19.3746C0.459961 19.01 0.229492 18.5156 0.229492 18C0.229492 17.4844 0.459961 16.99 0.870197 16.6254C1.28043 16.2609 1.83683 16.0561 2.41699 16.0561H18.1014ZM11.167 27.7196C10.5868 27.7196 10.0304 27.9244 9.6202 28.2889C9.20996 28.6535 8.97949 29.1479 8.97949 29.6635C8.97949 30.179 9.20996 30.6735 9.6202 31.038C10.0304 31.4026 10.5868 31.6074 11.167 31.6074C11.7472 31.6074 12.3036 31.4026 12.7138 31.038C13.124 30.6735 13.3545 30.179 13.3545 29.6635C13.3545 29.1479 13.124 28.6535 12.7138 28.2889C12.3036 27.9244 11.7472 27.7196 11.167 27.7196ZM4.97637 27.7196C5.42831 26.5813 6.26642 25.5957 7.37518 24.8985C8.48394 24.2014 9.80874 23.827 11.167 23.827C12.5252 23.827 13.85 24.2014 14.9588 24.8985C16.0676 25.5957 16.9057 26.5813 17.3576 27.7196H33.042C33.6222 27.7196 34.1786 27.9244 34.5888 28.2889C34.999 28.6535 35.2295 29.1479 35.2295 29.6635C35.2295 30.179 34.999 30.6735 34.5888 31.038C34.1786 31.4026 33.6222 31.6074 33.042 31.6074H17.3576C16.9057 32.7456 16.0676 33.7313 14.9588 34.4284C13.85 35.1256 12.5252 35.5 11.167 35.5C9.80874 35.5 8.48394 35.1256 7.37518 34.4284C6.26642 33.7313 5.42831 32.7456 4.97637 31.6074H2.41699C1.83683 31.6074 1.28043 31.4026 0.870197 31.038C0.459961 30.6735 0.229492 30.179 0.229492 29.6635C0.229492 29.1479 0.459961 28.6535 0.870197 28.2889C1.28043 27.9244 1.83683 27.7196 2.41699 27.7196H4.97637Z" fill="white"/>
</svg>
