<svg width="213" height="277" viewBox="0 0 213 277" fill="none" xmlns="http://www.w3.org/2000/svg">
<path d="M-21.5639 166.286L-19.3793 165.071L-21.5639 166.286ZM128.564 172.964L128.288 175.448L128.564 172.964ZM191.514 276.121C192.426 277.157 194.005 277.258 195.042 276.346L211.932 261.481C212.968 260.568 213.069 258.989 212.157 257.952C211.245 256.916 209.665 256.815 208.629 257.727L193.615 270.941L180.402 255.927C179.489 254.891 177.91 254.79 176.873 255.702C175.837 256.615 175.736 258.194 176.648 259.231L191.514 276.121ZM-17.4215 2.94611C-18.7839 5.0423 -18.7841 5.0422 -18.7842 5.0421C-18.7842 5.04208 -18.7844 5.04199 -18.7845 5.04193C-18.7846 5.04182 -18.7848 5.04173 -18.7849 5.04164C-18.7852 5.04148 -18.7853 5.04136 -18.7854 5.04129C-18.7857 5.04116 -18.7856 5.04122 -18.7852 5.04148C-18.7844 5.042 -18.7824 5.04332 -18.7791 5.04542C-18.7727 5.04963 -18.7615 5.05701 -18.7457 5.06753C-18.714 5.08856 -18.6637 5.12217 -18.5958 5.1682C-18.46 5.26029 -18.2539 5.40204 -17.9857 5.59233C-17.4492 5.97301 -16.6649 6.54736 -15.6979 7.30631L-12.611 3.37299C-13.6468 2.56009 -14.496 1.93766 -15.0924 1.51454C-15.3906 1.30293 -15.6258 1.14102 -15.7896 1.02992C-15.8716 0.974359 -15.9357 0.931493 -15.9809 0.901453C-16.0036 0.886432 -16.0215 0.874617 -16.0346 0.866024C-16.0411 0.861728 -16.0465 0.858238 -16.0506 0.855554C-16.0526 0.854212 -16.0544 0.853072 -16.0558 0.852136C-16.0565 0.851665 -16.0572 0.851247 -16.0577 0.850879C-16.058 0.850697 -16.0583 0.850526 -16.0585 0.850369C-16.0586 0.850288 -16.0588 0.85018 -16.0589 0.850138C-16.059 0.850033 -16.0592 0.84993 -17.4215 2.94611ZM-9.75851 12.484C-8.03142 14.1469 -6.19142 16.0672 -4.36124 18.2271L-0.546521 14.9948C-2.49921 12.6903 -4.4574 10.6472 -6.29053 8.88215L-9.75851 12.484ZM0.372101 24.4863C1.78115 26.5938 3.10748 28.8474 4.2856 31.2372L8.77029 29.0265C7.48573 26.4206 6.04668 23.9777 4.52867 21.7073L0.372101 24.4863ZM7.18986 38.4218C7.95073 40.8226 8.53755 43.3281 8.90198 45.9322L13.8537 45.2393C13.4481 42.3406 12.7962 39.5618 11.9562 36.9112L7.18986 38.4218ZM9.29775 53.6019C9.2522 54.8634 9.15168 56.1456 8.99135 57.448L13.9539 58.0589C14.1319 56.6129 14.2438 55.187 14.2945 53.7823L9.29775 53.6019ZM8.99135 57.448C8.80508 58.9611 8.50863 60.48 8.11268 62.0076L12.9527 63.2621C13.3985 61.5422 13.7386 59.8079 13.9539 58.0589L8.99135 57.448ZM4.8182 70.8987C3.49609 73.714 1.93143 76.5516 0.198255 79.4275L4.48069 82.0083C6.27465 79.0316 7.92868 76.0379 9.34401 73.024L4.8182 70.8987ZM-5.11621 87.717C-6.93649 90.4355 -8.80908 93.1577 -10.7012 95.9428L-6.56543 98.7526C-4.69585 96.0008 -2.79354 93.2349 -0.961575 90.4989L-5.11621 87.717ZM-16.2443 104.308C-18.0613 107.157 -19.8148 110.055 -21.431 113.004L-17.0461 115.407C-15.4977 112.581 -13.805 109.782 -12.0288 106.997L-16.2443 104.308ZM-25.8811 122.221C-27.2005 125.426 -28.2944 128.706 -29.0747 132.069L-24.2042 133.199C-23.4944 130.141 -22.4907 127.119 -21.2576 124.124L-25.8811 122.221ZM-30.388 142.453C-30.4473 145.866 -30.1305 149.348 -29.3658 152.901L-24.4777 151.849C-25.1599 148.68 -25.4416 145.581 -25.3887 142.54L-30.388 142.453ZM-26.0831 162.844C-25.3949 164.387 -24.6182 165.939 -23.7485 167.502L-19.3793 165.071C-20.18 163.632 -20.8907 162.211 -21.5171 160.807L-26.0831 162.844ZM-23.7485 167.502C-22.8674 169.085 -21.9662 170.563 -21.0425 171.938L-16.8916 169.151C-17.7309 167.901 -18.5598 166.544 -19.3793 165.071L-23.7485 167.502ZM-14.1864 179.955C-11.3275 182.497 -8.27628 184.335 -5.00534 185.583L-3.22291 180.912C-5.91312 179.885 -8.44563 178.369 -10.8644 176.218L-14.1864 179.955ZM5.46253 187.671C8.75066 187.837 12.1927 187.639 15.7954 187.198L15.187 182.235C11.7771 182.653 8.63545 182.825 5.7147 182.678L5.46253 187.671ZM25.7934 185.523C28.9057 184.897 32.1595 184.173 35.5531 183.402L34.4464 178.526C31.0595 179.295 27.8557 180.008 24.8071 180.621L25.7934 185.523ZM45.2345 181.208C48.3402 180.517 51.5619 179.822 54.9104 179.151L53.9281 174.248C50.5338 174.929 47.2755 175.631 44.1482 176.328L45.2345 181.208ZM64.6107 177.36C67.745 176.835 70.9819 176.348 74.3269 175.918L73.6893 170.959C70.2754 171.398 66.9754 171.894 63.7845 172.429L64.6107 177.36ZM84.1261 174.865C87.2944 174.593 90.5534 174.379 93.9068 174.238L93.6967 169.243C90.2675 169.387 86.9357 169.605 83.6977 169.883L84.1261 174.865ZM103.748 174.044C106.94 174.052 110.212 174.129 113.568 174.285L113.8 169.291C110.37 169.131 107.025 169.052 103.76 169.044L103.748 174.044ZM123.357 174.953C124.982 175.099 126.626 175.264 128.288 175.448L128.84 170.479C127.142 170.29 125.464 170.122 123.803 169.973L123.357 174.953ZM128.288 175.448C129.799 175.616 131.277 175.8 132.721 176.001L133.409 171.048C131.918 170.841 130.395 170.651 128.84 170.479L128.288 175.448ZM141.351 177.463C144.327 178.066 147.141 178.745 149.8 179.495L151.156 174.682C148.371 173.897 145.435 173.188 142.343 172.562L141.351 177.463ZM158.078 182.235C160.906 183.325 163.519 184.508 165.933 185.771L168.251 181.341C165.659 179.985 162.872 178.725 159.876 177.57L158.078 182.235ZM173.248 190.252C175.666 191.984 177.821 193.817 179.739 195.733L183.272 192.195C181.157 190.083 178.794 188.074 176.16 186.187L173.248 190.252ZM185.172 202.216C186.819 204.585 188.204 207.045 189.361 209.571L193.907 207.488C192.632 204.706 191.102 201.986 189.278 199.362L185.172 202.216ZM192.258 217.573C193.02 220.339 193.573 223.152 193.956 225.983L198.911 225.314C198.502 222.285 197.907 219.25 197.078 216.245L192.258 217.573ZM194.633 234.606C194.712 237.545 194.651 240.463 194.494 243.329L199.487 243.602C199.65 240.624 199.715 237.567 199.631 234.471L194.633 234.606ZM193.743 252.079C193.397 255.142 192.992 258.08 192.594 260.853L197.543 261.564C197.944 258.774 198.357 255.778 198.711 252.64L193.743 252.079ZM191.347 269.741C191.146 271.368 190.985 272.902 190.895 274.31L195.885 274.628C195.966 273.358 196.114 271.932 196.309 270.357L191.347 269.741Z" fill="#6C757D"/>
</svg>
