<svg width="35" height="35" viewBox="0 0 35 35" fill="none" xmlns="http://www.w3.org/2000/svg">
<path d="M33.8688 12.3245L23.3764 10.7277L18.6861 0.770296C18.558 0.497669 18.3472 0.276971 18.0869 0.142821C17.434 -0.194718 16.6405 0.0865644 16.3141 0.770296L11.6237 10.7277L1.1314 12.3245C0.842131 12.3678 0.577654 12.5106 0.375163 12.7269C0.130363 12.9904 -0.00453293 13.3449 0.000116312 13.7125C0.00476556 14.0801 0.14858 14.4307 0.399958 14.6873L7.99129 22.4377L6.1978 33.3817C6.15574 33.6363 6.18265 33.8981 6.27546 34.1375C6.36827 34.3769 6.52328 34.5842 6.72291 34.7361C6.92253 34.8879 7.15879 34.9781 7.40489 34.9965C7.65099 35.0149 7.89708 34.9607 8.11526 34.84L17.5001 29.6731L26.8849 34.84C27.1411 34.9828 27.4387 35.0304 27.7238 34.9785C28.4428 34.8487 28.9263 34.1347 28.8024 33.3817L27.0089 22.4377L34.6002 14.6873C34.8068 14.4752 34.9432 14.1983 34.9845 13.8953C35.0961 13.1381 34.5919 12.437 33.8688 12.3245ZM23.8145 21.3472L25.3063 30.4477L17.5001 26.1549L9.69386 30.452L11.1857 21.3515L4.87128 14.9036L13.599 13.5751L17.5001 5.29677L21.4011 13.5751L30.1289 14.9036L23.8145 21.3472Z" fill="white"/>
</svg>
