<svg width="33" height="29" viewBox="0 0 33 29" fill="none" xmlns="http://www.w3.org/2000/svg">
<path d="M29.1331 3.55663C28.3883 2.81143 27.5039 2.22028 26.5305 1.81696C25.5571 1.41364 24.5138 1.20605 23.4602 1.20605C22.4066 1.20605 21.3633 1.41364 20.3899 1.81696C19.4165 2.22028 18.5322 2.81143 17.7873 3.55663L16.2415 5.10247L14.6956 3.55663C13.1911 2.05208 11.1505 1.20683 9.02272 1.20683C6.89496 1.20683 4.85435 2.05208 3.3498 3.55663C1.84525 5.06118 1 7.10179 1 9.22955C1 11.3573 1.84525 13.3979 3.3498 14.9025L4.89563 16.4483L16.2415 27.7941L27.5873 16.4483L29.1331 14.9025C29.8783 14.1576 30.4695 13.2732 30.8728 12.2999C31.2761 11.3265 31.4837 10.2832 31.4837 9.22955C31.4837 8.17592 31.2761 7.13262 30.8728 6.15924C30.4695 5.18586 29.8783 4.30149 29.1331 3.55663Z" stroke="white" stroke-width="2" stroke-linecap="round" stroke-linejoin="round"/>
</svg>
