<svg width="1393" height="802" viewBox="0 0 1393 802" fill="none" xmlns="http://www.w3.org/2000/svg">
<path d="M390.851 190.477L388.714 189.18L390.851 190.477ZM-60.4327 740.355L-62.5779 741.639L-60.4327 740.355ZM1002.9 473.616L1002.38 471.17L1002.9 473.616ZM1264.85 799.539C1265.25 800.858 1266.65 801.599 1267.97 801.194L1289.48 794.584C1290.8 794.179 1291.54 792.78 1291.13 791.46C1290.73 790.14 1289.33 789.399 1288.01 789.805L1268.89 795.68L1263.02 776.562C1262.61 775.243 1261.21 774.502 1259.89 774.907C1258.57 775.313 1257.83 776.711 1258.24 778.031L1264.85 799.539ZM291.923 2.82763C291.534 5.2972 291.534 5.2972 291.534 5.29719C291.534 5.29718 291.534 5.29716 291.534 5.29714C291.534 5.29716 291.534 5.29713 291.534 5.29714C291.534 5.29711 291.534 5.29714 291.534 5.29716C291.534 5.29721 291.535 5.2973 291.536 5.2975C291.538 5.29783 291.542 5.29846 291.547 5.2993C291.558 5.30105 291.576 5.30383 291.599 5.30766C291.646 5.31535 291.719 5.32726 291.816 5.34357C292.01 5.37615 292.302 5.42628 292.686 5.49516C293.455 5.63286 294.592 5.84547 296.048 6.14242L297.047 1.24316C295.549 0.937848 294.374 0.717851 293.568 0.573553C293.166 0.501408 292.856 0.448182 292.644 0.412664C292.539 0.39489 292.457 0.381555 292.402 0.37251C292.374 0.367987 292.352 0.36453 292.337 0.362105C292.33 0.360907 292.324 0.359981 292.32 0.359302C292.318 0.358948 292.316 0.358671 292.314 0.358469C292.314 0.358369 292.313 0.358266 292.313 0.358189C292.313 0.358151 292.312 0.358126 292.312 0.358115C292.312 0.358095 292.312 0.358061 292.312 0.358066C292.312 0.358036 292.312 0.358037 291.923 2.82763ZM305.088 8.20108C307.812 8.88135 310.865 9.6955 314.173 10.6583L315.57 5.85766C312.197 4.87546 309.081 4.04468 306.3 3.35009L305.088 8.20108ZM323.044 13.4231C325.887 14.3684 328.842 15.4095 331.876 16.5531L333.64 11.8747C330.541 10.7062 327.523 9.64324 324.622 8.67858L323.044 13.4231ZM340.56 20.0358C343.361 21.2291 346.198 22.5082 349.045 23.8777L351.212 19.3719C348.292 17.9674 345.386 16.657 342.52 15.4359L340.56 20.0358ZM357.337 28.1218C360.038 29.5929 362.727 31.1491 365.384 32.7942L368.016 28.5435C365.276 26.8462 362.506 25.2434 359.728 23.7306L357.337 28.1218ZM373.127 37.9251C375.641 39.7092 378.104 41.5815 380.495 43.5455L383.668 39.6813C381.18 37.6384 378.624 35.6951 376.02 33.8473L373.127 37.9251ZM387.406 49.6841C389.619 51.816 391.744 54.0408 393.761 56.362L397.535 53.082C395.415 50.6431 393.189 48.3115 390.875 46.083L387.406 49.6841ZM399.451 63.5849C401.214 66.0679 402.855 68.6481 404.357 71.3293L408.719 68.8852C407.126 66.0427 405.389 63.3124 403.528 60.6905L399.451 63.5849ZM408.376 79.5484C409.542 82.3211 410.564 85.192 411.427 88.1647L416.229 86.77C415.311 83.6096 414.224 80.5574 412.985 77.6106L408.376 79.5484ZM413.472 97.0792C413.974 100.021 414.326 103.056 414.516 106.187L419.507 105.884C419.306 102.575 418.933 99.3604 418.401 96.2387L413.472 97.0792ZM414.604 115.392C414.485 118.369 414.225 121.426 413.814 124.567L418.771 125.216C419.202 121.93 419.475 118.722 419.6 115.591L414.604 115.392ZM412.251 133.613C411.629 136.527 410.882 139.509 410.002 142.558L414.806 143.944C415.718 140.785 416.494 137.69 417.141 134.656L412.251 133.613ZM407.134 151.422C406.115 154.268 404.985 157.17 403.739 160.129L408.346 162.07C409.627 159.03 410.791 156.042 411.841 153.106L407.134 151.422ZM399.955 168.529C398.637 171.282 397.222 174.08 395.705 176.926L400.117 179.278C401.667 176.371 403.115 173.508 404.465 170.689L399.955 168.529ZM391.18 185.033C390.381 186.405 389.559 187.787 388.714 189.18L392.988 191.774C393.848 190.356 394.686 188.948 395.501 187.55L391.18 185.033ZM388.714 189.18C387.915 190.495 387.091 191.818 386.243 193.148L390.457 195.838C391.325 194.477 392.169 193.123 392.988 191.774L388.714 189.18ZM380.859 201.207C379.063 203.784 377.182 206.384 375.22 209.007L379.223 212.002C381.217 209.337 383.131 206.691 384.961 204.066L380.859 201.207ZM369.266 216.722C367.3 219.197 365.267 221.69 363.169 224.201L367.006 227.406C369.129 224.866 371.188 222.341 373.181 219.832L369.266 216.722ZM356.848 231.602C354.75 234.007 352.597 236.428 350.392 238.862L354.098 242.219C356.323 239.762 358.496 237.319 360.616 234.889L356.848 231.602ZM343.828 245.99C341.622 248.348 339.369 250.719 337.073 253.103L340.674 256.571C342.986 254.171 345.255 251.783 347.479 249.406L343.828 245.99ZM330.346 259.997C328.065 262.306 325.746 264.626 323.391 266.956L326.908 270.51C329.276 268.167 331.608 265.834 333.904 263.511L330.346 259.997ZM316.496 273.709C314.184 275.951 311.84 278.203 309.467 280.463L312.915 284.084C315.299 281.814 317.653 279.551 319.977 277.298L316.496 273.709ZM302.35 287.187C300.014 289.376 297.653 291.572 295.268 293.776L298.661 297.448C301.055 295.237 303.424 293.032 305.769 290.835L302.35 287.187ZM288.041 300.408C285.663 302.577 283.264 304.752 280.845 306.933L284.193 310.647C286.619 308.459 289.025 306.278 291.41 304.103L288.041 300.408ZM273.602 313.428C271.169 315.599 268.718 317.776 266.249 319.958L269.561 323.704C272.035 321.517 274.492 319.335 276.931 317.158L273.602 313.428ZM258.988 326.352C256.553 328.487 254.104 330.627 251.641 332.772L254.924 336.542C257.392 334.394 259.846 332.25 262.285 330.111L258.988 326.352ZM244.241 339.195C241.803 341.304 239.354 343.417 236.894 345.535L240.156 349.324C242.619 347.204 245.072 345.088 247.512 342.976L244.241 339.195ZM229.482 351.9C227.015 354.014 224.538 356.132 222.052 358.254L225.299 362.056C227.786 359.933 230.266 357.813 232.736 355.697L229.482 351.9ZM214.649 364.563C212.174 366.67 209.691 368.779 207.203 370.892L210.439 374.704C212.929 372.59 215.413 370.479 217.89 368.371L214.649 364.563ZM199.755 377.21C197.282 379.307 194.803 381.406 192.321 383.508L195.552 387.324C198.035 385.221 200.514 383.121 202.988 381.024L199.755 377.21ZM184.864 389.821C182.382 391.922 179.898 394.025 177.412 396.13L180.643 399.946C183.129 397.841 185.613 395.738 188.095 393.637L184.864 389.821ZM169.969 402.436C167.487 404.54 165.004 406.646 162.522 408.753L165.758 412.564C168.239 410.458 170.721 408.353 173.202 406.25L169.969 402.436ZM155.08 415.078C152.6 417.188 150.122 419.299 147.647 421.411L150.893 425.214C153.366 423.104 155.842 420.994 158.32 418.886L155.08 415.078ZM140.23 427.751C137.754 429.872 135.281 431.994 132.813 434.116L136.073 437.907C138.538 435.787 141.008 433.667 143.483 431.549L140.23 427.751ZM125.411 440.496C122.949 442.624 120.493 444.751 118.045 446.879L121.324 450.654C123.769 448.529 126.222 446.404 128.68 444.28L125.411 440.496ZM110.667 453.31C108.209 455.459 105.759 457.609 103.318 459.758L106.623 463.511C109.059 461.365 111.504 459.22 113.958 457.074L110.667 453.31ZM96.0255 466.205C93.5741 468.381 91.1334 470.556 88.7044 472.73L92.0394 476.456C94.4628 474.286 96.8982 472.116 99.3444 469.945L96.0255 466.205ZM81.4358 479.268C79.0255 481.446 76.6282 483.624 74.2451 485.8L77.6167 489.492C79.9933 487.322 82.3841 485.15 84.7884 482.977L81.4358 479.268ZM66.998 492.455C64.5968 494.674 62.2114 496.89 59.8432 499.105L63.2587 502.757C65.619 500.549 67.9967 498.34 70.3907 496.128L66.998 492.455ZM52.7587 505.776C50.3656 508.045 47.992 510.312 45.639 512.576L49.1061 516.179C51.4497 513.923 53.8144 511.665 56.1988 509.405L52.7587 505.776ZM38.6435 519.362C36.2998 521.654 33.9787 523.943 31.6817 526.23L35.2091 529.774C37.4952 527.498 39.8058 525.219 42.1395 522.936L38.6435 519.362ZM24.7492 533.197C22.4642 535.516 20.2055 537.832 17.9746 540.144L21.5728 543.616C23.7911 541.317 26.0376 539.013 28.3108 536.706L24.7492 533.197ZM11.1658 547.282C8.91168 549.673 6.68897 552.06 4.49944 554.443L8.18104 557.826C10.3556 555.46 12.564 553.088 14.8043 550.712L11.1658 547.282ZM-2.04382 561.662C-4.25804 564.139 -6.43435 566.611 -8.57086 569.078L-4.79153 572.352C-2.67259 569.905 -0.513378 567.452 1.68437 564.993L-2.04382 561.662ZM-14.8594 576.461C-17.0008 579.019 -19.0972 581.57 -21.1462 584.115L-17.2518 587.251C-15.2236 584.732 -13.1474 582.205 -11.0254 579.67L-14.8594 576.461ZM-27.1968 591.79C-29.2216 594.415 -31.193 597.032 -33.1091 599.642L-29.0789 602.601C-27.1872 600.025 -25.2394 597.439 -23.2376 594.843L-27.1968 591.79ZM-38.8337 607.654C-40.7184 610.368 -42.5396 613.073 -44.2944 615.768L-40.1043 618.497C-38.3778 615.845 -36.5843 613.181 -34.7266 610.505L-38.8337 607.654ZM-49.5614 624.161C-51.2714 626.995 -52.9039 629.817 -54.4554 632.627L-50.0784 635.044C-48.5593 632.293 -46.9591 629.526 -45.2805 626.745L-49.5614 624.161ZM-59.0701 641.435C-60.5481 644.421 -61.9292 647.393 -63.209 650.35L-58.6203 652.336C-57.3762 649.462 -56.0313 646.567 -54.5889 643.653L-59.0701 641.435ZM-66.8894 659.585C-68.0392 662.748 -69.0655 665.894 -69.9624 669.021L-65.1562 670.4C-64.2929 667.39 -63.3028 664.354 -62.1901 661.292L-66.8894 659.585ZM-72.3198 678.641C-72.9927 681.97 -73.5082 685.276 -73.8592 688.558L-68.8874 689.09C-68.5539 685.97 -68.0627 682.817 -67.4189 679.631L-72.3198 678.641ZM-74.4105 698.496C-74.4188 701.874 -74.2385 705.222 -73.8614 708.538L-68.8935 707.973C-69.248 704.855 -69.4184 701.7 -69.4106 698.509L-74.4105 698.496ZM-72.1262 718.411C-71.3462 721.661 -70.3616 724.873 -69.1655 728.046L-64.4869 726.283C-65.6093 723.305 -66.5326 720.292 -67.2643 717.244L-72.1262 718.411ZM-65.079 737.169C-64.2966 738.67 -63.4632 740.159 -62.5779 741.639L-58.2875 739.071C-59.1232 737.675 -59.9089 736.27 -60.6457 734.857L-65.079 737.169ZM-62.5779 741.639C-61.6598 743.173 -60.7126 744.663 -59.7363 746.109L-55.5919 743.312C-56.5164 741.943 -57.4149 740.529 -58.2875 739.071L-62.5779 741.639ZM-53.5293 754.267C-51.229 756.948 -48.8005 759.437 -46.2438 761.74L-42.8977 758.025C-45.2923 755.868 -47.5714 753.532 -49.735 751.011L-53.5293 754.267ZM-38.1181 768.141C-35.2665 770.097 -32.2873 771.863 -29.1817 773.446L-26.9112 768.991C-29.8282 767.504 -32.6208 765.848 -35.2901 764.018L-38.1181 768.141ZM-19.721 777.565C-16.5554 778.728 -13.2801 779.732 -9.89609 780.583L-8.67602 775.735C-11.8984 774.924 -15.005 773.971 -17.9972 772.872L-19.721 777.565ZM0.305877 782.644C3.56589 783.151 6.91488 783.539 10.3522 783.81L10.7458 778.826C7.42641 778.564 4.20313 778.19 1.07543 777.703L0.305877 782.644ZM20.6098 784.278C23.9272 784.324 27.3199 784.277 30.7876 784.139L30.5884 779.143C27.2048 779.278 23.9022 779.323 20.6802 779.278L20.6098 784.278ZM40.9303 783.497C44.2421 783.214 47.6176 782.857 51.0566 782.428L50.4387 777.467C47.0596 777.887 43.7483 778.237 40.5044 778.515L40.9303 783.497ZM61.0872 781.008C64.3584 780.491 67.6837 779.916 71.0631 779.285L70.1447 774.37C66.8088 774.993 63.5296 775.56 60.3071 776.069L61.0872 781.008ZM81.0524 777.289C84.2661 776.607 87.5259 775.879 90.832 775.105L89.6929 770.237C86.4187 771.003 83.1928 771.724 80.0147 772.398L81.0524 777.289ZM100.864 772.657C104.013 771.858 107.203 771.022 110.432 770.148L109.127 765.322C105.922 766.188 102.757 767.018 99.6343 767.811L100.864 772.657ZM120.239 767.421C123.435 766.508 126.669 765.562 129.939 764.584L128.507 759.794C125.255 760.766 122.041 761.706 118.866 762.613L120.239 767.421ZM139.506 761.666C142.729 760.665 145.988 759.634 149.281 758.575L147.751 753.815C144.472 754.869 141.229 755.895 138.022 756.892L139.506 761.666ZM158.765 755.481C161.91 754.441 165.085 753.377 168.291 752.289L166.685 747.554C163.49 748.638 160.327 749.698 157.194 750.734L158.765 755.481ZM178 748.958C181.098 747.884 184.224 746.789 187.377 745.675L185.711 740.961C182.567 742.072 179.45 743.163 176.362 744.234L178 748.958ZM196.84 742.303C200.021 741.16 203.23 739.999 206.465 738.819L204.753 734.122C201.524 735.299 198.323 736.458 195.149 737.598L196.84 742.303ZM215.828 735.384C218.933 734.238 222.063 733.076 225.217 731.899L223.469 727.214C220.32 728.389 217.196 729.549 214.096 730.693L215.828 735.384ZM234.752 728.322C237.87 727.147 241.012 725.958 244.176 724.756L242.4 720.082C239.24 721.283 236.102 722.47 232.988 723.644L234.752 728.322ZM253.487 721.205C256.613 720.009 259.76 718.8 262.929 717.58L261.133 712.914C257.967 714.133 254.823 715.34 251.7 716.535L253.487 721.205ZM272.475 713.895C275.534 712.712 278.611 711.518 281.709 710.314L279.898 705.654C276.802 706.857 273.726 708.05 270.671 709.232L272.475 713.895ZM291.061 706.673C294.198 705.45 297.355 704.217 300.532 702.974L298.711 698.318C295.536 699.56 292.38 700.792 289.245 702.015L291.061 706.673ZM309.933 699.294C313.004 698.091 316.093 696.88 319.2 695.661L317.374 691.006C314.267 692.225 311.179 693.436 308.109 694.639L309.933 699.294ZM328.575 691.98C331.718 690.746 334.88 689.504 338.059 688.255L336.231 683.601C333.051 684.85 329.89 686.092 326.748 687.326L328.575 691.98ZM347.391 684.59C350.47 683.38 353.565 682.165 356.677 680.943L354.85 676.289C351.738 677.511 348.642 678.726 345.563 679.936L347.391 684.59ZM366.063 677.261C369.209 676.028 372.371 674.789 375.549 673.545L373.726 668.889C370.547 670.134 367.384 671.373 364.238 672.606L366.063 677.261ZM384.875 669.898C387.959 668.693 391.058 667.483 394.173 666.269L392.357 661.61C389.241 662.825 386.141 664.035 383.056 665.24L384.875 669.898ZM403.562 662.614C406.707 661.391 409.867 660.164 413.043 658.933L411.236 654.271C408.058 655.502 404.896 656.73 401.75 657.953L403.562 662.614ZM422.417 655.305C425.503 654.113 428.604 652.917 431.718 651.718L429.922 647.052C426.805 648.251 423.703 649.448 420.615 650.641L422.417 655.305ZM441.105 648.111C444.248 646.906 447.406 645.697 450.577 644.486L448.793 639.815C445.62 641.027 442.46 642.236 439.315 643.442L441.105 648.111ZM460.042 640.879C463.13 639.706 466.23 638.529 469.344 637.351L467.575 632.675C464.458 633.854 461.355 635.031 458.266 636.206L460.042 640.879ZM478.725 633.81C481.866 632.627 485.019 631.443 488.186 630.257L486.432 625.574C483.262 626.762 480.106 627.947 476.963 629.13L478.725 633.81ZM497.726 626.693C500.83 625.536 503.948 624.378 507.078 623.218L505.341 618.529C502.208 619.69 499.088 620.849 495.98 622.007L497.726 626.693ZM516.451 619.756C519.588 618.6 522.737 617.444 525.898 616.286L524.18 611.591C521.015 612.75 517.863 613.907 514.723 615.064L516.451 619.756ZM535.42 612.811C538.582 611.661 541.756 610.51 544.943 609.359L543.243 604.656C540.054 605.809 536.876 606.961 533.711 608.113L535.42 612.811ZM554.307 605.986C557.44 604.861 560.584 603.736 563.741 602.61L562.061 597.901C558.902 599.027 555.754 600.154 552.617 601.28L554.307 605.986ZM573.244 599.234C576.424 598.108 579.615 596.983 582.817 595.857L581.16 591.14C577.953 592.267 574.759 593.394 571.576 594.52L573.244 599.234ZM592.315 592.532C595.444 591.44 598.584 590.349 601.735 589.258L600.099 584.533C596.944 585.626 593.801 586.718 590.668 587.811L592.315 592.532ZM611.22 585.988C614.393 584.898 617.576 583.809 620.771 582.72L619.158 577.987C615.96 579.077 612.772 580.168 609.596 581.259L611.22 585.988ZM630.388 579.457C633.548 578.389 636.718 577.322 639.899 576.257L638.31 571.516C635.125 572.583 631.951 573.651 628.787 574.72L630.388 579.457ZM649.367 573.097C652.533 572.045 655.709 570.995 658.896 569.945L657.332 565.196C654.141 566.247 650.96 567.299 647.79 568.353L649.367 573.097ZM668.487 566.8C671.695 565.753 674.913 564.707 678.141 563.663L676.602 558.906C673.37 559.952 670.148 560.999 666.936 562.047L668.487 566.8ZM687.7 560.586C690.86 559.573 694.029 558.562 697.209 557.553L695.696 552.787C692.512 553.798 689.338 554.81 686.174 555.824L687.7 560.586ZM706.776 554.53C709.974 553.524 713.183 552.521 716.401 551.518L714.915 546.744C711.692 547.748 708.479 548.753 705.276 549.76L706.776 554.53ZM726.085 548.518C729.288 547.531 732.5 546.546 735.722 545.563L734.263 540.781C731.037 541.765 727.82 542.752 724.613 543.74L726.085 548.518ZM745.265 542.666C748.456 541.703 751.655 540.742 754.864 539.783L753.433 534.992C750.219 535.952 747.015 536.915 743.82 537.88L745.265 542.666ZM764.519 536.913C767.746 535.959 770.983 535.007 774.229 534.058L772.826 529.259C769.575 530.21 766.333 531.163 763.101 532.118L764.519 536.913ZM783.969 531.226C787.151 530.306 790.342 529.388 793.541 528.473L792.167 523.666C788.962 524.582 785.767 525.501 782.58 526.423L783.969 531.226ZM803.167 525.737C806.384 524.827 809.61 523.92 812.845 523.017L811.5 518.201C808.26 519.106 805.029 520.014 801.807 520.925L803.167 525.737ZM822.576 520.314C825.829 519.416 829.09 518.521 832.36 517.629L831.044 512.805C827.769 513.698 824.503 514.595 821.245 515.494L822.576 520.314ZM842.039 515.005C845.246 514.14 848.462 513.279 851.686 512.421L850.4 507.589C847.171 508.449 843.951 509.311 840.738 510.177L842.039 515.005ZM861.384 509.857C864.624 509.005 867.874 508.157 871.131 507.312L869.876 502.472C866.613 503.318 863.359 504.168 860.113 505.021L861.384 509.857ZM880.929 504.787C884.198 503.95 887.475 503.116 890.761 502.286L889.536 497.439C886.245 498.27 882.963 499.105 879.689 499.943L880.929 504.787ZM900.424 499.862C903.654 499.057 906.891 498.256 910.136 497.458L908.943 492.603C905.692 493.402 902.45 494.204 899.215 495.01L900.424 499.862ZM919.896 495.076C923.157 494.285 926.427 493.498 929.704 492.715L928.542 487.852C925.259 488.636 921.985 489.424 918.718 490.216L919.896 495.076ZM939.56 490.377C942.826 489.608 946.1 488.843 949.382 488.081L948.252 483.21C944.965 483.973 941.685 484.74 938.414 485.51L939.56 490.377ZM959.104 485.842C962.352 485.1 965.608 484.361 968.872 483.626L967.773 478.749C964.505 479.484 961.243 480.224 957.99 480.968L959.104 485.842ZM978.685 481.434C981.964 480.708 985.25 479.985 988.544 479.266L987.478 474.381C984.179 475.101 980.887 475.825 977.603 476.553L978.685 481.434ZM998.449 477.123C1000.1 476.768 1001.76 476.414 1003.42 476.061L1002.38 471.17C1000.72 471.524 999.057 471.879 997.4 472.234L998.449 477.123ZM1003.42 476.061C1005.15 475.692 1006.88 475.327 1008.6 474.965L1007.57 470.072C1005.85 470.434 1004.12 470.801 1002.38 471.17L1003.42 476.061ZM1018.83 472.84C1022.21 472.147 1025.56 471.468 1028.89 470.804L1027.91 465.901C1024.57 466.567 1021.21 467.247 1017.82 467.942L1018.83 472.84ZM1038.78 468.857C1042.04 468.222 1045.28 467.602 1048.5 466.996L1047.57 462.083C1044.35 462.69 1041.1 463.312 1037.82 463.948L1038.78 468.857ZM1058.05 465.222C1061.52 464.588 1064.95 463.972 1068.35 463.372L1067.49 458.448C1064.07 459.05 1060.63 459.668 1057.15 460.304L1058.05 465.222ZM1078.56 461.608C1081.92 461.038 1085.26 460.484 1088.56 459.948L1087.76 455.012C1084.44 455.551 1081.1 456.106 1077.72 456.679L1078.56 461.608ZM1098.36 458.39C1101.59 457.887 1104.79 457.402 1107.96 456.933L1107.23 451.987C1104.05 452.457 1100.84 452.945 1097.59 453.449L1098.36 458.39ZM1118.29 455.448C1121.74 454.966 1125.16 454.504 1128.53 454.063L1127.88 449.105C1124.5 449.548 1121.07 450.012 1117.6 450.496L1118.29 455.448ZM1138.54 452.8C1141.83 452.399 1145.09 452.019 1148.3 451.658L1147.75 446.689C1144.51 447.052 1141.24 447.434 1137.93 447.837L1138.54 452.8ZM1158.21 450.596C1161.73 450.237 1165.2 449.903 1168.62 449.593L1168.17 444.613C1164.73 444.925 1161.24 445.261 1157.71 445.622L1158.21 450.596ZM1178.74 448.736C1182.07 448.475 1185.34 448.237 1188.57 448.023L1188.24 443.034C1184.99 443.249 1181.69 443.488 1178.35 443.752L1178.74 448.736ZM1198.48 447.433C1202.02 447.247 1205.5 447.09 1208.91 446.963L1208.73 441.966C1205.28 442.095 1201.78 442.253 1198.22 442.44L1198.48 447.433ZM1218.99 446.668C1222.29 446.598 1225.54 446.557 1228.72 446.545L1228.7 441.545C1225.49 441.557 1222.22 441.599 1218.89 441.669L1218.99 446.668ZM1239.02 446.604C1242.5 446.66 1245.9 446.751 1249.24 446.877L1249.43 441.88C1246.06 441.753 1242.61 441.661 1239.1 441.605L1239.02 446.604ZM1259.02 447.359C1262.48 447.57 1265.85 447.822 1269.14 448.112L1269.58 443.131C1266.24 442.837 1262.83 442.582 1259.33 442.368L1259.02 447.359ZM1279.29 449.161C1282.58 449.553 1285.78 449.988 1288.9 450.464L1289.65 445.521C1286.48 445.037 1283.22 444.595 1279.88 444.196L1279.29 449.161ZM1299.06 452.219C1302.41 452.869 1305.64 453.571 1308.77 454.324L1309.94 449.463C1306.74 448.692 1303.43 447.974 1300.01 447.311L1299.06 452.219ZM1318.38 456.894C1321.7 457.879 1324.88 458.927 1327.93 460.036L1329.64 455.338C1326.49 454.192 1323.21 453.112 1319.8 452.1L1318.38 456.894ZM1337.04 463.716C1340.19 465.122 1343.17 466.603 1345.98 468.155L1348.39 463.778C1345.45 462.155 1342.35 460.611 1339.08 459.151L1337.04 463.716ZM1354.36 473.325C1357.13 475.228 1359.69 477.216 1362.07 479.282L1365.35 475.509C1362.82 473.315 1360.11 471.213 1357.2 469.207L1354.36 473.325ZM1369.1 486.223C1371.29 488.695 1373.27 491.259 1375.04 493.909L1379.19 491.131C1377.3 488.29 1375.18 485.545 1372.83 482.903L1369.1 486.223ZM1379.87 502.382C1381.29 505.319 1382.49 508.346 1383.5 511.458L1388.26 509.916C1387.18 506.597 1385.89 503.36 1384.38 500.214L1379.87 502.382ZM1385.93 520.944C1386.55 524.144 1386.99 527.421 1387.26 530.768L1392.25 530.362C1391.96 526.844 1391.5 523.387 1390.84 519.998L1385.93 520.944ZM1387.59 540.591C1387.56 543.842 1387.38 547.149 1387.08 550.505L1392.06 550.957C1392.37 547.478 1392.55 544.039 1392.59 540.647L1387.59 540.591ZM1385.82 560.461C1385.31 563.67 1384.7 566.917 1383.98 570.198L1388.87 571.262C1389.6 567.895 1390.24 564.556 1390.76 561.247L1385.82 560.461ZM1381.59 579.983C1380.74 583.155 1379.8 586.352 1378.79 589.57L1383.56 591.071C1384.59 587.791 1385.55 584.527 1386.42 581.284L1381.59 579.983ZM1375.59 599.11C1374.48 602.238 1373.31 605.382 1372.07 608.538L1376.73 610.358C1377.98 607.156 1379.17 603.963 1380.3 600.783L1375.59 599.11ZM1368.28 617.854C1366.98 620.931 1365.63 624.016 1364.23 627.104L1368.79 629.163C1370.2 626.04 1371.57 622.918 1372.88 619.801L1368.28 617.854ZM1359.99 636.233C1358.54 639.26 1357.06 642.287 1355.54 645.311L1360.01 647.553C1361.54 644.501 1363.04 641.446 1364.5 638.389L1359.99 636.233ZM1350.94 654.288C1349.38 657.268 1347.8 660.242 1346.19 663.209L1350.58 665.592C1352.2 662.604 1353.8 659.608 1355.37 656.604L1350.94 654.288ZM1341.31 672.063C1339.67 675.003 1338 677.932 1336.33 680.847L1340.66 683.339C1342.35 680.408 1344.02 677.462 1345.67 674.504L1341.31 672.063ZM1331.23 689.606C1329.52 692.513 1327.8 695.402 1326.07 698.272L1330.36 700.847C1332.09 697.966 1333.82 695.063 1335.54 692.143L1331.23 689.606ZM1320.8 706.964C1319.04 709.844 1317.28 712.699 1315.53 715.527L1319.78 718.162C1321.54 715.326 1323.3 712.461 1325.07 709.572L1320.8 706.964ZM1310.13 724.186C1308.33 727.059 1306.54 729.899 1304.77 732.703L1309 735.374C1310.77 732.566 1312.56 729.721 1314.37 726.842L1310.13 724.186ZM1299.31 741.324C1297.49 744.186 1295.64 747.097 1293.89 749.866L1298.11 752.544C1299.9 749.715 1301.67 746.929 1303.53 744.003L1299.31 741.324ZM1288.47 758.426C1286.6 761.378 1284.79 764.266 1283.03 767.084L1287.27 769.73C1289.02 766.922 1290.83 764.042 1292.69 761.095L1288.47 758.426ZM1277.75 775.636C1275.9 778.657 1274.14 781.582 1272.48 784.403L1276.79 786.942C1278.43 784.148 1280.18 781.246 1282.01 778.243L1277.75 775.636ZM1267.36 793.332C1266.55 794.802 1265.77 796.236 1265.03 797.634L1269.45 799.975C1270.17 798.608 1270.93 797.201 1271.73 795.755L1267.36 793.332Z" fill="#6C757D"/>
</svg>
