<svg width="50" height="40" viewBox="0 0 50 40" fill="none" xmlns="http://www.w3.org/2000/svg">
<path d="M29.5926 24.9945C30.641 23.8421 31.2202 22.3392 31.2165 20.7813C31.2165 17.327 28.4319 14.5313 25 14.5313C21.5681 14.5313 18.7835 17.327 18.7835 20.7813C18.7835 22.4052 19.3973 23.8784 20.4074 24.9945C19.1971 25.7444 18.1864 26.7761 17.4615 28.0015C16.7366 29.2269 16.319 30.6095 16.2444 32.0313C16.2414 32.0918 16.2507 32.1522 16.2718 32.209C16.2929 32.2658 16.3253 32.3176 16.367 32.3615C16.4088 32.4053 16.459 32.4402 16.5147 32.4641C16.5704 32.4879 16.6303 32.5001 16.6908 32.5H19.1406C19.375 32.5 19.5647 32.3159 19.5815 32.0815C19.7935 29.2578 22.1484 27.0313 25.0056 27.0313C27.8627 27.0313 30.2176 29.2634 30.4297 32.0815C30.4464 32.3159 30.6362 32.5 30.8705 32.5H33.3147C33.3753 32.5001 33.4352 32.4879 33.4909 32.4641C33.5466 32.4402 33.5968 32.4053 33.6386 32.3615C33.6803 32.3176 33.7127 32.2658 33.7338 32.209C33.7549 32.1522 33.7642 32.0918 33.7612 32.0313C33.6049 29.057 31.9754 26.4677 29.5926 24.9945ZM25 23.6831C23.4096 23.6831 22.115 22.3828 22.115 20.7813C22.115 19.1797 23.4096 17.8795 25 17.8795C26.5904 17.8795 27.885 19.1797 27.885 20.7813C27.885 22.3828 26.5904 23.6831 25 23.6831ZM48.2143 3.92861H39.2857V0.803606C39.2857 0.558071 39.0848 0.357178 38.8393 0.357178H35.7143C35.4688 0.357178 35.2679 0.558071 35.2679 0.803606V3.92861H27.0089V0.803606C27.0089 0.558071 26.808 0.357178 26.5625 0.357178H23.4375C23.192 0.357178 22.9911 0.558071 22.9911 0.803606V3.92861H14.7321V0.803606C14.7321 0.558071 14.5312 0.357178 14.2857 0.357178H11.1607C10.9152 0.357178 10.7143 0.558071 10.7143 0.803606V3.92861H1.78571C0.797991 3.92861 0 4.7266 0 5.71432V37.8572C0 38.8449 0.797991 39.6429 1.78571 39.6429H48.2143C49.202 39.6429 50 38.8449 50 37.8572V5.71432C50 4.7266 49.202 3.92861 48.2143 3.92861ZM45.9821 35.625H4.01786V7.94646H10.7143V11.0715C10.7143 11.317 10.9152 11.5179 11.1607 11.5179H14.2857C14.5312 11.5179 14.7321 11.317 14.7321 11.0715V7.94646H22.9911V11.0715C22.9911 11.317 23.192 11.5179 23.4375 11.5179H26.5625C26.808 11.5179 27.0089 11.317 27.0089 11.0715V7.94646H35.2679V11.0715C35.2679 11.317 35.4688 11.5179 35.7143 11.5179H38.8393C39.0848 11.5179 39.2857 11.317 39.2857 11.0715V7.94646H45.9821V35.625Z" fill="white"/>
</svg>
