<svg width="46" height="46" viewBox="0 0 46 46" fill="none" xmlns="http://www.w3.org/2000/svg">
<path d="M43.865 24.211C44.8025 22.9722 45.3214 21.4544 45.3214 19.8751C45.3214 17.3695 43.9208 14.9979 41.6663 13.6753C41.0859 13.3349 40.4251 13.1557 39.7522 13.1564H26.3705L26.7054 6.2981C26.7835 4.64074 26.1975 3.06708 25.0592 1.8673C24.5005 1.27594 23.8265 0.805429 23.0788 0.48485C22.3311 0.164271 21.5256 0.000432403 20.7121 0.00345915C17.8103 0.00345915 15.2433 1.95658 14.4732 4.75234L9.67969 22.1073H2.46429C1.47656 22.1073 0.678574 22.9052 0.678574 23.893V44.2055C0.678574 45.1932 1.47656 45.9912 2.46429 45.9912H36.019C36.5324 45.9912 37.0346 45.8907 37.4978 45.6898C40.154 44.557 41.8672 41.9622 41.8672 39.0827C41.8672 38.3796 41.7667 37.6876 41.5659 37.018C42.5034 35.7791 43.0223 34.2613 43.0223 32.682C43.0223 31.9789 42.9219 31.2869 42.721 30.6173C43.6585 29.3785 44.1775 27.8606 44.1775 26.2814C44.1663 25.5782 44.0659 24.8807 43.865 24.211ZM4.69643 41.9733V26.1251H9.21652V41.9733H4.69643ZM40.2098 22.2747L38.9877 23.3349L39.7634 24.7523C40.0189 25.2193 40.1515 25.7435 40.1484 26.2758C40.1484 27.1965 39.7467 28.0727 39.0547 28.6753L37.8326 29.7356L38.6083 31.153C38.8638 31.6199 38.9963 32.1442 38.9933 32.6764C38.9933 33.5972 38.5915 34.4733 37.8996 35.076L36.6775 36.1363L37.4531 37.5537C37.7087 38.0206 37.8412 38.5449 37.8382 39.0771C37.8382 40.3271 37.1016 41.4543 35.9632 41.9677H12.7879V25.9465L18.3404 5.82935C18.4836 5.31373 18.7909 4.85883 19.2159 4.53357C19.6408 4.20832 20.1602 4.03044 20.6953 4.0269C21.1194 4.0269 21.5379 4.14966 21.8728 4.40078C22.4252 4.81373 22.721 5.43873 22.6875 6.10279L22.1518 17.1742H39.6964C40.6897 17.7825 41.3036 18.8093 41.3036 19.8751C41.3036 20.7959 40.9018 21.6664 40.2098 22.2747Z" fill="white"/>
</svg>
