<svg width="36" height="36" viewBox="0 0 36 36" fill="none" xmlns="http://www.w3.org/2000/svg">
<path d="M24.2918 18.0002V8.521C24.2918 4.89663 21.3537 1.9585 17.7293 1.9585C14.1049 1.9585 11.1668 4.89663 11.1668 8.521V18.0002C11.1668 21.6246 14.1049 24.5627 17.7293 24.5627C21.3537 24.5627 24.2918 21.6246 24.2918 18.0002Z" fill="white"/>
<path d="M6.79183 15.8127C7.59724 15.8127 8.25016 16.4656 8.25016 17.271C8.25016 22.5062 12.4941 26.7502 17.7293 26.7502C22.9646 26.7502 27.2085 22.5062 27.2085 17.271C27.2085 16.4656 27.8614 15.8127 28.6668 15.8127C29.4722 15.8127 30.1252 16.4656 30.1252 17.271C30.1252 23.6237 25.3465 28.8602 19.1877 29.582V32.5835C19.1877 33.3889 18.5347 34.0418 17.7293 34.0418C16.9239 34.0418 16.271 33.3889 16.271 32.5835V29.582C10.1122 28.8602 5.3335 23.6237 5.3335 17.271C5.3335 16.4656 5.98641 15.8127 6.79183 15.8127Z" fill="white"/>
</svg>
