<svg width="30" height="30" viewBox="0 0 30 30" fill="none" xmlns="http://www.w3.org/2000/svg">
<path d="M5.36089 11.1431H4.1356C4.02194 11.1431 3.91293 11.1882 3.83256 11.2686C3.75218 11.349 3.70703 11.458 3.70703 11.5716C3.70703 11.6853 3.75218 11.7943 3.83256 11.8747C3.91293 11.9551 4.02194 12.0002 4.1356 12.0002H5.36046C5.47412 12.0002 5.58313 11.9551 5.66351 11.8747C5.74388 11.7943 5.78903 11.6853 5.78903 11.5716C5.78903 11.458 5.74388 11.349 5.66351 11.2686C5.58313 11.1882 5.47455 11.1431 5.36089 11.1431ZM8.2996 11.5716C8.2996 11.6853 8.34476 11.7943 8.42513 11.8747C8.5055 11.9551 8.61451 12.0002 8.72817 12.0002H9.95303C10.0667 12.0002 10.1757 11.9551 10.2561 11.8747C10.3365 11.7943 10.3816 11.6853 10.3816 11.5716C10.3816 11.458 10.3365 11.349 10.2561 11.2686C10.1757 11.1882 10.0667 11.1431 9.95303 11.1431H8.72817C8.61451 11.1431 8.5055 11.1882 8.42513 11.2686C8.34476 11.349 8.2996 11.458 8.2996 11.5716Z" fill="white"/>
<path d="M27.8571 1.28564H9.85707C9.38436 1.28564 8.99993 1.67007 8.99993 2.14279V8.99993H2.14279C1.67007 8.99993 1.28564 9.38436 1.28564 9.85707V27.8571C1.28564 28.3298 1.67007 28.7142 2.14279 28.7142H20.1428C20.6155 28.7142 20.9999 28.3298 20.9999 27.8571V20.9999H27.8571C28.3298 20.9999 28.7142 20.6155 28.7142 20.1428V2.14279C28.7142 1.67007 28.3298 1.28564 27.8571 1.28564ZM20.1428 27.8571H2.14279V14.1428H20.1428V27.8571ZM20.1428 13.2856H2.14279V9.85707H9.43022L20.1428 9.85579V13.2856ZM27.8571 20.1428H20.9999V9.85707C20.9999 9.38436 20.6155 8.99993 20.1428 8.99993H9.85707V6.4285H27.8571V20.1428ZM27.8571 5.57136H9.85707V2.14279H27.8571V5.57136Z" fill="white"/>
<path d="M11.8505 4.28585H13.0754C13.1891 4.28585 13.2981 4.2407 13.3784 4.16033C13.4588 4.07996 13.504 3.97095 13.504 3.85728C13.504 3.74362 13.4588 3.63461 13.3784 3.55424C13.2981 3.47386 13.1891 3.42871 13.0754 3.42871H11.8501C11.7365 3.42871 11.6274 3.47386 11.5471 3.55424C11.4667 3.63461 11.4215 3.74362 11.4215 3.85728C11.4215 3.97095 11.4667 4.07996 11.5471 4.16033C11.6274 4.2407 11.7369 4.28585 11.8505 4.28585ZM16.4427 4.28585H17.6675C17.7812 4.28585 17.8902 4.2407 17.9706 4.16033C18.051 4.07996 18.0961 3.97095 18.0961 3.85728C18.0961 3.74362 18.051 3.63461 17.9706 3.55424C17.8902 3.47386 17.7812 3.42871 17.6675 3.42871H16.4427C16.329 3.42871 16.22 3.47386 16.1396 3.55424C16.0593 3.63461 16.0141 3.74362 16.0141 3.85728C16.0141 3.97095 16.0593 4.07996 16.1396 4.16033C16.22 4.2407 16.329 4.28585 16.4427 4.28585ZM7.4114 23.8746C7.45111 23.9145 7.49832 23.9462 7.55032 23.9678C7.60232 23.9895 7.65809 24.0006 7.7144 24.0006C7.77072 24.0006 7.82648 23.9895 7.87848 23.9678C7.93048 23.9462 7.9777 23.9145 8.0174 23.8746C8.09775 23.7942 8.14288 23.6852 8.14288 23.5716C8.14288 23.4579 8.09775 23.3489 8.0174 23.2686L6.17755 21.4287L8.0174 19.5889C8.05834 19.5493 8.09099 19.502 8.11345 19.4497C8.13591 19.3975 8.14773 19.3412 8.14823 19.2843C8.14872 19.2274 8.13788 19.171 8.11633 19.1183C8.09478 19.0656 8.06296 19.0178 8.02272 18.9775C7.98248 18.9373 7.93462 18.9055 7.88195 18.8839C7.82928 18.8624 7.77285 18.8515 7.71595 18.852C7.65904 18.8525 7.6028 18.8643 7.55052 18.8868C7.49823 18.9093 7.45094 18.9419 7.4114 18.9829L5.26855 21.1257C5.1882 21.2061 5.14307 21.3151 5.14307 21.4287C5.14307 21.5424 5.1882 21.6513 5.26855 21.7317L7.4114 23.8746ZM14.2685 23.8746C14.3083 23.9145 14.3555 23.9462 14.4075 23.9678C14.4595 23.9895 14.5152 24.0006 14.5715 24.0006C14.6279 24.0006 14.6836 23.9895 14.7356 23.9678C14.7876 23.9462 14.8348 23.9145 14.8745 23.8746L17.0174 21.7317C17.0977 21.6513 17.1429 21.5424 17.1429 21.4287C17.1429 21.3151 17.0977 21.2061 17.0174 21.1257L14.8745 18.9829C14.835 18.9419 14.7877 18.9093 14.7354 18.8868C14.6831 18.8643 14.6269 18.8525 14.57 18.852C14.5131 18.8515 14.4567 18.8624 14.404 18.8839C14.3513 18.9055 14.3035 18.9373 14.2632 18.9775C14.223 19.0178 14.1912 19.0656 14.1696 19.1183C14.1481 19.171 14.1372 19.2274 14.1377 19.2843C14.1382 19.3412 14.15 19.3975 14.1725 19.4497C14.195 19.502 14.2276 19.5493 14.2685 19.5889L16.1084 21.4287L14.2685 23.2686C14.1882 23.3489 14.1431 23.4579 14.1431 23.5716C14.1431 23.6852 14.1882 23.7942 14.2685 23.8746ZM9.03912 26.1409C9.09044 26.1639 9.1458 26.1766 9.20204 26.1782C9.25828 26.1799 9.31429 26.1704 9.36687 26.1504C9.41945 26.1304 9.46756 26.1002 9.50847 26.0616C9.54937 26.0229 9.58226 25.9766 9.60526 25.9253L13.4624 17.3183C13.4854 17.267 13.4981 17.2116 13.4997 17.1554C13.5014 17.0991 13.4919 17.0431 13.4719 16.9906C13.4519 16.938 13.4217 16.8899 13.3831 16.849C13.3445 16.8081 13.2982 16.7752 13.2468 16.7521C13.1955 16.7291 13.1401 16.7164 13.0839 16.7148C13.0277 16.7132 12.9717 16.7227 12.9191 16.7427C12.8665 16.7627 12.8184 16.7929 12.7775 16.8315C12.7366 16.8701 12.7037 16.9164 12.6807 16.9677L8.82355 25.5747C8.8005 25.626 8.78779 25.6814 8.78615 25.7376C8.78451 25.7939 8.79397 25.8499 8.814 25.9025C8.83402 25.955 8.8642 26.0032 8.90283 26.0441C8.94146 26.085 8.98777 26.1179 9.03912 26.1409Z" fill="white"/>
</svg>
