<svg width="35" height="35" viewBox="0 0 35 35" fill="none" xmlns="http://www.w3.org/2000/svg">
<path d="M9.92147 10.8299C9.93515 10.8904 9.96898 10.9444 10.0174 10.9831C10.0658 11.0218 10.126 11.043 10.188 11.043C10.2083 11.0431 10.2285 11.0407 10.2483 11.0361C10.2834 11.0282 10.3165 11.0135 10.3458 10.9928C10.3752 10.9721 10.4002 10.9458 10.4194 10.9155C10.4386 10.8851 10.4516 10.8513 10.4577 10.8159C10.4638 10.7805 10.4629 10.7443 10.455 10.7092L10.2144 9.64324C10.1982 9.57273 10.1546 9.51154 10.0934 9.47304C10.0321 9.43455 9.9581 9.4219 9.88753 9.43787C9.81696 9.45383 9.75559 9.49711 9.71686 9.55822C9.67813 9.61934 9.66519 9.69331 9.68088 9.76394L9.92147 10.8299ZM8.64027 13.0778L9.18714 13.6246C9.21252 13.65 9.24266 13.6702 9.27583 13.6839C9.30901 13.6977 9.34456 13.7048 9.38047 13.7048H10.2918C10.3278 13.7048 10.3633 13.6977 10.3965 13.684C10.4297 13.6702 10.4598 13.6501 10.4852 13.6247C10.5106 13.5993 10.5308 13.5692 10.5445 13.536C10.5582 13.5028 10.5653 13.4672 10.5653 13.4313V12.3376C10.5653 12.3016 10.5582 12.2661 10.5445 12.2329C10.5308 12.1997 10.5106 12.1696 10.4852 12.1442C10.4598 12.1188 10.4297 12.0986 10.3965 12.0849C10.3633 12.0712 10.3278 12.0641 10.2918 12.0641H9.38047C9.34456 12.0641 9.30901 12.0712 9.27584 12.0849C9.24266 12.0987 9.21252 12.1188 9.18714 12.1442L8.64027 12.6911C8.61487 12.7165 8.59472 12.7466 8.58098 12.7798C8.56723 12.813 8.56016 12.8485 8.56016 12.8844C8.56016 12.9203 8.56723 12.9559 8.58098 12.9891C8.59472 13.0222 8.61487 13.0524 8.64027 13.0778ZM9.49369 12.611H10.0184V13.1579H9.49369L9.22025 12.8844L9.49369 12.611ZM8.29794 13.418C8.24558 13.3686 8.17632 13.3411 8.10434 13.3411C8.03236 13.3411 7.96311 13.3686 7.91075 13.418L7.36387 13.9659C7.31275 14.0173 7.28405 14.0868 7.28403 14.1593V15.072C7.28401 15.1079 7.29107 15.1434 7.3048 15.1766C7.31854 15.2098 7.33868 15.24 7.36407 15.2654C7.38947 15.2907 7.41962 15.3109 7.4528 15.3246C7.48599 15.3384 7.52155 15.3454 7.55747 15.3454H8.65122C8.68713 15.3454 8.7227 15.3384 8.75588 15.3246C8.78907 15.3109 8.81922 15.2907 8.84461 15.2654C8.87001 15.24 8.89015 15.2098 8.90388 15.1766C8.91762 15.1434 8.92468 15.1079 8.92466 15.072V14.1592C8.92464 14.0868 8.89593 14.0173 8.84481 13.9659L8.29794 13.418ZM8.37778 14.7985H7.83091V14.2725L8.10434 13.9985L8.37778 14.2725V14.7985ZM7.91075 12.3514C7.96212 12.4027 8.03175 12.4316 8.10434 12.4316C8.17694 12.4316 8.24657 12.4027 8.29794 12.3514L8.84481 11.8035C8.89593 11.7521 8.92464 11.6826 8.92466 11.6102V10.6969C8.92468 10.661 8.91762 10.6255 8.90388 10.5923C8.89015 10.5591 8.87001 10.5289 8.84461 10.5035C8.81922 10.4781 8.78907 10.458 8.75588 10.4443C8.7227 10.4305 8.68713 10.4235 8.65122 10.4235H7.55747C7.52155 10.4235 7.48599 10.4305 7.4528 10.4443C7.41962 10.458 7.38947 10.4781 7.36407 10.5035C7.33868 10.5289 7.31854 10.5591 7.3048 10.5923C7.29107 10.6255 7.28401 10.661 7.28403 10.6969V11.6102C7.28405 11.6826 7.31275 11.7521 7.36387 11.8035L7.91075 12.3514ZM7.83091 10.9704H8.37778V11.497L8.10434 11.7709L7.83091 11.497V10.9704ZM5.91684 13.7048H6.82848C6.86439 13.7048 6.89995 13.6977 6.93312 13.6839C6.96629 13.6702 6.99643 13.65 7.02181 13.6246L7.56869 13.0778C7.59408 13.0524 7.61423 13.0222 7.62797 12.9891C7.64171 12.9559 7.64879 12.9203 7.64879 12.8844C7.64879 12.8485 7.64171 12.813 7.62797 12.7798C7.61423 12.7466 7.59408 12.7165 7.56869 12.6911L7.02181 12.1442C6.99643 12.1188 6.96629 12.0987 6.93312 12.085C6.89995 12.0712 6.86439 12.0641 6.82848 12.0641H5.91684C5.88093 12.0641 5.84536 12.0712 5.81218 12.0849C5.77899 12.0986 5.74884 12.1188 5.72345 12.1442C5.69805 12.1696 5.67791 12.1997 5.66418 12.2329C5.65044 12.2661 5.64338 12.3017 5.64341 12.3376V13.4313C5.64339 13.4672 5.65045 13.5028 5.66418 13.536C5.67792 13.5692 5.69806 13.5993 5.72345 13.6247C5.74885 13.6501 5.779 13.6702 5.81218 13.684C5.84537 13.6977 5.88093 13.7048 5.91684 13.7048ZM6.19028 12.611H6.71528L6.98872 12.8844L6.71528 13.1579H6.19028V12.611ZM26.7969 14.1165C26.6076 14.1165 26.4226 14.1726 26.2652 14.2778C26.1078 14.383 25.9851 14.5324 25.9127 14.7073C25.8403 14.8822 25.8213 15.0746 25.8582 15.2602C25.8952 15.4459 25.9863 15.6164 26.1202 15.7503C26.254 15.8841 26.4245 15.9753 26.6102 16.0122C26.7958 16.0491 26.9883 16.0302 27.1631 15.9577C27.338 15.8853 27.4875 15.7626 27.5926 15.6052C27.6978 15.4479 27.7539 15.2628 27.7539 15.0735C27.7536 14.8198 27.6527 14.5766 27.4733 14.3972C27.2939 14.2177 27.0506 14.1168 26.7969 14.1165ZM26.7969 15.4837C26.7158 15.4837 26.6365 15.4596 26.569 15.4146C26.5016 15.3695 26.449 15.3054 26.418 15.2305C26.3869 15.1556 26.3788 15.0731 26.3946 14.9935C26.4104 14.914 26.4495 14.8409 26.5069 14.7835C26.5642 14.7262 26.6373 14.6871 26.7169 14.6713C26.7964 14.6554 26.8789 14.6636 26.9539 14.6946C27.0288 14.7256 27.0929 14.7782 27.1379 14.8457C27.183 14.9131 27.207 14.9924 27.207 15.0735C27.2068 15.1823 27.1636 15.2865 27.0867 15.3633C27.0098 15.4402 26.9056 15.4835 26.7969 15.4837ZM12.3047 15.7027C11.9261 15.7027 11.5561 15.8149 11.2413 16.0252C10.9265 16.2356 10.6812 16.5345 10.5363 16.8842C10.3915 17.234 10.3536 17.6188 10.4274 17.9901C10.5013 18.3614 10.6836 18.7025 10.9513 18.9702C11.2189 19.2379 11.56 19.4202 11.9313 19.494C12.3026 19.5679 12.6874 19.53 13.0372 19.3851C13.3869 19.2402 13.6859 18.9949 13.8962 18.6801C14.1065 18.3654 14.2188 17.9953 14.2188 17.6167C14.2182 17.1093 14.0163 16.6228 13.6575 16.264C13.2986 15.9051 12.8122 15.7033 12.3047 15.7027ZM12.3047 18.9839C12.0343 18.9839 11.77 18.9037 11.5451 18.7535C11.3203 18.6033 11.1451 18.3897 11.0416 18.1399C10.9381 17.8901 10.911 17.6152 10.9638 17.35C11.0165 17.0848 11.1468 16.8412 11.338 16.65C11.5292 16.4588 11.7728 16.3286 12.038 16.2758C12.3032 16.2231 12.5781 16.2501 12.8279 16.3536C13.0777 16.4571 13.2913 16.6323 13.4415 16.8572C13.5917 17.082 13.6719 17.3463 13.6719 17.6167C13.6715 17.9792 13.5273 18.3267 13.271 18.5831C13.0147 18.8394 12.6672 18.9835 12.3047 18.9839ZM26.7969 12.2024C26.9862 12.2024 27.1712 12.1463 27.3286 12.0412C27.486 11.936 27.6086 11.7865 27.6811 11.6117C27.7535 11.4368 27.7725 11.2444 27.7355 11.0587C27.6986 10.8731 27.6075 10.7025 27.4736 10.5687C27.3398 10.4348 27.1692 10.3437 26.9836 10.3068C26.798 10.2698 26.6055 10.2888 26.4307 10.3612C26.2558 10.4337 26.1063 10.5563 26.0012 10.7137C25.896 10.8711 25.8399 11.0561 25.8399 11.2454C25.8402 11.4991 25.9411 11.7424 26.1205 11.9218C26.2999 12.1012 26.5432 12.2021 26.7969 12.2024ZM26.7969 10.8353C26.878 10.8353 26.9573 10.8593 27.0248 10.9044C27.0922 10.9495 27.1448 11.0135 27.1758 11.0885C27.2069 11.1634 27.215 11.2459 27.1992 11.3254C27.1833 11.405 27.1443 11.4781 27.0869 11.5354C27.0296 11.5928 26.9565 11.6319 26.8769 11.6477C26.7973 11.6635 26.7149 11.6554 26.6399 11.6244C26.565 11.5933 26.5009 11.5407 26.4559 11.4733C26.4108 11.4058 26.3867 11.3265 26.3867 11.2454C26.3869 11.1367 26.4302 11.0325 26.5071 10.9556C26.584 10.8787 26.6882 10.8355 26.7969 10.8353ZM22.6953 15.7027C22.3168 15.7027 21.9467 15.8149 21.6319 16.0252C21.3172 16.2356 21.0718 16.5345 20.927 16.8842C20.7821 17.234 20.7442 17.6188 20.818 17.9901C20.8919 18.3614 21.0742 18.7025 21.3419 18.9702C21.6096 19.2379 21.9506 19.4202 22.3219 19.494C22.6932 19.5679 23.0781 19.53 23.4278 19.3851C23.7776 19.2402 24.0765 18.9949 24.2868 18.6801C24.4971 18.3654 24.6094 17.9953 24.6094 17.6167C24.6088 17.1093 24.4069 16.6228 24.0481 16.264C23.6893 15.9051 23.2028 15.7033 22.6953 15.7027ZM22.6953 18.9839C22.4249 18.9839 22.1606 18.9037 21.9358 18.7535C21.7109 18.6033 21.5357 18.3897 21.4322 18.1399C21.3287 17.8901 21.3017 17.6152 21.3544 17.35C21.4072 17.0848 21.5374 16.8412 21.7286 16.65C21.9198 16.4588 22.1634 16.3286 22.4286 16.2758C22.6938 16.2231 22.9687 16.2501 23.2185 16.3536C23.4683 16.4571 23.6819 16.6323 23.8321 16.8572C23.9823 17.082 24.0625 17.3463 24.0625 17.6167C24.0622 17.9792 23.918 18.3268 23.6617 18.5831C23.4054 18.8394 23.0578 18.9836 22.6953 18.9839ZM30.797 11.8441L29.8966 9.51827C29.8456 9.38761 29.762 9.27214 29.6539 9.18279C29.5458 9.09345 29.4166 9.03318 29.2787 9.00771L28.9844 8.95414V8.2376C28.9843 8.18683 28.9702 8.13708 28.9435 8.09389C28.9168 8.0507 28.8786 8.01577 28.8333 7.993L28.6805 7.91663C27.6626 7.40508 26.5082 7.23147 25.3848 7.42103C25.321 7.43166 25.263 7.46459 25.2211 7.51398C25.1793 7.56336 25.1563 7.62599 25.1562 7.69073V8.35149C24.214 8.23069 23.2707 8.13287 22.3264 8.05803C21.8413 8.01927 21.3555 7.98635 20.8692 7.95925C20.4053 7.93319 19.9413 7.91276 19.4772 7.89797C19.077 7.88496 18.6767 7.87592 18.2762 7.87087C17.7588 7.8642 17.2415 7.8642 16.7242 7.87087C16.3234 7.87597 15.9227 7.88501 15.5222 7.89797C15.0586 7.91326 14.5952 7.93367 14.1319 7.95919C13.6451 7.98623 13.159 8.01917 12.6736 8.05803C11.7293 8.1341 10.7861 8.23194 9.84375 8.35156V7.69073C9.84373 7.62599 9.82075 7.56336 9.77889 7.51398C9.73703 7.46459 9.67901 7.43166 9.61516 7.42103C8.49203 7.23116 7.33761 7.40479 6.32002 7.91663L6.16702 7.993C6.12154 8.01567 6.08329 8.05057 6.05655 8.09378C6.02981 8.13698 6.01564 8.18679 6.01564 8.2376V8.95424L5.72191 9.00771C5.58382 9.03305 5.4545 9.09325 5.34622 9.1826C5.23794 9.27196 5.15429 9.3875 5.1032 9.51827L4.20278 11.8441C2.68728 15.7513 1.9112 19.9062 1.91408 24.097C1.91192 24.7986 2.11886 25.485 2.50851 26.0685C2.89816 26.652 3.45284 27.1062 4.10175 27.3731L4.10415 27.3743C4.53407 27.556 4.99588 27.6503 5.46263 27.6517C5.58641 27.6518 5.71012 27.6456 5.83326 27.633C6.11977 27.6066 6.39006 27.4882 6.60382 27.2956C6.81759 27.1031 6.96337 26.8465 7.01943 26.5643C7.39048 24.7001 8.12479 22.9272 9.1805 21.3466L9.3108 21.1511C9.43548 20.9637 9.60459 20.81 9.80307 20.7038C10.0016 20.5975 10.2232 20.5421 10.4483 20.5423H11.0158C11.4216 20.7226 11.8607 20.8157 12.3047 20.8157C12.7488 20.8157 13.1879 20.7226 13.5937 20.5423H21.4064C21.8122 20.7226 22.2513 20.8157 22.6953 20.8157C23.1394 20.8157 23.5785 20.7226 23.9842 20.5423H24.5517C24.7768 20.5421 24.9985 20.5976 25.197 20.7038C25.3954 20.81 25.5646 20.9637 25.6893 21.1511L25.9344 21.5186C26.9141 22.9859 27.5956 24.6316 27.9403 26.3619C28.0155 26.7259 28.2138 27.0529 28.5018 27.2878C28.7898 27.5227 29.15 27.6512 29.5217 27.6517H29.5313C30.474 27.6517 31.3782 27.2772 32.0448 26.6105C32.7114 25.9439 33.086 25.0398 33.086 24.097C33.089 19.9061 32.3128 15.7512 30.797 11.8441ZM25.7031 7.92785C26.6412 7.81523 27.5917 7.98147 28.4359 8.40582L28.4375 8.8546L28.3104 8.83147C28.2166 8.81442 28.1223 8.8033 28.0284 8.78668C27.558 8.7059 27.0795 8.62991 26.593 8.5587C26.2962 8.51344 26.0002 8.45817 25.7031 8.41734V7.92785ZM22.7637 8.63975L21.9492 12.8075C21.9127 12.9942 21.8125 13.1623 21.6657 13.2832C21.5188 13.4041 21.3346 13.4702 21.1444 13.4703H13.8553C13.6652 13.47 13.481 13.4038 13.3342 13.283C13.1874 13.1621 13.087 12.9941 13.0502 12.8075L12.2363 8.63975C15.7387 8.33106 19.2614 8.33106 22.7637 8.63975ZM6.56252 8.4069L6.56439 8.40581C7.40853 7.98162 8.35888 7.81538 9.29689 7.92785V8.41741C9.00176 8.458 8.70756 8.51291 8.41269 8.55787C7.92043 8.63006 7.43627 8.70696 6.96022 8.78858C6.8703 8.8045 6.78005 8.81512 6.69016 8.83147L6.56252 8.8547V8.4069ZM4.23102 26.8396C3.70364 26.6009 3.25622 26.2152 2.94231 25.7288C2.62839 25.2424 2.46127 24.6759 2.46095 24.097C2.45802 19.9737 3.22161 15.8858 4.71281 12.0417L5.61323 9.71587C5.63017 9.67233 5.65799 9.63386 5.69403 9.60412C5.73008 9.57439 5.77314 9.5544 5.81911 9.54604L6.54043 9.41483C6.75386 9.37611 6.97706 9.342 7.19476 9.30515C7.61449 9.23172 8.03493 9.16917 8.45527 9.10478C8.83625 9.04867 9.21723 8.99229 9.60506 8.94256C9.62805 8.93839 9.6504 8.93122 9.67152 8.92123C9.96722 8.88207 10.2636 8.85541 10.5595 8.82069L11.3597 12.3557C11.4538 12.7606 11.4431 13.1828 11.3287 13.5825C11.2144 13.9821 11.0001 14.346 10.706 14.6399C10.4359 14.9099 10.1779 15.194 9.92606 15.4848C9.87486 15.5419 9.82544 15.6004 9.7784 15.661C8.42795 17.2526 7.39488 19.0881 6.73504 21.0683L5.1764 25.7504C5.0161 26.2233 4.67665 26.6144 4.23102 26.8396ZM8.85576 20.8478L8.72545 21.0432C7.63002 22.6834 6.86812 24.5231 6.48321 26.4575C6.4495 26.6246 6.36276 26.7763 6.23589 26.8902C6.10902 27.004 5.9488 27.0738 5.77905 27.0893C5.48669 27.117 5.19188 27.1033 4.90337 27.0485C5.26974 26.7569 5.54467 26.3662 5.69547 25.9229L7.25385 21.2419C7.64388 20.0762 8.16706 18.9594 8.81303 17.9137C8.9091 17.7583 9.01264 17.6089 9.11351 17.4574C9.11087 17.5105 9.10543 17.5629 9.10543 17.6167C9.10566 18.0736 9.20406 18.5251 9.39395 18.9407C9.58383 19.3563 9.86079 19.7262 10.2061 20.0254C9.93514 20.0575 9.6743 20.1475 9.44129 20.2894C9.20829 20.4313 9.00858 20.6218 8.85576 20.8478ZM13.4086 20.0207C13.0633 20.1835 12.6864 20.268 12.3047 20.268C11.923 20.268 11.5461 20.1835 11.2008 20.0207C10.6504 19.7688 10.2027 19.3362 9.9321 18.7947C9.66148 18.2532 9.58422 17.6355 9.71314 17.044C9.84206 16.4526 10.1694 15.923 10.6408 15.5433C11.1122 15.1636 11.6994 14.9565 12.3047 14.9565C12.91 14.9565 13.4972 15.1636 13.9686 15.5433C14.44 15.923 14.7673 16.4526 14.8963 17.044C15.0252 17.6355 14.9479 18.2532 14.6773 18.7947C14.4067 19.3362 13.959 19.7688 13.4086 20.0207ZM14.4364 19.9954C14.974 19.5181 15.3348 18.8733 15.4602 18.1654C15.5856 17.4574 15.4683 16.7279 15.1273 16.095C14.7863 15.462 14.2416 14.9628 13.5815 14.6781C12.9213 14.3934 12.1843 14.3399 11.49 14.5263C11.7067 14.1906 11.854 13.815 11.9233 13.4214C11.9925 13.0279 11.9823 12.6245 11.8932 12.235L11.1063 8.75877C11.3008 8.73778 11.4951 8.71181 11.6897 8.69272L12.5135 12.9122C12.5748 13.2232 12.742 13.5033 12.9867 13.7048C13.2314 13.9063 13.5384 14.0167 13.8553 14.0172H21.1444C21.4615 14.0168 21.7686 13.9065 22.0133 13.705C22.2581 13.5035 22.4253 13.2233 22.4865 12.9122L23.3106 8.69295C23.5052 8.71201 23.6994 8.73798 23.8939 8.75898L23.1071 12.235C23.0179 12.6245 23.0077 13.028 23.077 13.4215C23.1463 13.8151 23.2936 14.1908 23.5104 14.5264C22.8165 14.3419 22.0807 14.3966 21.4217 14.6817C20.7627 14.9668 20.219 15.4657 19.8784 16.0978C19.5378 16.73 19.4202 17.4584 19.5446 18.1656C19.6689 18.8728 20.028 19.5174 20.5638 19.9954H14.4364ZM23.7979 20.0213C23.453 20.1836 23.0765 20.2678 22.6954 20.2678C22.3142 20.2678 21.9377 20.1836 21.5928 20.0213C21.0422 19.7697 20.5943 19.3372 20.3234 18.7958C20.0526 18.2544 19.9751 17.6366 20.1039 17.0451C20.2327 16.4535 20.5599 15.9239 21.0313 15.544C21.5027 15.1642 22.0899 14.9571 22.6953 14.9571C23.3007 14.9571 23.8878 15.1642 24.3593 15.544C24.8307 15.9238 25.158 16.4535 25.2868 17.045C25.4155 17.6365 25.3381 18.2543 25.0673 18.7957C24.7964 19.3372 24.3485 19.7696 23.7979 20.0213ZM29.5313 27.1048H29.5227C29.2773 27.1049 29.0392 27.0205 28.8487 26.8658C28.6581 26.711 28.5267 26.4954 28.4765 26.2551C28.1183 24.4545 27.4091 22.7419 26.3894 21.2152L26.1443 20.8478C25.9914 20.6219 25.7916 20.4315 25.5586 20.2896C25.3256 20.1477 25.0648 20.0576 24.7938 20.0255C25.1391 19.7262 25.416 19.3563 25.6059 18.9407C25.7957 18.5251 25.8941 18.0736 25.8943 17.6168C25.8943 17.5628 25.8889 17.5102 25.8862 17.4569C25.9872 17.6086 26.0909 17.7582 26.187 17.9137C26.833 18.9592 27.3561 20.0759 27.7459 21.2414L29.3043 25.9224C29.4552 26.3665 29.7307 26.7577 30.0979 27.0495C29.9112 27.0857 29.7215 27.1042 29.5313 27.1048ZM31.6552 26.2268C31.3966 26.4821 31.0938 26.6882 30.7615 26.8352C30.3194 26.6093 29.9829 26.2199 29.8234 25.7499L28.265 21.0683C27.6045 19.0865 26.5703 17.2495 25.2184 15.6569C25.1736 15.5994 25.1267 15.5438 25.0782 15.4895C24.8251 15.1972 24.5658 14.9114 24.2943 14.6399C24.0003 14.346 23.7861 13.9821 23.6716 13.5825C23.5571 13.1828 23.5463 12.7607 23.6401 12.3557L24.4403 8.82082C24.7366 8.85557 25.0332 8.8823 25.3293 8.92149C25.3502 8.93133 25.3723 8.93841 25.395 8.94255C25.7808 8.99202 26.16 9.0482 26.5392 9.10401C26.9613 9.16859 27.3836 9.23143 27.805 9.30511C28.0244 9.34226 28.2495 9.37664 28.4645 9.41569L29.1815 9.54603C29.2274 9.55451 29.2703 9.57456 29.3063 9.60428C29.3423 9.634 29.3701 9.6724 29.3871 9.71587L30.2875 12.0417C31.7785 15.8859 32.542 19.9738 32.5391 24.097C32.5401 24.4928 32.4625 24.8849 32.3108 25.2505C32.159 25.6162 31.9362 25.948 31.6552 26.2268ZM18.8672 14.5268C18.8131 14.5268 18.7603 14.5428 18.7153 14.5728C18.6703 14.6029 18.6353 14.6456 18.6146 14.6956C18.5939 14.7455 18.5885 14.8005 18.599 14.8535C18.6096 14.9066 18.6356 14.9553 18.6739 14.9936C18.7121 15.0318 18.7608 15.0578 18.8139 15.0684C18.8669 15.0789 18.9219 15.0735 18.9718 15.0528C19.0218 15.0321 19.0645 14.9971 19.0946 14.9521C19.1246 14.9071 19.1406 14.8543 19.1406 14.8002C19.1406 14.7277 19.1118 14.6581 19.0606 14.6069C19.0093 14.5556 18.9397 14.5268 18.8672 14.5268ZM24.8828 12.2024C24.6935 12.2024 24.5085 12.2586 24.3511 12.3637C24.1937 12.4689 24.0711 12.6184 23.9986 12.7932C23.9262 12.9681 23.9073 13.1605 23.9442 13.3462C23.9811 13.5318 24.0723 13.7024 24.2061 13.8362C24.3399 13.97 24.5105 14.0612 24.6961 14.0981C24.8818 14.135 25.0742 14.1161 25.2491 14.0437C25.4239 13.9712 25.5734 13.8486 25.6786 13.6912C25.7837 13.5338 25.8399 13.3488 25.8399 13.1595C25.8396 12.9058 25.7386 12.6625 25.5592 12.4831C25.3798 12.3037 25.1366 12.2028 24.8828 12.2024ZM24.8828 13.5696C24.8017 13.5696 24.7224 13.5456 24.655 13.5005C24.5875 13.4554 24.5349 13.3914 24.5039 13.3164C24.4729 13.2415 24.4647 13.159 24.4806 13.0795C24.4964 12.9999 24.5354 12.9268 24.5928 12.8695C24.6502 12.8121 24.7232 12.773 24.8028 12.7572C24.8824 12.7414 24.9648 12.7495 25.0398 12.7805C25.1147 12.8116 25.1788 12.8642 25.2239 12.9316C25.2689 12.9991 25.293 13.0784 25.293 13.1595C25.2928 13.2682 25.2495 13.3724 25.1726 13.4493C25.0957 13.5261 24.9915 13.5694 24.8828 13.5696ZM28.711 12.2024C28.5217 12.2024 28.3366 12.2586 28.1793 12.3637C28.0219 12.4689 27.8992 12.6184 27.8268 12.7932C27.7543 12.9681 27.7354 13.1605 27.7723 13.3462C27.8092 13.5318 27.9004 13.7024 28.0342 13.8362C28.1681 13.97 28.3386 14.0612 28.5242 14.0981C28.7099 14.135 28.9023 14.1161 29.0772 14.0437C29.2521 13.9712 29.4015 13.8486 29.5067 13.6912C29.6119 13.5338 29.668 13.3488 29.668 13.1595C29.6677 12.9058 29.5667 12.6625 29.3873 12.4831C29.2079 12.3037 28.9647 12.2028 28.711 12.2024ZM28.711 13.5696C28.6298 13.5696 28.5505 13.5456 28.4831 13.5005C28.4156 13.4554 28.3631 13.3914 28.332 13.3164C28.301 13.2415 28.2929 13.159 28.3087 13.0795C28.3245 12.9999 28.3636 12.9268 28.4209 12.8695C28.4783 12.8121 28.5514 12.773 28.6309 12.7572C28.7105 12.7414 28.793 12.7495 28.8679 12.7805C28.9429 12.8116 29.0069 12.8642 29.052 12.9316C29.0971 12.9991 29.1211 13.0784 29.1211 13.1595C29.1209 13.2682 29.0776 13.3724 29.0007 13.4493C28.9239 13.5261 28.8197 13.5694 28.711 13.5696ZM24.7515 11.0361C24.7712 11.0407 24.7915 11.043 24.8118 11.043C24.8738 11.0431 24.9341 11.0221 24.9825 10.9833C25.031 10.9446 25.0648 10.8905 25.0783 10.8299L25.3186 9.76394C25.3346 9.69326 25.3219 9.61912 25.2832 9.55782C25.2446 9.49653 25.1832 9.4531 25.1125 9.43709C25.0418 9.42109 24.9677 9.43382 24.9064 9.47248C24.8451 9.51114 24.8016 9.57256 24.7856 9.64324L24.5453 10.7092C24.5373 10.7442 24.5364 10.7804 24.5424 10.8158C24.5485 10.8512 24.5615 10.885 24.5806 10.9154C24.5998 10.9457 24.6247 10.972 24.654 10.9927C24.6833 11.0134 24.7164 11.0282 24.7515 11.0361ZM16.6797 15.0736C16.7338 15.0736 16.7867 15.0576 16.8316 15.0276C16.8766 14.9975 16.9116 14.9548 16.9323 14.9048C16.953 14.8549 16.9584 14.7999 16.9479 14.7469C16.9373 14.6938 16.9113 14.6451 16.8731 14.6069C16.8348 14.5686 16.7861 14.5426 16.733 14.532C16.68 14.5215 16.625 14.5269 16.5751 14.5476C16.5251 14.5683 16.4824 14.6033 16.4523 14.6483C16.4223 14.6933 16.4063 14.7461 16.4063 14.8002C16.4063 14.8727 16.4351 14.9423 16.4864 14.9936C16.5376 15.0448 16.6072 15.0736 16.6797 15.0736ZM18.3203 15.3471C18.2662 15.3471 18.2134 15.3631 18.1684 15.3932C18.1234 15.4232 18.0884 15.4659 18.0677 15.5159C18.047 15.5658 18.0416 15.6208 18.0521 15.6739C18.0627 15.7269 18.0887 15.7756 18.127 15.8139C18.1652 15.8521 18.2139 15.8781 18.267 15.8887C18.32 15.8992 18.375 15.8938 18.425 15.8731C18.4749 15.8524 18.5176 15.8174 18.5477 15.7724C18.5777 15.7275 18.5938 15.6746 18.5938 15.6205C18.5938 15.548 18.565 15.4784 18.5137 15.4272C18.4624 15.3759 18.3928 15.3471 18.3203 15.3471ZM17.7735 15.0736C17.8275 15.0736 17.8804 15.0576 17.9254 15.0276C17.9703 14.9975 18.0054 14.9548 18.0261 14.9048C18.0468 14.8549 18.0522 14.7999 18.0416 14.7469C18.0311 14.6938 18.005 14.6451 17.9668 14.6069C17.9286 14.5686 17.8798 14.5426 17.8268 14.532C17.7738 14.5215 17.7188 14.5269 17.6688 14.5476C17.6188 14.5683 17.5761 14.6033 17.5461 14.6483C17.5161 14.6933 17.5 14.7461 17.5 14.8002C17.5 14.8727 17.5288 14.9423 17.5801 14.9936C17.6314 15.0448 17.7009 15.0736 17.7735 15.0736ZM17.2266 15.894C17.2807 15.894 17.3335 15.8779 17.3785 15.8479C17.4235 15.8178 17.4585 15.7751 17.4792 15.7252C17.4999 15.6752 17.5053 15.6202 17.4948 15.5672C17.4842 15.5141 17.4582 15.4654 17.4199 15.4272C17.3817 15.3889 17.333 15.3629 17.2799 15.3523C17.2269 15.3418 17.1719 15.3472 17.1219 15.3679C17.072 15.3886 17.0293 15.4236 16.9992 15.4686C16.9692 15.5136 16.9531 15.5664 16.9531 15.6205C16.9531 15.693 16.9819 15.7626 17.0332 15.8139C17.0845 15.8651 17.1541 15.894 17.2266 15.894ZM15.586 14.5268C15.5319 14.5268 15.479 14.5428 15.434 14.5728C15.3891 14.6029 15.354 14.6456 15.3333 14.6956C15.3126 14.7455 15.3072 14.8005 15.3178 14.8535C15.3283 14.9066 15.3544 14.9553 15.3926 14.9936C15.4308 15.0318 15.4796 15.0578 15.5326 15.0684C15.5857 15.0789 15.6406 15.0735 15.6906 15.0528C15.7406 15.0321 15.7833 14.9971 15.8133 14.9521C15.8434 14.9071 15.8594 14.8543 15.8594 14.8002C15.8594 14.7277 15.8306 14.6581 15.7793 14.6069C15.728 14.5556 15.6585 14.5268 15.586 14.5268ZM17.7735 18.9017H16.6797C16.6072 18.9017 16.5376 18.9305 16.4864 18.9818C16.4351 19.033 16.4063 19.1026 16.4063 19.1751C16.4063 19.2476 16.4351 19.3172 16.4864 19.3685C16.5376 19.4197 16.6072 19.4485 16.6797 19.4485H17.7735C17.846 19.4485 17.9155 19.4197 17.9668 19.3685C18.0181 19.3172 18.0469 19.2476 18.0469 19.1751C18.0469 19.1026 18.0181 19.033 17.9668 18.9818C17.9155 18.9305 17.846 18.9017 17.7735 18.9017ZM16.1328 15.3471C16.0787 15.3471 16.0259 15.3631 15.9809 15.3932C15.9359 15.4232 15.9009 15.4659 15.8802 15.5159C15.8595 15.5658 15.8541 15.6208 15.8646 15.6739C15.8752 15.7269 15.9012 15.7756 15.9395 15.8139C15.9777 15.8521 16.0264 15.8781 16.0795 15.8887C16.1325 15.8992 16.1875 15.8938 16.2375 15.8731C16.2874 15.8524 16.3301 15.8174 16.3602 15.7724C16.3902 15.7275 16.4063 15.6746 16.4063 15.6205C16.4063 15.548 16.3775 15.4784 16.3262 15.4272C16.2749 15.3759 16.2053 15.3471 16.1328 15.3471Z" fill="white"/>
</svg>
