<svg width="35" height="35" viewBox="0 0 35 35" fill="none" xmlns="http://www.w3.org/2000/svg">
<path fill-rule="evenodd" clip-rule="evenodd" d="M6.31961 21.874C6.19068 21.874 6.06704 21.9253 5.97587 22.0164C5.88471 22.1076 5.8335 22.2312 5.8335 22.3601V26.249C5.8335 26.3779 5.88471 26.5017 5.97587 26.5928C6.06704 26.684 6.19068 26.7351 6.31961 26.7351C6.44853 26.7351 6.57218 26.684 6.66334 26.5928C6.7545 26.5017 6.80572 26.3779 6.80572 26.249V22.8462H28.1946V26.249C28.1946 26.3779 28.2458 26.5017 28.337 26.5928C28.4282 26.684 28.5518 26.7351 28.6807 26.7351C28.8096 26.7351 28.9333 26.684 29.0245 26.5928C29.1156 26.5017 29.1668 26.3779 29.1668 26.249V22.3601C29.1668 22.2312 29.1156 22.1076 29.0245 22.0164C28.9333 21.9253 28.8096 21.874 28.6807 21.874H6.31961Z" fill="white"/>
<path fill-rule="evenodd" clip-rule="evenodd" d="M17.4884 17.0069C17.3598 17.0089 17.2373 17.0619 17.1476 17.1541C17.0579 17.2463 17.0085 17.3702 17.01 17.4988V26.6377C17.01 26.7667 17.0613 26.8903 17.1524 26.9814C17.2436 27.0726 17.3672 27.1238 17.4962 27.1238C17.5672 27.1248 17.6376 27.1102 17.7023 27.081C17.7671 27.0518 17.8247 27.0087 17.871 26.9548C17.9174 26.901 17.9514 26.8376 17.9706 26.7692C17.9898 26.7008 17.9938 26.6292 17.9823 26.5591V17.4988C17.9831 17.4338 17.9708 17.3693 17.9462 17.3092C17.9217 17.249 17.8853 17.1945 17.8392 17.1486C17.7932 17.1027 17.7384 17.0665 17.6782 17.0421C17.6179 17.0178 17.5534 17.0059 17.4884 17.0069Z" fill="white"/>
<path d="M17.4526 1.94336C16.4956 1.9449 15.5783 2.32608 14.902 3.00323C14.2258 3.68038 13.8459 4.59814 13.8456 5.55513V8.61665C13.8456 9.64817 14.3677 10.5484 15.058 11.1852C15.1007 11.2241 15.1532 11.2417 15.197 11.2786L15.1795 11.2884C15.1795 11.2884 12.1559 12.7885 9.45894 14.2604C8.67922 14.6523 7.97339 15.4212 7.97339 16.4042V17.1654C7.97339 17.2943 8.0246 17.418 8.11577 17.5092C8.20693 17.6003 8.33058 17.6515 8.4595 17.6515C8.58842 17.6515 8.71207 17.6003 8.80323 17.5092C8.8944 17.418 8.94561 17.2943 8.94561 17.1654V16.4042C8.94561 15.9219 9.37728 15.3873 9.89839 15.1257C9.90363 15.1226 9.90882 15.1193 9.91394 15.116C11.7962 14.0978 13.6955 13.1114 15.6112 12.1574H15.6131L16.1332 11.9018C16.562 12.1031 17.0082 12.2304 17.4526 12.2304H17.4564C17.4736 12.2313 17.4908 12.2313 17.508 12.2304C17.6606 12.2188 17.6966 12.1711 17.823 12.1468C18.1526 12.1011 18.4773 12.0398 18.7932 11.8882C18.8059 11.8882 18.8302 11.8785 18.8419 11.8765L19.3212 12.1099L19.2657 12.0758C19.4262 12.1827 19.573 12.246 19.8851 12.3986C20.1962 12.5522 20.623 12.7622 21.1489 13.0257C22.1989 13.5507 23.6544 14.2974 25.3859 15.2647C25.8866 15.5768 26.0548 16.0085 26.0548 16.727V17.2111C26.0548 17.34 26.106 17.4637 26.1972 17.5549C26.2883 17.646 26.412 17.6972 26.5409 17.6972C26.6698 17.6972 26.7935 17.646 26.8846 17.5549C26.9758 17.4637 27.027 17.34 27.027 17.2111V16.727C27.027 15.814 26.7062 14.9419 25.9031 14.4402C25.8961 14.4355 25.889 14.4311 25.8817 14.4267C24.4669 13.6369 23.0341 12.8796 21.5845 12.1556C21.0527 11.8892 20.6239 11.6792 20.3148 11.5275C20.0046 11.3749 19.7674 11.2436 19.8053 11.2689C19.7918 11.2601 19.7779 11.252 19.7635 11.2446C19.7898 11.2212 19.8219 11.2115 19.8471 11.1872C20.5374 10.5504 21.0624 9.65107 21.0624 8.6176V5.55709C21.0619 4.59967 20.6815 3.68159 20.0047 3.00441C19.3278 2.32724 18.41 1.94629 17.4526 1.94526V1.94336ZM17.4526 2.91558C17.7996 2.91365 18.1437 2.9806 18.4647 3.11259C18.7857 3.24458 19.0773 3.43899 19.3227 3.68451C19.568 3.93003 19.7622 4.22174 19.8939 4.54286C20.0257 4.86397 20.0924 5.20805 20.0902 5.55513V8.61665C20.0902 9.31567 19.7237 9.97679 19.188 10.4697C18.6591 10.9578 17.9717 11.2427 17.4701 11.2475H17.4642C17.4399 11.2475 17.4244 11.2329 17.401 11.2309C16.9023 11.2144 16.2363 10.9461 15.7171 10.4678C15.1824 9.97392 14.8169 9.31283 14.8169 8.6138V5.55317C14.8169 4.0822 15.9835 2.91362 17.4526 2.91362V2.91558Z" fill="white"/>
<path d="M6.31953 26.251C5.41786 26.2525 4.55354 26.6112 3.91579 27.2486C3.27803 27.886 2.9188 28.7501 2.91675 29.6517C2.91675 31.5252 4.44605 33.0545 6.31953 33.0545C8.193 33.0545 9.7223 31.5252 9.7223 29.6517C9.72025 28.7501 9.36102 27.886 8.72326 27.2486C8.08551 26.6112 7.22119 26.2525 6.31953 26.251ZM6.31953 27.2232C6.63891 27.2219 6.95539 27.2838 7.25073 27.4054C7.54607 27.5269 7.81443 27.7057 8.04036 27.9315C8.26629 28.1572 8.44532 28.4255 8.56712 28.7207C8.68893 29.0159 8.75111 29.3324 8.75008 29.6517C8.75008 31.0002 7.668 32.0823 6.31953 32.0823C6.00005 32.0833 5.68353 32.0212 5.38818 31.8994C5.09283 31.7776 4.82448 31.5986 4.59857 31.3727C4.37267 31.1468 4.19368 30.8785 4.07189 30.5831C3.95011 30.2878 3.88794 29.9712 3.88897 29.6517C3.88794 29.3324 3.95012 29.0159 4.07193 28.7207C4.19373 28.4255 4.37276 28.1572 4.59869 27.9315C4.82462 27.7057 5.09298 27.5269 5.38832 27.4054C5.68367 27.2838 6.00014 27.2219 6.31953 27.2232ZM28.6806 26.251C27.779 26.2525 26.9147 26.6112 26.2769 27.2486C25.6391 27.886 25.2799 28.7501 25.2779 29.6517C25.2779 31.5252 26.8072 33.0545 28.6806 33.0545C30.5541 33.0545 32.0834 31.5252 32.0834 29.6517C32.0814 28.7501 31.7221 27.886 31.0844 27.2486C30.4466 26.6112 29.5823 26.2525 28.6806 26.251ZM28.6806 27.2232C29 27.2219 29.3165 27.2838 29.6118 27.4054C29.9072 27.5269 30.1755 27.7057 30.4015 27.9315C30.6274 28.1572 30.8064 28.4255 30.9282 28.7207C31.05 29.0159 31.1122 29.3324 31.1112 29.6517C31.1112 31.0002 30.0291 32.0823 28.6806 32.0823C28.3612 32.0833 28.0446 32.0212 27.7493 31.8994C27.4539 31.7776 27.1856 31.5986 26.9597 31.3727C26.7338 31.1468 26.5548 30.8785 26.433 30.5831C26.3112 30.2878 26.2491 29.9712 26.2501 29.6517C26.2491 29.3324 26.3112 29.0159 26.433 28.7207C26.5548 28.4255 26.7339 28.1572 26.9598 27.9315C27.1857 27.7057 27.4541 27.5269 27.7494 27.4054C28.0448 27.2838 28.3613 27.2219 28.6806 27.2232ZM17.5001 26.251C16.5984 26.2525 15.7341 26.6112 15.0963 27.2486C14.4586 27.886 14.0994 28.7501 14.0973 29.6517C14.0973 31.5252 15.6266 33.0545 17.5001 33.0545C19.3736 33.0545 20.9029 31.5252 20.9029 29.6517C20.9008 28.7501 20.5416 27.886 19.9038 27.2486C19.2661 26.6112 18.4017 26.2525 17.5001 26.251ZM17.5001 27.2232C17.8195 27.2219 18.1359 27.2838 18.4313 27.4054C18.7266 27.5269 18.995 27.7057 19.2209 27.9315C19.4468 28.1572 19.6259 28.4255 19.7477 28.7207C19.8695 29.0159 19.9317 29.3324 19.9306 29.6517C19.9306 31.0002 18.8486 32.0823 17.5001 32.0823C17.1806 32.0833 16.8641 32.0212 16.5687 31.8994C16.2734 31.7776 16.005 31.5986 15.7791 31.3727C15.5532 31.1468 15.3742 30.8785 15.2524 30.5831C15.1307 30.2878 15.0685 29.9712 15.0695 29.6517C15.0685 29.3324 15.1307 29.0159 15.2525 28.7207C15.3743 28.4255 15.5533 28.1572 15.7792 27.9315C16.0052 27.7057 16.2735 27.5269 16.5689 27.4054C16.8642 27.2838 17.1807 27.2219 17.5001 27.2232Z" fill="white"/>
</svg>
